<svg width="1440" height="1024" viewBox="0 0 1440 1024" fill="none" xmlns="http://www.w3.org/2000/svg">
<rect width="1440" height="1024" fill="white"/>
<path d="M1378 908.051C1378 916.101 1160.33 922.654 891.91 922.654C623.487 922.654 405.793 916.101 405.793 908.051C405.793 900.001 623.461 893.448 891.91 893.448C1160.36 893.448 1378 900.001 1378 908.051Z" fill="#92E3A9"/>
<path opacity="0.3" d="M1378 908.051C1378 916.101 1160.33 922.654 891.91 922.654C623.487 922.654 405.793 916.101 405.793 908.051C405.793 900.001 623.461 893.448 891.91 893.448C1160.36 893.448 1378 900.001 1378 908.051Z" fill="white"/>
<path d="M1284.94 626.9C1284.94 627.029 1291.52 620.063 1291.88 619.572C1296.05 613.948 1300.84 600.583 1296.31 594.158C1295.53 593.115 1294.54 592.25 1293.4 591.617C1292.27 590.985 1291.02 590.601 1289.72 590.489C1288.43 590.377 1287.13 590.54 1285.9 590.968C1284.68 591.395 1283.56 592.078 1282.61 592.972C1278.46 596.635 1277.49 603.421 1277.85 608.659C1278.28 614.799 1284.94 626.874 1284.94 626.9Z" fill="#92E3A9"/>
<path d="M1344.76 602.905C1338.36 598.39 1325.14 603.318 1319.59 607.549C1319.1 607.936 1312.24 614.541 1312.37 614.593H1312.52C1310.42 615.367 1308.19 616.192 1305.76 617.173C1301.3 618.979 1296.28 621.094 1290.96 623.726C1285.21 626.543 1279.62 629.679 1274.21 633.118C1268.15 636.95 1262.44 641.319 1257.16 646.173C1257.09 646.226 1257.03 646.287 1256.98 646.353C1258.1 644.367 1261.1 638.613 1261.28 638.2C1263.84 631.647 1264.94 617.56 1258.9 612.529C1257.86 611.734 1256.68 611.168 1255.41 610.866C1254.14 610.564 1252.83 610.534 1251.55 610.777C1250.28 611.021 1249.06 611.532 1247.99 612.278C1246.93 613.024 1246.02 613.989 1245.35 615.109C1242.33 619.753 1243.15 626.538 1244.89 631.492C1246.84 637.091 1255.67 646.328 1256.39 646.973C1251.11 652.042 1246.19 657.464 1241.64 663.201C1239.08 666.53 1236.39 669.961 1233.95 673.522C1234.88 671.767 1235.7 670.168 1235.77 669.935C1238.33 663.408 1239.43 649.295 1233.39 644.264C1232.36 643.47 1231.17 642.903 1229.91 642.602C1228.65 642.301 1227.34 642.271 1226.06 642.514C1224.78 642.757 1223.57 643.269 1222.51 644.015C1221.44 644.761 1220.54 645.725 1219.87 646.844C1216.82 651.462 1217.67 658.273 1219.38 663.201C1221.1 668.129 1228.53 676.282 1230.5 678.372L1227.5 682.346C1222.89 688.822 1218.33 695.246 1213.65 701.49C1212.01 703.683 1210.32 705.799 1208.53 707.888C1209.35 706.315 1210.04 704.999 1210.11 704.792C1212.67 698.239 1213.78 684.152 1207.73 678.992C1206.7 678.193 1205.51 677.623 1204.25 677.319C1202.98 677.015 1201.66 676.984 1200.39 677.228C1199.11 677.471 1197.89 677.984 1196.83 678.733C1195.76 679.481 1194.86 680.449 1194.19 681.572C1191.14 686.216 1191.98 693.001 1193.72 697.955C1195.47 702.909 1202.12 710.236 1204.45 712.739C1202.66 714.855 1200.87 716.945 1199.03 718.905C1197.75 720.221 1196.62 721.486 1195.24 722.801L1191.32 726.517C1188.76 728.787 1186.2 731.161 1183.51 733.328C1181.71 734.85 1180 736.244 1178.39 737.663C1180.02 735.521 1183.2 731.212 1183.51 730.825C1186.39 725.368 1187.84 719.256 1187.71 713.074C1188.05 712.481 1188.34 711.86 1188.58 711.217C1189.06 710 1189.28 708.696 1189.22 707.388C1189.17 706.08 1188.84 704.799 1188.26 703.626C1187.69 702.454 1186.87 701.416 1185.87 700.582C1184.87 699.747 1183.71 699.133 1182.46 698.781C1174.77 696.897 1164.28 706.263 1160.61 712.249C1160.41 712.61 1158.46 716.687 1157.31 719.292C1157.75 717.667 1158.23 716.067 1158.67 714.39C1159.59 711.062 1160.41 707.708 1161.23 704.07C1161.59 702.316 1161.97 700.535 1162.36 698.755C1162.74 696.975 1162.97 695.065 1163.3 693.208C1163.94 688.873 1164.4 684.461 1164.79 679.998C1167.68 680.798 1178 683.507 1183.17 682.578C1188.35 681.649 1194.67 679.327 1197.28 674.451C1197.95 673.324 1198.36 672.069 1198.51 670.769C1198.66 669.468 1198.53 668.151 1198.13 666.903C1197.74 665.656 1197.09 664.507 1196.22 663.531C1195.36 662.555 1194.3 661.774 1193.11 661.241C1185.89 658.196 1174.03 665.859 1169.5 671.2C1169.22 671.535 1166.4 675.741 1164.89 678.089C1165.1 675.508 1165.3 672.722 1165.43 669.987C1165.74 662.247 1165.84 654.171 1165.97 646.224C1165.97 643.799 1165.97 641.374 1166.12 638.949C1167.14 639.232 1179.36 642.716 1185.15 641.813C1190.27 641.039 1196.64 638.587 1199.28 633.685C1199.93 632.555 1200.34 631.299 1200.48 630C1200.63 628.7 1200.49 627.385 1200.1 626.139C1199.7 624.894 1199.05 623.747 1198.19 622.771C1197.32 621.795 1196.26 621.013 1195.08 620.475C1187.89 617.457 1176 625.119 1171.47 630.46C1171.14 630.847 1167.09 636.91 1166.12 638.51C1166.25 633.169 1166.43 627.828 1166.81 622.591C1167.3 615.511 1168.25 608.471 1169.63 601.512C1170.11 601.512 1182.84 605.33 1188.78 604.401C1193.9 603.627 1200.25 601.176 1202.89 596.274C1203.55 595.146 1203.96 593.891 1204.1 592.593C1204.24 591.294 1204.11 589.98 1203.72 588.735C1203.32 587.49 1202.68 586.342 1201.82 585.365C1200.95 584.388 1199.9 583.604 1198.72 583.064C1191.5 580.045 1179.61 587.682 1175.11 593.049C1174.8 593.384 1171.7 598.003 1170.29 600.222L1169.88 600.067C1171.47 593.096 1173.67 586.283 1176.46 579.71C1177.95 576.072 1179.56 572.692 1181.23 569.39C1183.53 570.318 1194.03 574.55 1199.51 574.24C1204.99 573.931 1211.29 572.279 1214.44 567.713C1215.21 566.663 1215.76 565.461 1216.04 564.185C1216.33 562.909 1216.34 561.588 1216.08 560.306C1215.83 559.024 1215.31 557.811 1214.56 556.745C1213.81 555.678 1212.84 554.783 1211.73 554.115C1204.89 550.323 1192.24 556.696 1187.17 561.417C1186.89 561.675 1184.38 564.642 1182.56 566.835C1183.33 565.39 1184.1 563.868 1184.86 562.475C1187.73 557.315 1190.65 552.671 1193.29 548.62C1194.8 546.349 1196.21 544.311 1197.57 542.402C1200.28 542.144 1211.29 540.88 1215.93 538.222C1220.56 535.565 1225.48 531.024 1226.17 525.502C1226.38 524.212 1226.32 522.891 1225.99 521.627C1225.66 520.362 1225.07 519.182 1224.25 518.164C1223.44 517.146 1222.42 516.313 1221.26 515.719C1220.1 515.125 1218.84 514.784 1217.54 514.718C1209.73 514.511 1201.41 525.941 1199.1 532.572C1198.9 533.165 1196.8 542.479 1196.93 542.454H1197.1C1195.77 544.174 1194.36 546.134 1192.88 548.336C1190.14 552.335 1187.09 556.876 1184.12 562.036C1180.85 567.571 1177.9 573.291 1175.29 579.168C1172.34 585.741 1169.96 592.561 1168.19 599.551C1168.21 599.636 1168.21 599.723 1168.19 599.809C1168.19 597.513 1167.43 591.088 1167.32 590.598C1165.89 583.735 1159.05 571.299 1151.29 570.525C1150 570.426 1148.7 570.604 1147.47 571.046C1146.25 571.487 1145.14 572.184 1144.2 573.089C1143.26 573.995 1142.52 575.089 1142.03 576.301C1141.54 577.513 1141.31 578.815 1141.36 580.123C1141.36 585.67 1145.79 590.882 1149.94 594.029C1154.62 597.616 1167.04 600.428 1168.04 600.634C1166.43 607.801 1165.3 615.067 1164.63 622.385C1164.25 626.642 1163.97 630.925 1163.74 635.285C1163.56 633.298 1163.38 631.518 1163.33 631.286C1161.87 624.397 1155.03 611.987 1147.27 611.187C1145.98 611.088 1144.68 611.266 1143.45 611.708C1142.23 612.149 1141.11 612.846 1140.18 613.751C1139.24 614.657 1138.5 615.751 1138.01 616.963C1137.52 618.175 1137.29 619.477 1137.34 620.785C1137.34 626.332 1141.77 631.544 1145.91 634.717C1150.06 637.891 1160.69 640.522 1163.48 641.193C1163.48 642.845 1163.33 644.496 1163.28 646.147C1162.97 654.094 1162.71 662.04 1162.23 669.806C1162.05 672.541 1161.77 675.25 1161.51 677.934C1161.36 676.179 1161.18 674.683 1161.15 674.476C1159.69 667.588 1152.85 655.177 1145.1 654.378C1143.8 654.279 1142.5 654.456 1141.28 654.898C1140.05 655.34 1138.94 656.036 1138 656.942C1137.06 657.847 1136.33 658.942 1135.84 660.154C1135.35 661.366 1135.12 662.668 1135.16 663.975C1135.16 669.548 1139.59 674.734 1143.74 677.908C1147.89 681.081 1157.49 683.481 1160.79 684.255C1160.46 687.016 1160.1 689.776 1159.64 692.408C1159.28 694.214 1159.08 695.994 1158.62 697.775L1157.39 702.935C1156.47 706.263 1155.57 709.72 1154.6 712.945C1153.93 715.19 1153.26 717.332 1152.6 719.499C1152.8 716.764 1153.08 711.423 1153.06 710.959C1152.68 703.967 1147.78 690.628 1140.26 688.667C1138.99 688.375 1137.68 688.355 1136.41 688.607C1135.14 688.859 1133.93 689.378 1132.87 690.13C1131.81 690.881 1130.92 691.85 1130.26 692.971C1129.59 694.093 1129.17 695.342 1129.01 696.639C1128.17 702.135 1131.75 707.94 1135.39 711.707C1139.03 715.474 1150.75 720.402 1152.19 720.97C1151.06 724.53 1149.96 727.962 1148.86 731.29C1145.04 742.513 1141.46 751.724 1138.87 758.123C1138.87 758.355 1138.69 758.561 1138.59 758.768L1143.25 761.348C1143.41 760.935 1143.58 760.522 1143.74 760.084C1146.3 753.556 1149.65 744.164 1153.24 732.735C1154.39 729.123 1155.54 725.252 1156.7 721.253C1160.6 721.746 1164.54 722.005 1168.48 722.027C1169.88 727.781 1176.41 737.224 1177.26 738.437C1174.39 740.785 1171.57 743.055 1168.89 745.145C1159.56 752.395 1151.52 758.045 1145.84 761.967L1145.17 762.431L1150.29 765.27C1155.82 761.27 1163.1 755.723 1171.73 748.809C1174.65 746.435 1177.75 743.829 1180.87 741.068C1182.02 742.049 1191.37 750.047 1196.9 751.647C1201.89 753.092 1208.68 753.556 1213.08 750.228C1214.15 749.48 1215.04 748.516 1215.71 747.396C1216.38 746.277 1216.81 745.028 1216.97 743.731C1217.13 742.434 1217.02 741.118 1216.64 739.868C1216.26 738.618 1215.63 737.462 1214.77 736.476C1209.5 730.671 1195.54 732.606 1189.17 735.547C1188.81 735.728 1184.97 738.127 1182.56 739.572C1183.84 738.462 1185.12 737.405 1186.38 736.244C1188.94 733.999 1191.5 731.651 1194.21 729.123L1198.05 725.33C1199.36 724.066 1200.61 722.595 1201.89 721.228C1204.81 717.977 1207.6 714.545 1210.34 711.036C1212.34 713.307 1219.49 721.356 1224.22 723.524C1228.96 725.691 1235.59 727.187 1240.46 724.582C1241.62 724.002 1242.65 723.184 1243.48 722.179C1244.31 721.174 1244.92 720.006 1245.27 718.749C1245.62 717.492 1245.71 716.174 1245.52 714.881C1245.34 713.588 1244.89 712.349 1244.2 711.243C1239.84 704.715 1225.76 704.483 1219.05 706.418C1218.62 706.547 1213.93 708.482 1211.37 709.591C1212.98 707.476 1214.65 705.36 1216.21 703.141C1220.79 696.768 1225.22 690.241 1229.68 683.636L1233.8 677.65C1234.49 678.45 1242.79 688.151 1248.12 690.55C1252.83 692.743 1259.46 694.24 1264.33 691.608C1265.49 691.035 1266.53 690.22 1267.36 689.216C1268.19 688.212 1268.81 687.042 1269.16 685.782C1269.51 684.523 1269.6 683.202 1269.41 681.908C1269.22 680.613 1268.76 679.373 1268.06 678.269C1263.71 671.742 1249.63 671.509 1242.92 673.47C1242.43 673.599 1235.72 676.411 1234.06 677.211C1237.08 672.825 1240.15 668.465 1243.35 664.311C1247.62 658.665 1252.26 653.312 1257.23 648.289C1257.57 648.676 1266.17 658.815 1271.6 661.344C1276.34 663.563 1282.97 665.033 1287.83 662.427C1289 661.851 1290.03 661.034 1290.86 660.03C1291.69 659.026 1292.3 657.856 1292.66 656.598C1293.01 655.34 1293.09 654.021 1292.91 652.727C1292.72 651.433 1292.27 650.193 1291.57 649.088C1287.22 642.535 1273.14 642.329 1266.43 644.264C1265.99 644.393 1260.89 646.534 1258.49 647.592L1258.23 647.205C1263.37 642.289 1268.93 637.843 1274.85 633.918C1278.1 631.699 1281.3 629.764 1284.48 627.983C1285.89 630.022 1292.42 639.336 1297.08 642.174C1301.74 645.012 1307.96 647.102 1313.08 645.038C1314.31 644.59 1315.42 643.887 1316.36 642.974C1317.29 642.062 1318.03 640.96 1318.51 639.742C1318.99 638.525 1319.22 637.218 1319.16 635.907C1319.11 634.596 1318.78 633.312 1318.21 632.137C1314.59 625.145 1300.61 623.391 1293.75 624.578C1293.37 624.578 1289.63 625.713 1286.94 626.538L1291.24 624.165C1296.49 621.43 1301.48 619.211 1305.86 617.302C1308.42 616.244 1310.68 615.315 1312.83 614.489C1315.26 615.78 1325.09 620.862 1330.42 621.198C1335.75 621.533 1342.35 620.501 1345.94 616.295C1346.76 615.35 1347.38 614.246 1347.77 613.052C1348.15 611.858 1348.29 610.598 1348.18 609.347C1348.07 608.096 1347.71 606.881 1347.13 605.774C1346.54 604.667 1345.73 603.691 1344.76 602.905V602.905Z" fill="#92E3A9"/>
<path d="M1164.89 556.851C1168.6 561.753 1180.77 568.126 1180.79 568.126C1180.82 568.126 1182.53 558.786 1182.56 558.166C1182.97 551.149 1179.64 537.371 1172.32 534.533C1171.09 534.095 1169.79 533.923 1168.5 534.025C1167.2 534.128 1165.94 534.505 1164.8 535.131C1163.66 535.756 1162.67 536.617 1161.88 537.656C1161.09 538.696 1160.53 539.891 1160.23 541.164C1158.8 546.504 1161.84 552.697 1164.89 556.851Z" fill="#92E3A9"/>
<g opacity="0.5">
<path d="M1284.94 626.9C1284.94 627.029 1291.52 620.063 1291.88 619.572C1296.05 613.948 1300.84 600.583 1296.31 594.158C1295.53 593.115 1294.54 592.25 1293.4 591.617C1292.27 590.985 1291.01 590.601 1289.72 590.489C1288.43 590.377 1287.13 590.54 1285.9 590.968C1284.68 591.395 1283.56 592.078 1282.61 592.972C1278.46 596.635 1277.49 603.421 1277.85 608.659C1278.28 614.799 1284.94 626.874 1284.94 626.9Z" fill="white"/>
<path d="M1344.76 602.905C1338.36 598.39 1325.14 603.318 1319.59 607.549C1319.1 607.936 1312.24 614.541 1312.37 614.593H1312.52C1310.42 615.367 1308.19 616.192 1305.76 617.173C1301.3 618.979 1296.28 621.094 1290.96 623.726C1285.21 626.543 1279.62 629.679 1274.21 633.118C1268.15 636.95 1262.44 641.319 1257.16 646.173C1257.09 646.226 1257.03 646.287 1256.98 646.353C1258.1 644.367 1261.1 638.613 1261.28 638.2C1263.84 631.647 1264.94 617.56 1258.9 612.529C1257.86 611.734 1256.68 611.168 1255.41 610.866C1254.14 610.564 1252.83 610.534 1251.55 610.777C1250.28 611.021 1249.06 611.532 1247.99 612.278C1246.93 613.024 1246.02 613.989 1245.35 615.109C1242.33 619.753 1243.15 626.538 1244.89 631.492C1246.84 637.091 1255.67 646.328 1256.39 646.973C1251.11 652.042 1246.19 657.464 1241.64 663.201C1239.08 666.53 1236.39 669.961 1233.95 673.522C1234.88 671.767 1235.7 670.168 1235.77 669.935C1238.33 663.408 1239.43 649.295 1233.39 644.264C1232.36 643.47 1231.17 642.903 1229.91 642.602C1228.65 642.301 1227.34 642.271 1226.06 642.514C1224.78 642.757 1223.57 643.269 1222.51 644.015C1221.44 644.761 1220.54 645.725 1219.87 646.844C1216.82 651.462 1217.67 658.273 1219.38 663.201C1221.1 668.129 1228.53 676.282 1230.5 678.372L1227.5 682.346C1222.89 688.822 1218.33 695.246 1213.65 701.49C1212.01 703.683 1210.32 705.799 1208.53 707.888C1209.35 706.315 1210.04 704.999 1210.11 704.792C1212.67 698.239 1213.78 684.152 1207.73 678.992C1206.7 678.193 1205.51 677.623 1204.25 677.319C1202.98 677.015 1201.66 676.984 1200.39 677.228C1199.11 677.471 1197.89 677.984 1196.83 678.733C1195.76 679.481 1194.86 680.449 1194.19 681.572C1191.14 686.216 1191.98 693.001 1193.72 697.955C1195.47 702.909 1202.12 710.236 1204.45 712.739C1202.66 714.855 1200.87 716.945 1199.03 718.905C1197.75 720.221 1196.62 721.486 1195.24 722.801L1191.32 726.517C1188.76 728.787 1186.2 731.161 1183.51 733.328C1181.71 734.85 1180 736.244 1178.39 737.663C1180.02 735.521 1183.2 731.212 1183.51 730.825C1186.39 725.368 1187.84 719.256 1187.71 713.074C1188.05 712.481 1188.34 711.86 1188.58 711.217C1189.06 710 1189.28 708.696 1189.22 707.388C1189.17 706.08 1188.84 704.799 1188.26 703.626C1187.69 702.454 1186.87 701.416 1185.87 700.582C1184.87 699.747 1183.71 699.133 1182.46 698.781C1174.77 696.897 1164.28 706.263 1160.61 712.249C1160.41 712.61 1158.46 716.687 1157.31 719.292C1157.75 717.667 1158.23 716.067 1158.67 714.39C1159.59 711.062 1160.41 707.708 1161.23 704.07C1161.59 702.316 1161.97 700.535 1162.36 698.755C1162.74 696.975 1162.97 695.065 1163.3 693.208C1163.94 688.873 1164.4 684.461 1164.79 679.998C1167.68 680.798 1178 683.507 1183.17 682.578C1188.35 681.649 1194.67 679.327 1197.28 674.451C1197.95 673.324 1198.36 672.069 1198.51 670.769C1198.66 669.468 1198.53 668.151 1198.13 666.903C1197.74 665.656 1197.09 664.507 1196.22 663.531C1195.36 662.555 1194.3 661.774 1193.11 661.241C1185.89 658.196 1174.03 665.859 1169.5 671.2C1169.22 671.535 1166.4 675.741 1164.89 678.089C1165.1 675.508 1165.3 672.722 1165.43 669.987C1165.74 662.247 1165.84 654.171 1165.97 646.224C1165.97 643.799 1165.97 641.374 1166.12 638.949C1167.14 639.232 1179.36 642.716 1185.15 641.813C1190.27 641.039 1196.64 638.587 1199.28 633.685C1199.93 632.555 1200.34 631.299 1200.48 630C1200.63 628.7 1200.49 627.385 1200.1 626.139C1199.7 624.894 1199.05 623.747 1198.19 622.771C1197.32 621.795 1196.26 621.013 1195.08 620.475C1187.89 617.457 1176 625.119 1171.47 630.46C1171.14 630.847 1167.09 636.91 1166.12 638.51C1166.25 633.169 1166.43 627.828 1166.81 622.591C1167.3 615.511 1168.25 608.471 1169.63 601.512C1170.11 601.512 1182.84 605.33 1188.78 604.401C1193.9 603.627 1200.25 601.176 1202.89 596.274C1203.55 595.146 1203.96 593.891 1204.1 592.593C1204.24 591.294 1204.11 589.98 1203.72 588.735C1203.32 587.49 1202.68 586.342 1201.82 585.365C1200.95 584.388 1199.9 583.604 1198.72 583.064C1191.5 580.045 1179.61 587.682 1175.11 593.049C1174.8 593.384 1171.7 598.003 1170.29 600.222L1169.88 600.067C1171.47 593.096 1173.67 586.283 1176.46 579.71C1177.95 576.072 1179.56 572.692 1181.23 569.39C1183.53 570.318 1194.03 574.55 1199.51 574.24C1204.99 573.931 1211.29 572.279 1214.44 567.713C1215.21 566.663 1215.76 565.461 1216.04 564.185C1216.33 562.909 1216.34 561.588 1216.08 560.306C1215.83 559.024 1215.31 557.811 1214.56 556.745C1213.81 555.678 1212.84 554.783 1211.73 554.115C1204.89 550.323 1192.24 556.696 1187.17 561.417C1186.89 561.675 1184.38 564.642 1182.56 566.835C1183.33 565.39 1184.1 563.868 1184.86 562.475C1187.73 557.315 1190.65 552.671 1193.29 548.62C1194.8 546.349 1196.21 544.311 1197.57 542.402C1200.28 542.144 1211.29 540.88 1215.93 538.222C1220.56 535.565 1225.48 531.024 1226.17 525.502C1226.38 524.212 1226.32 522.891 1225.99 521.627C1225.66 520.362 1225.07 519.182 1224.25 518.164C1223.44 517.146 1222.42 516.313 1221.26 515.719C1220.1 515.125 1218.84 514.784 1217.54 514.718C1209.73 514.511 1201.41 525.941 1199.1 532.572C1198.9 533.165 1196.8 542.479 1196.93 542.454H1197.1C1195.77 544.174 1194.36 546.134 1192.88 548.336C1190.14 552.335 1187.09 556.876 1184.12 562.036C1180.85 567.571 1177.9 573.291 1175.29 579.168C1172.34 585.741 1169.96 592.561 1168.19 599.551C1168.21 599.636 1168.21 599.723 1168.19 599.809C1168.19 597.513 1167.43 591.088 1167.32 590.598C1165.89 583.735 1159.05 571.299 1151.29 570.525C1150 570.426 1148.7 570.604 1147.47 571.046C1146.25 571.487 1145.14 572.184 1144.2 573.089C1143.26 573.995 1142.52 575.089 1142.03 576.301C1141.54 577.513 1141.31 578.815 1141.36 580.123C1141.36 585.67 1145.79 590.882 1149.94 594.029C1154.62 597.616 1167.04 600.428 1168.04 600.634C1166.43 607.801 1165.3 615.067 1164.63 622.385C1164.25 626.642 1163.97 630.925 1163.74 635.285C1163.56 633.298 1163.38 631.518 1163.33 631.286C1161.87 624.397 1155.03 611.987 1147.27 611.187C1145.98 611.088 1144.68 611.266 1143.45 611.708C1142.23 612.149 1141.11 612.846 1140.18 613.751C1139.24 614.657 1138.5 615.751 1138.01 616.963C1137.52 618.175 1137.29 619.477 1137.34 620.785C1137.34 626.332 1141.77 631.544 1145.91 634.717C1150.06 637.891 1160.69 640.522 1163.48 641.193C1163.48 642.845 1163.33 644.496 1163.28 646.147C1162.97 654.094 1162.71 662.04 1162.23 669.806C1162.05 672.541 1161.77 675.25 1161.51 677.934C1161.36 676.179 1161.18 674.683 1161.15 674.476C1159.69 667.588 1152.85 655.177 1145.1 654.378C1143.8 654.279 1142.5 654.456 1141.28 654.898C1140.05 655.34 1138.94 656.036 1138 656.942C1137.06 657.847 1136.33 658.942 1135.84 660.154C1135.35 661.366 1135.12 662.668 1135.16 663.975C1135.16 669.548 1139.59 674.734 1143.74 677.908C1147.89 681.081 1157.49 683.481 1160.79 684.255C1160.46 687.016 1160.1 689.776 1159.64 692.408C1159.28 694.214 1159.08 695.994 1158.62 697.775L1157.39 702.935C1156.47 706.263 1155.57 709.72 1154.6 712.945C1153.93 715.19 1153.26 717.332 1152.6 719.499C1152.8 716.764 1153.08 711.423 1153.06 710.959C1152.68 703.967 1147.78 690.628 1140.26 688.667C1138.99 688.375 1137.68 688.355 1136.41 688.607C1135.14 688.859 1133.93 689.378 1132.87 690.13C1131.81 690.881 1130.92 691.85 1130.26 692.971C1129.59 694.093 1129.17 695.342 1129.01 696.639C1128.17 702.135 1131.75 707.94 1135.39 711.707C1139.03 715.474 1150.75 720.402 1152.19 720.97C1151.06 724.53 1149.96 727.962 1148.86 731.29C1145.04 742.513 1141.46 751.724 1138.87 758.123C1138.87 758.355 1138.69 758.561 1138.59 758.768L1143.25 761.348C1143.41 760.935 1143.58 760.522 1143.74 760.084C1146.3 753.556 1149.65 744.164 1153.24 732.735C1154.39 729.123 1155.54 725.252 1156.7 721.253C1160.6 721.746 1164.54 722.005 1168.48 722.027C1169.88 727.781 1176.41 737.224 1177.26 738.437C1174.39 740.785 1171.57 743.055 1168.89 745.145C1159.56 752.395 1151.52 758.045 1145.84 761.967L1145.17 762.431L1150.29 765.27C1155.82 761.27 1163.1 755.723 1171.73 748.809C1174.65 746.435 1177.75 743.829 1180.87 741.068C1182.02 742.049 1191.37 750.047 1196.9 751.647C1201.89 753.092 1208.68 753.556 1213.08 750.228C1214.15 749.48 1215.04 748.516 1215.71 747.396C1216.38 746.277 1216.81 745.028 1216.97 743.731C1217.13 742.434 1217.02 741.118 1216.64 739.868C1216.26 738.618 1215.63 737.462 1214.77 736.476C1209.5 730.671 1195.54 732.606 1189.17 735.547C1188.81 735.728 1184.97 738.127 1182.56 739.572C1183.84 738.462 1185.12 737.405 1186.38 736.244C1188.94 733.999 1191.5 731.651 1194.21 729.123L1198.05 725.33C1199.36 724.066 1200.61 722.595 1201.89 721.228C1204.81 717.977 1207.6 714.545 1210.34 711.036C1212.34 713.307 1219.49 721.356 1224.22 723.524C1228.96 725.691 1235.59 727.187 1240.46 724.582C1241.62 724.002 1242.65 723.184 1243.48 722.179C1244.31 721.174 1244.92 720.006 1245.27 718.749C1245.62 717.492 1245.71 716.174 1245.52 714.881C1245.34 713.588 1244.89 712.349 1244.2 711.243C1239.84 704.715 1225.76 704.483 1219.05 706.418C1218.62 706.547 1213.93 708.482 1211.37 709.591C1212.98 707.476 1214.65 705.36 1216.21 703.141C1220.79 696.768 1225.22 690.241 1229.68 683.636L1233.8 677.65C1234.49 678.45 1242.79 688.151 1248.12 690.55C1252.83 692.743 1259.46 694.24 1264.33 691.608C1265.49 691.035 1266.53 690.22 1267.36 689.216C1268.19 688.212 1268.81 687.042 1269.16 685.782C1269.51 684.523 1269.6 683.202 1269.41 681.908C1269.22 680.613 1268.76 679.373 1268.06 678.269C1263.71 671.742 1249.63 671.509 1242.92 673.47C1242.43 673.599 1235.72 676.411 1234.06 677.211C1237.08 672.825 1240.15 668.465 1243.35 664.311C1247.62 658.665 1252.26 653.312 1257.23 648.289C1257.57 648.676 1266.17 658.815 1271.6 661.344C1276.34 663.563 1282.97 665.033 1287.83 662.427C1289 661.851 1290.03 661.034 1290.86 660.03C1291.69 659.026 1292.3 657.856 1292.66 656.598C1293.01 655.34 1293.09 654.021 1292.91 652.727C1292.72 651.433 1292.27 650.193 1291.57 649.088C1287.22 642.535 1273.14 642.329 1266.43 644.264C1265.99 644.393 1260.89 646.534 1258.49 647.592L1258.23 647.205C1263.37 642.289 1268.93 637.843 1274.85 633.918C1278.1 631.699 1281.3 629.764 1284.48 627.983C1285.89 630.022 1292.42 639.336 1297.08 642.174C1301.74 645.012 1307.96 647.102 1313.08 645.038C1314.31 644.59 1315.42 643.887 1316.36 642.974C1317.29 642.062 1318.03 640.96 1318.51 639.742C1318.99 638.525 1319.22 637.218 1319.16 635.907C1319.11 634.596 1318.78 633.312 1318.21 632.137C1314.59 625.145 1300.61 623.391 1293.75 624.578C1293.37 624.578 1289.63 625.713 1286.94 626.538L1291.24 624.165C1296.49 621.43 1301.48 619.211 1305.86 617.302C1308.42 616.244 1310.68 615.315 1312.83 614.489C1315.26 615.78 1325.09 620.862 1330.42 621.198C1335.75 621.533 1342.35 620.501 1345.94 616.295C1346.76 615.35 1347.38 614.246 1347.77 613.052C1348.15 611.858 1348.29 610.598 1348.18 609.347C1348.07 608.096 1347.71 606.881 1347.13 605.774C1346.54 604.667 1345.73 603.691 1344.76 602.905V602.905Z" fill="white"/>
<path d="M1164.89 556.851C1168.6 561.753 1180.77 568.126 1180.79 568.126C1180.82 568.126 1182.53 558.786 1182.56 558.166C1182.97 551.149 1179.64 537.371 1172.32 534.533C1171.09 534.095 1169.79 533.923 1168.5 534.025C1167.2 534.128 1165.94 534.505 1164.8 535.131C1163.66 535.756 1162.67 536.617 1161.88 537.656C1161.09 538.696 1160.53 539.891 1160.23 541.164C1158.8 546.504 1161.84 552.697 1164.89 556.851Z" fill="white"/>
</g>
<path d="M665.048 426.401C665.202 426.401 663.051 415.59 662.82 414.945C660.26 407.205 651.041 393.763 642.027 393.789C640.53 393.836 639.059 394.2 637.711 394.857C636.362 395.514 635.166 396.45 634.2 397.604C633.234 398.757 632.52 400.102 632.103 401.552C631.687 403.002 631.578 404.523 631.784 406.018C632.449 412.391 638.134 417.835 643.282 420.957C649.274 424.646 665.048 426.401 665.048 426.401Z" fill="#92E3A9"/>
<path d="M682.488 353.617C673.986 356.687 669.684 372.529 670.042 380.631C670.042 381.327 671.656 392.241 671.809 392.164H671.989C671.297 394.744 670.606 397.324 669.889 400.291C668.608 405.735 667.328 411.901 666.15 418.713C664.934 426.049 664.13 433.448 663.743 440.876C663.293 449.184 663.576 457.516 664.588 465.773C664.6 465.876 664.6 465.98 664.588 466.083C663.487 463.658 660.158 457.027 659.825 456.537C655.42 449.751 642.924 439.25 634.217 441.675C632.786 442.122 631.464 442.865 630.337 443.859C629.209 444.852 628.301 446.073 627.671 447.442C627.041 448.811 626.703 450.298 626.68 451.807C626.656 453.316 626.947 454.813 627.533 456.201C629.838 462.161 636.752 465.902 642.539 467.554C649.069 469.437 663.615 467.218 664.767 467.038C665.997 475.422 667.785 483.715 670.119 491.858C671.451 496.605 672.936 501.353 674.498 506.1C673.474 504.036 672.526 502.204 672.373 501.972C667.943 495.186 655.471 484.685 646.765 487.111C645.333 487.55 644.008 488.289 642.879 489.279C641.749 490.27 640.839 491.488 640.209 492.857C639.578 494.225 639.241 495.712 639.219 497.22C639.197 498.728 639.491 500.224 640.081 501.611C642.386 507.596 649.3 511.338 655.087 512.989C660.875 514.64 673.371 512.989 676.675 512.55C677.289 514.356 677.878 516.188 678.493 517.994C681.464 526.663 684.485 535.332 687.174 543.795C688.122 546.814 688.941 549.832 689.735 552.825C688.813 550.993 688.045 549.471 687.891 549.265C683.487 542.479 670.99 531.978 662.283 534.404C660.851 534.843 659.527 535.582 658.397 536.572C657.268 537.563 656.358 538.781 655.727 540.15C655.096 541.518 654.759 543.004 654.737 544.513C654.715 546.021 655.009 547.517 655.599 548.904C657.904 554.889 664.818 558.631 670.606 560.282C676.393 561.933 687.686 560.488 691.604 559.921C692.372 563.042 693.141 566.139 693.73 569.183C694.114 571.273 694.6 573.26 694.856 575.401C695.113 577.543 695.42 579.555 695.727 581.593C696.137 585.567 696.572 589.669 696.879 593.565C697.11 596.145 697.264 598.725 697.443 601.305C696.547 598.286 694.626 592.404 694.421 591.939C691.232 585.562 686.482 580.109 680.618 576.098C680.291 575.374 679.897 574.683 679.44 574.034C678.629 572.763 677.562 571.678 676.308 570.85C675.054 570.021 673.641 569.467 672.161 569.224C670.682 568.981 669.167 569.054 667.717 569.438C666.267 569.822 664.913 570.509 663.743 571.454C656.931 577.414 658.621 593.694 661.771 601.176C661.95 601.615 664.511 606.156 666.15 608.916C664.921 607.394 663.768 605.898 662.488 604.324C659.927 601.254 657.366 598.235 654.601 594.984L650.375 590.366C648.993 588.792 647.354 587.321 645.817 585.773C642.232 582.264 638.391 578.884 634.473 575.453C637.034 573.234 646.56 565.132 649.274 559.792C651.989 554.451 653.884 546.711 651.067 540.957C650.451 539.581 649.554 538.352 648.434 537.349C647.315 536.346 645.998 535.592 644.57 535.137C643.142 534.682 641.634 534.535 640.146 534.707C638.658 534.878 637.222 535.364 635.933 536.132C628.25 540.957 627.533 557.315 629.505 565.184C629.633 565.674 631.682 571.144 632.86 574.137C630.478 572.176 628.122 570.189 625.664 568.254C618.519 562.707 611.144 557.315 603.795 551.897C601.541 550.245 599.313 548.542 597.085 546.891C598.058 546.091 609.454 536.829 612.45 530.74C615.139 525.322 617.085 517.659 614.268 511.905C613.652 510.529 612.755 509.3 611.636 508.297C610.516 507.294 609.199 506.541 607.771 506.085C606.343 505.63 604.835 505.483 603.347 505.655C601.859 505.826 600.423 506.312 599.134 507.08C591.451 511.905 590.709 528.263 592.706 536.132C592.706 536.726 595.805 544.621 596.65 546.582C591.733 542.892 586.893 539.177 582.233 535.307C575.909 530.125 569.922 524.54 564.307 518.588C564.768 518.226 576.701 508.603 579.672 502.359C582.361 496.941 584.307 489.278 581.49 483.524C580.874 482.148 579.977 480.919 578.858 479.916C577.738 478.913 576.421 478.16 574.993 477.704C573.565 477.249 572.057 477.102 570.569 477.274C569.081 477.445 567.645 477.931 566.356 478.7C558.673 483.524 557.931 499.882 559.928 507.751C559.928 508.267 562.31 514.279 563.436 517.117L563.001 517.375C557.538 511.227 552.635 504.595 548.353 497.56C545.946 493.741 543.872 489.82 541.926 486.182C544.307 484.608 555.242 477.358 558.648 472.043C562.054 466.728 564.666 459.555 562.489 453.544C562.027 452.107 561.269 450.785 560.267 449.663C559.264 448.541 558.038 447.644 556.668 447.031C555.298 446.417 553.816 446.101 552.317 446.103C550.819 446.105 549.337 446.425 547.969 447.042C539.851 451.015 537.316 467.192 538.417 475.216C538.417 475.655 539.57 480.041 540.415 483.215C539.57 481.512 538.673 479.757 537.854 478.055C534.884 471.862 532.553 466.031 530.505 460.82C529.378 457.852 528.43 455.169 527.56 452.615C529.122 449.854 535.242 438.579 535.857 432.413C536.471 426.246 535.524 418.532 530.735 414.197C529.667 413.139 528.391 412.319 526.988 411.791C525.585 411.262 524.087 411.037 522.593 411.129C521.098 411.222 519.639 411.63 518.311 412.327C516.983 413.025 515.815 413.996 514.884 415.178C509.506 422.454 514.653 438.012 519.314 444.617C519.698 445.184 526.996 453.415 526.996 453.26V453.079C527.79 455.659 528.661 458.239 529.557 461.026C531.478 466.186 533.706 472.198 536.548 478.467C539.529 485.267 542.907 491.884 546.663 498.282C550.846 505.468 555.644 512.271 561.004 518.613L561.208 518.82C558.955 517.427 552.553 513.66 552.015 513.505C544.615 510.306 528.456 508.499 522.515 515.337C521.564 516.505 520.867 517.861 520.47 519.317C520.072 520.774 519.983 522.298 520.208 523.791C520.432 525.285 520.966 526.714 521.773 527.987C522.581 529.259 523.645 530.347 524.896 531.178C530.018 534.868 537.905 534.146 543.616 532.314C550.095 530.25 561.004 520.316 561.874 519.413C567.454 525.715 573.442 531.636 579.8 537.138C583.513 540.364 587.354 543.511 591.247 546.582L587.226 544.311C579.825 541.112 563.667 539.306 557.726 546.169C556.774 547.333 556.076 548.685 555.677 550.139C555.278 551.592 555.186 553.114 555.409 554.605C555.631 556.096 556.162 557.524 556.967 558.795C557.772 560.067 558.833 561.153 560.082 561.985C565.203 565.7 573.091 564.952 578.827 563.12C584.563 561.288 594.192 553.006 596.599 550.761L601.106 554.296C608.353 559.869 615.6 565.416 622.54 571.067C624.972 573.053 627.303 575.117 629.659 577.156C627.892 576.149 626.406 575.298 626.15 575.195C618.775 571.995 602.591 570.189 596.676 577.027C595.724 578.193 595.025 579.547 594.626 581.003C594.226 582.458 594.135 583.982 594.357 585.475C594.579 586.969 595.11 588.398 595.915 589.672C596.72 590.945 597.782 592.034 599.031 592.868C604.153 596.558 612.04 595.835 617.776 594.004C623.513 592.172 632.143 584.664 635.087 582.032C637.443 584.199 639.774 586.366 641.95 588.585C643.41 590.108 644.895 591.501 646.278 593.126L650.401 597.822C652.962 600.918 655.523 604.092 657.904 607.162C659.569 609.278 661.131 611.342 662.693 613.406C660.286 611.393 655.471 607.549 655.01 607.291C648.173 602.982 632.475 598.725 625.587 604.711C624.47 605.718 623.577 606.95 622.966 608.329C622.354 609.707 622.038 611.199 622.038 612.709C622.038 614.219 622.354 615.711 622.966 617.09C623.577 618.468 624.47 619.701 625.587 620.707C630.171 625.171 638.007 625.635 643.948 624.706C650.478 623.674 662.334 615.883 663.794 614.902C666.355 618.334 668.916 621.688 671.144 624.913C679.133 636.007 685.356 645.554 689.607 652.288L690.042 652.984L695.548 650.275L694.677 648.959C690.221 642.251 683.743 632.731 675.446 621.714C672.885 618.205 669.991 614.541 667.021 610.8C670.069 607.405 672.925 603.838 675.574 600.118C681.899 602.698 695.113 602.698 696.803 602.698C697.084 607.007 697.315 611.187 697.468 615.134C698.032 628.809 698.006 640.239 697.853 648.237V649.166L703.896 646.199C703.896 638.252 703.614 627.545 702.795 614.851C702.539 610.49 702.18 605.82 701.745 601.047C703.435 600.634 717.11 597.074 722.231 592.92C726.918 589.127 731.86 582.987 731.706 576.588C731.718 575.077 731.413 573.58 730.812 572.196C730.211 570.811 729.327 569.57 728.218 568.553C727.109 567.535 725.8 566.765 724.376 566.291C722.952 565.817 721.444 565.651 719.952 565.803C711.015 566.964 703.512 581.49 702.027 589.488C702.027 589.953 701.566 595.165 701.361 598.441C701.182 596.506 701.028 594.597 700.823 592.584C700.413 588.637 699.901 584.664 699.363 580.432L698.365 574.214C698.083 572.15 697.52 570.009 697.084 567.867C696.009 562.913 694.677 557.985 693.218 553.006C696.649 552.671 708.89 551.2 714.139 548.181C719.389 545.162 725.151 539.847 725.945 533.475C726.184 531.984 726.109 530.46 725.724 529.001C725.339 527.542 724.653 526.181 723.71 525.007C722.768 523.834 721.59 522.874 720.254 522.19C718.918 521.506 717.454 521.114 715.957 521.039C706.943 520.807 697.34 533.939 694.703 541.679C694.524 542.144 693.243 547.872 692.577 551.019C691.681 548.052 690.81 545.085 689.812 542.092C686.892 533.501 683.691 524.909 680.516 516.291L677.674 508.396C678.903 508.267 693.499 506.874 699.363 503.468C704.485 500.45 710.375 495.135 711.169 488.788C711.408 487.296 711.333 485.77 710.948 484.31C710.563 482.849 709.878 481.487 708.935 480.311C707.993 479.136 706.816 478.173 705.48 477.486C704.144 476.8 702.679 476.404 701.182 476.326C692.168 476.119 682.565 489.226 679.927 496.967C679.722 497.56 677.878 505.765 677.494 507.88C675.42 502.075 673.397 496.27 671.656 490.465C669.225 482.645 667.309 474.673 665.919 466.599C666.483 466.599 681.72 465.154 687.737 461.671C692.859 458.652 698.749 453.337 699.543 446.965C699.778 445.475 699.7 443.952 699.313 442.494C698.927 441.037 698.24 439.678 697.298 438.505C696.357 437.332 695.181 436.372 693.847 435.687C692.513 435.002 691.051 434.607 689.556 434.528C680.542 434.296 670.939 447.429 668.301 455.169C668.122 455.685 666.713 461.929 666.099 464.922H665.587C664.411 456.757 663.957 448.502 664.229 440.256C664.229 435.715 664.665 431.381 665.074 427.175C667.942 427.175 681.028 427.175 686.764 424.595C692.501 422.015 698.646 417.552 700.132 411.308C700.533 409.852 700.624 408.328 700.4 406.834C700.176 405.341 699.642 403.912 698.832 402.64C698.023 401.369 696.956 400.285 695.701 399.457C694.447 398.63 693.033 398.079 691.553 397.84C682.616 396.601 671.63 408.702 668.173 415.9C667.968 416.313 666.508 420.57 665.459 423.641C665.689 421.731 665.894 419.77 666.124 417.964C667.046 411.153 668.301 405.064 669.453 399.517C670.145 396.421 670.811 393.634 671.476 391.028C674.293 389.583 685.612 383.623 689.402 378.773C693.192 373.922 696.7 367.008 695.164 360.712C694.325 358.139 692.554 355.98 690.204 354.664C687.855 353.349 685.099 352.975 682.488 353.617V353.617Z" fill="#92E3A9"/>
<path d="M519.467 493.664C526.51 493.38 540.594 486.104 540.62 486.104C540.645 486.104 532.937 478.209 532.476 477.77C526.177 472.61 511.068 466.676 503.565 471.681C502.337 472.548 501.305 473.667 500.536 474.964C499.767 476.261 499.278 477.706 499.101 479.207C498.925 480.707 499.065 482.228 499.512 483.67C499.959 485.112 500.703 486.442 501.695 487.575C505.742 492.554 513.45 493.999 519.467 493.664Z" fill="#92E3A9"/>
<g opacity="0.5">
<path d="M665.048 426.401C665.202 426.401 663.051 415.59 662.82 414.945C660.26 407.205 651.041 393.763 642.027 393.789C640.53 393.836 639.059 394.2 637.711 394.857C636.362 395.514 635.166 396.45 634.2 397.604C633.234 398.757 632.52 400.102 632.103 401.552C631.687 403.002 631.578 404.523 631.784 406.018C632.449 412.391 638.134 417.835 643.282 420.957C649.274 424.646 665.048 426.401 665.048 426.401Z" fill="white"/>
<path d="M682.488 353.617C673.986 356.687 669.684 372.529 670.042 380.631C670.042 381.327 671.656 392.241 671.809 392.164H671.989C671.297 394.744 670.606 397.324 669.889 400.291C668.608 405.735 667.328 411.901 666.15 418.713C664.934 426.049 664.13 433.448 663.743 440.876C663.293 449.184 663.576 457.516 664.588 465.773C664.6 465.876 664.6 465.98 664.588 466.083C663.487 463.658 660.158 457.027 659.825 456.537C655.42 449.751 642.924 439.25 634.217 441.675C632.786 442.122 631.464 442.865 630.337 443.859C629.209 444.852 628.301 446.073 627.671 447.442C627.041 448.811 626.703 450.298 626.68 451.807C626.656 453.316 626.947 454.813 627.533 456.201C629.838 462.161 636.752 465.902 642.539 467.554C649.069 469.437 663.615 467.218 664.767 467.038C665.997 475.422 667.785 483.715 670.119 491.858C671.451 496.605 672.936 501.353 674.498 506.1C673.474 504.036 672.526 502.204 672.373 501.972C667.943 495.186 655.471 484.685 646.765 487.111C645.333 487.55 644.008 488.289 642.879 489.279C641.749 490.27 640.839 491.488 640.209 492.857C639.578 494.225 639.241 495.712 639.219 497.22C639.197 498.728 639.491 500.224 640.081 501.611C642.386 507.596 649.3 511.338 655.087 512.989C660.875 514.64 673.371 512.989 676.675 512.55C677.289 514.356 677.878 516.188 678.493 517.994C681.464 526.663 684.485 535.332 687.174 543.795C688.122 546.814 688.941 549.832 689.735 552.825C688.813 550.993 688.045 549.471 687.891 549.265C683.487 542.479 670.99 531.978 662.283 534.404C660.851 534.843 659.527 535.582 658.397 536.572C657.268 537.563 656.358 538.781 655.727 540.15C655.096 541.518 654.759 543.004 654.737 544.513C654.715 546.021 655.009 547.517 655.599 548.904C657.904 554.889 664.818 558.631 670.606 560.282C676.393 561.933 687.686 560.488 691.604 559.921C692.372 563.042 693.141 566.139 693.73 569.183C694.114 571.273 694.6 573.26 694.856 575.401C695.113 577.543 695.42 579.555 695.727 581.593C696.137 585.567 696.572 589.669 696.879 593.565C697.11 596.145 697.264 598.725 697.443 601.305C696.547 598.286 694.626 592.404 694.421 591.939C691.232 585.562 686.482 580.109 680.618 576.098C680.291 575.374 679.897 574.683 679.44 574.034C678.629 572.763 677.562 571.678 676.308 570.85C675.054 570.021 673.641 569.467 672.161 569.224C670.682 568.981 669.167 569.054 667.717 569.438C666.267 569.822 664.913 570.509 663.743 571.454C656.931 577.414 658.621 593.694 661.771 601.176C661.95 601.615 664.511 606.156 666.15 608.916C664.921 607.394 663.768 605.898 662.488 604.324C659.927 601.254 657.366 598.235 654.601 594.984L650.375 590.366C648.993 588.792 647.354 587.321 645.817 585.773C642.232 582.264 638.391 578.884 634.473 575.453C637.034 573.234 646.56 565.132 649.274 559.792C651.989 554.451 653.884 546.711 651.067 540.957C650.451 539.581 649.554 538.352 648.434 537.349C647.315 536.346 645.998 535.592 644.57 535.137C643.142 534.682 641.634 534.535 640.146 534.707C638.658 534.878 637.222 535.364 635.933 536.132C628.25 540.957 627.533 557.315 629.505 565.184C629.633 565.674 631.682 571.144 632.86 574.137C630.478 572.176 628.122 570.189 625.664 568.254C618.519 562.707 611.144 557.315 603.795 551.897C601.541 550.245 599.313 548.542 597.085 546.891C598.058 546.091 609.454 536.829 612.45 530.74C615.139 525.322 617.085 517.659 614.268 511.905C613.652 510.529 612.755 509.3 611.636 508.297C610.516 507.294 609.199 506.541 607.771 506.085C606.343 505.63 604.835 505.483 603.347 505.655C601.859 505.826 600.423 506.312 599.134 507.08C591.451 511.905 590.709 528.263 592.706 536.132C592.706 536.726 595.805 544.621 596.65 546.582C591.733 542.892 586.893 539.177 582.233 535.307C575.909 530.125 569.922 524.54 564.307 518.588C564.768 518.226 576.701 508.603 579.672 502.359C582.361 496.941 584.307 489.278 581.49 483.524C580.874 482.148 579.977 480.919 578.858 479.916C577.738 478.913 576.421 478.16 574.993 477.704C573.565 477.249 572.057 477.102 570.569 477.274C569.081 477.445 567.645 477.931 566.356 478.7C558.673 483.524 557.931 499.882 559.928 507.751C559.928 508.267 562.31 514.279 563.436 517.117L563.001 517.375C557.538 511.227 552.635 504.595 548.353 497.56C545.946 493.741 543.872 489.82 541.926 486.182C544.307 484.608 555.242 477.358 558.648 472.043C562.054 466.728 564.666 459.555 562.489 453.544C562.027 452.107 561.269 450.785 560.267 449.663C559.264 448.541 558.038 447.644 556.668 447.031C555.298 446.417 553.816 446.101 552.317 446.103C550.819 446.105 549.337 446.425 547.969 447.042C539.851 451.015 537.316 467.192 538.417 475.216C538.417 475.655 539.57 480.041 540.415 483.215C539.57 481.512 538.673 479.757 537.854 478.055C534.884 471.862 532.553 466.031 530.505 460.82C529.378 457.852 528.43 455.169 527.56 452.615C529.122 449.854 535.242 438.579 535.857 432.413C536.471 426.246 535.524 418.532 530.735 414.197C529.667 413.139 528.391 412.319 526.988 411.791C525.585 411.262 524.087 411.037 522.593 411.129C521.098 411.222 519.639 411.63 518.311 412.327C516.983 413.025 515.815 413.996 514.884 415.178C509.506 422.454 514.653 438.012 519.314 444.617C519.698 445.184 526.996 453.415 526.996 453.26V453.079C527.79 455.659 528.661 458.239 529.557 461.026C531.478 466.186 533.706 472.198 536.548 478.467C539.529 485.267 542.907 491.884 546.663 498.282C550.846 505.468 555.644 512.271 561.004 518.613L561.208 518.82C558.955 517.427 552.553 513.66 552.015 513.505C544.615 510.306 528.456 508.499 522.515 515.337C521.564 516.505 520.867 517.861 520.47 519.317C520.072 520.774 519.983 522.298 520.208 523.791C520.432 525.285 520.966 526.714 521.773 527.987C522.581 529.259 523.645 530.347 524.896 531.178C530.018 534.868 537.905 534.146 543.616 532.314C550.095 530.25 561.004 520.316 561.874 519.413C567.454 525.715 573.442 531.636 579.8 537.138C583.513 540.364 587.354 543.511 591.247 546.582L587.226 544.311C579.825 541.112 563.667 539.306 557.726 546.169C556.774 547.333 556.076 548.685 555.677 550.139C555.278 551.592 555.186 553.114 555.409 554.605C555.631 556.096 556.162 557.524 556.967 558.795C557.772 560.067 558.833 561.153 560.082 561.985C565.203 565.7 573.091 564.952 578.827 563.12C584.563 561.288 594.192 553.006 596.599 550.761L601.106 554.296C608.353 559.869 615.6 565.416 622.54 571.067C624.972 573.053 627.303 575.117 629.659 577.156C627.892 576.149 626.406 575.298 626.15 575.195C618.775 571.995 602.591 570.189 596.676 577.027C595.724 578.193 595.025 579.547 594.626 581.003C594.226 582.458 594.135 583.982 594.357 585.475C594.579 586.969 595.11 588.398 595.915 589.672C596.72 590.945 597.782 592.034 599.031 592.868C604.153 596.558 612.04 595.835 617.776 594.004C623.513 592.172 632.143 584.664 635.087 582.032C637.443 584.199 639.774 586.366 641.95 588.585C643.41 590.108 644.895 591.501 646.278 593.126L650.401 597.822C652.962 600.918 655.523 604.092 657.904 607.162C659.569 609.278 661.131 611.342 662.693 613.406C660.286 611.393 655.471 607.549 655.01 607.291C648.173 602.982 632.475 598.725 625.587 604.711C624.47 605.718 623.577 606.95 622.966 608.329C622.354 609.707 622.038 611.199 622.038 612.709C622.038 614.219 622.354 615.711 622.966 617.09C623.577 618.468 624.47 619.701 625.587 620.707C630.171 625.171 638.007 625.635 643.948 624.706C650.478 623.674 662.334 615.883 663.794 614.902C666.355 618.334 668.916 621.688 671.144 624.913C679.133 636.007 685.356 645.554 689.607 652.288L690.042 652.984L695.548 650.275L694.677 648.959C690.221 642.251 683.743 632.731 675.446 621.714C672.885 618.205 669.991 614.541 667.021 610.8C670.069 607.405 672.925 603.838 675.574 600.118C681.899 602.698 695.113 602.698 696.803 602.698C697.084 607.007 697.315 611.187 697.468 615.134C698.032 628.809 698.006 640.239 697.853 648.237V649.166L703.896 646.199C703.896 638.252 703.614 627.545 702.795 614.851C702.539 610.49 702.18 605.82 701.745 601.047C703.435 600.634 717.11 597.074 722.231 592.92C726.918 589.127 731.86 582.987 731.706 576.588C731.718 575.077 731.413 573.58 730.812 572.196C730.211 570.811 729.327 569.57 728.218 568.553C727.109 567.535 725.8 566.765 724.376 566.291C722.952 565.817 721.444 565.651 719.952 565.803C711.015 566.964 703.512 581.49 702.027 589.488C702.027 589.953 701.566 595.165 701.361 598.441C701.182 596.506 701.028 594.597 700.823 592.584C700.413 588.637 699.901 584.664 699.363 580.432L698.365 574.214C698.083 572.15 697.52 570.009 697.084 567.867C696.009 562.913 694.677 557.985 693.218 553.006C696.649 552.671 708.89 551.2 714.139 548.181C719.389 545.162 725.151 539.847 725.945 533.475C726.184 531.984 726.109 530.46 725.724 529.001C725.339 527.542 724.653 526.181 723.71 525.007C722.768 523.834 721.59 522.874 720.254 522.19C718.918 521.506 717.454 521.114 715.957 521.039C706.943 520.807 697.34 533.939 694.703 541.679C694.524 542.144 693.243 547.872 692.577 551.019C691.681 548.052 690.81 545.085 689.812 542.092C686.892 533.501 683.691 524.909 680.516 516.291L677.674 508.396C678.903 508.267 693.499 506.874 699.363 503.468C704.485 500.45 710.375 495.135 711.169 488.788C711.408 487.296 711.333 485.77 710.948 484.31C710.563 482.849 709.878 481.487 708.935 480.311C707.993 479.136 706.816 478.173 705.48 477.486C704.144 476.8 702.679 476.404 701.182 476.326C692.168 476.119 682.565 489.226 679.927 496.967C679.722 497.56 677.878 505.765 677.494 507.88C675.42 502.075 673.397 496.27 671.656 490.465C669.225 482.645 667.309 474.673 665.919 466.599C666.483 466.599 681.72 465.154 687.737 461.671C692.859 458.652 698.749 453.337 699.543 446.965C699.778 445.475 699.7 443.952 699.313 442.494C698.927 441.037 698.24 439.678 697.298 438.505C696.357 437.332 695.181 436.372 693.847 435.687C692.513 435.002 691.051 434.607 689.556 434.528C680.542 434.296 670.939 447.429 668.301 455.169C668.122 455.685 666.713 461.929 666.099 464.922H665.587C664.411 456.757 663.957 448.502 664.229 440.256C664.229 435.715 664.665 431.381 665.074 427.175C667.942 427.175 681.028 427.175 686.764 424.595C692.501 422.015 698.646 417.552 700.132 411.308C700.533 409.852 700.624 408.328 700.4 406.834C700.176 405.341 699.642 403.912 698.832 402.64C698.023 401.369 696.956 400.285 695.701 399.457C694.447 398.63 693.033 398.079 691.553 397.84C682.616 396.601 671.63 408.702 668.173 415.9C667.968 416.313 666.508 420.57 665.459 423.641C665.689 421.731 665.894 419.77 666.124 417.964C667.046 411.153 668.301 405.064 669.453 399.517C670.145 396.421 670.811 393.634 671.476 391.028C674.293 389.583 685.612 383.623 689.402 378.773C693.192 373.922 696.7 367.008 695.164 360.712C694.325 358.139 692.554 355.98 690.204 354.664C687.855 353.349 685.099 352.975 682.488 353.617V353.617Z" fill="white"/>
<path d="M519.467 493.664C526.51 493.38 540.594 486.104 540.62 486.104C540.645 486.104 532.937 478.209 532.476 477.77C526.177 472.61 511.068 466.676 503.565 471.681C502.337 472.548 501.305 473.667 500.536 474.964C499.767 476.261 499.278 477.706 499.101 479.207C498.925 480.707 499.065 482.228 499.512 483.67C499.959 485.112 500.703 486.442 501.695 487.575C505.742 492.554 513.45 493.999 519.467 493.664Z" fill="white"/>
</g>
<path d="M605.536 688.512C605.536 688.512 648.301 584.664 672.244 589.179C696.188 593.694 631.272 754.743 631.272 754.743C631.272 754.743 706.508 611.754 757.826 611.754C809.145 611.754 739.004 769.785 674.037 822.47C674.037 822.47 776.623 711.088 836.468 735.186C896.314 759.284 716.777 872.136 716.777 872.136C716.777 872.136 821.078 839.034 809.119 864.628C797.16 890.223 764.664 894.712 764.664 894.712L882.64 900.75H472.169L564.512 891.719C564.512 891.719 468.738 843.549 494.397 823.992C520.056 804.435 576.471 846.568 576.471 846.568C576.471 846.568 479.007 738.204 497.803 697.542C516.599 656.88 600.414 771.307 600.414 771.307C600.414 771.307 532.015 625.3 545.69 599.783C559.365 574.266 605.536 688.512 605.536 688.512Z" fill="#92E3A9"/>
<path opacity="0.5" d="M605.536 688.512C605.536 688.512 648.301 584.664 672.244 589.179C696.188 593.694 631.272 754.743 631.272 754.743C631.272 754.743 706.508 611.754 757.826 611.754C809.145 611.754 739.004 769.785 674.037 822.47C674.037 822.47 776.623 711.088 836.468 735.186C896.314 759.284 716.777 872.136 716.777 872.136C716.777 872.136 821.078 839.034 809.119 864.628C797.16 890.223 764.664 894.712 764.664 894.712L882.64 900.75H472.169L564.512 891.719C564.512 891.719 468.738 843.549 494.397 823.992C520.056 804.435 576.471 846.568 576.471 846.568C576.471 846.568 479.007 738.204 497.803 697.542C516.599 656.88 600.414 771.307 600.414 771.307C600.414 771.307 532.015 625.3 545.69 599.783C559.365 574.266 605.536 688.512 605.536 688.512Z" fill="white"/>
<path d="M591.861 693.982C629.479 805.984 629.479 885.244 629.479 885.244C629.479 885.244 585.024 886.947 538.853 852.503" stroke="#263238" stroke-linecap="round" stroke-linejoin="round"/>
<path d="M610.683 754.304C618.416 720.819 628.689 687.981 641.412 656.08" stroke="#263238" stroke-linecap="round" stroke-linejoin="round"/>
<path d="M721.821 688.822L626.073 831.836C626.073 831.836 561.08 776.699 538.853 745.687" stroke="#263238" stroke-linecap="round" stroke-linejoin="round"/>
<path d="M627.789 866.28C627.789 866.28 728.659 818.032 769.708 790.477" stroke="#263238" stroke-linecap="round" stroke-linejoin="round"/>
<path d="M1157.21 688.512C1157.21 688.512 1114.47 584.664 1090.63 589.179C1066.79 593.694 1131.6 754.743 1131.6 754.743C1131.6 754.743 1056.36 611.754 1005.07 611.754C953.778 611.754 1023.87 769.785 1088.86 822.47C1088.86 822.47 986.249 711.088 926.403 735.186C866.557 759.284 1046.12 872.136 1046.12 872.136C1046.12 872.136 941.794 839.034 953.778 864.628C965.763 890.223 998.234 894.712 998.234 894.712L880.155 900.75H1290.6L1198.26 891.719C1198.26 891.719 1294.01 843.549 1268.37 823.992C1242.74 804.435 1186.27 846.568 1186.27 846.568C1186.27 846.568 1283.76 738.204 1264.94 697.542C1246.12 656.88 1162.33 771.307 1162.33 771.307C1162.33 771.307 1230.75 625.3 1217.05 599.705C1203.35 574.111 1157.21 688.512 1157.21 688.512Z" fill="#92E3A9"/>
<path opacity="0.5" d="M1157.21 688.512C1157.21 688.512 1114.47 584.664 1090.63 589.179C1066.79 593.694 1131.6 754.743 1131.6 754.743C1131.6 754.743 1056.36 611.754 1005.07 611.754C953.778 611.754 1023.87 769.785 1088.86 822.47C1088.86 822.47 986.249 711.088 926.403 735.186C866.557 759.284 1046.12 872.136 1046.12 872.136C1046.12 872.136 941.794 839.034 953.778 864.628C965.763 890.223 998.234 894.712 998.234 894.712L880.155 900.75H1290.6L1198.26 891.719C1198.26 891.719 1294.01 843.549 1268.37 823.992C1242.74 804.435 1186.27 846.568 1186.27 846.568C1186.27 846.568 1283.76 738.204 1264.94 697.542C1246.12 656.88 1162.33 771.307 1162.33 771.307C1162.33 771.307 1230.75 625.3 1217.05 599.705C1203.35 574.111 1157.21 688.512 1157.21 688.512Z" fill="white"/>
<path d="M1170.88 693.982C1133.26 805.984 1133.26 885.244 1133.26 885.244C1133.26 885.244 1177.72 886.947 1223.89 852.503" stroke="#263238" stroke-linecap="round" stroke-linejoin="round"/>
<path d="M1152.09 754.304C1144.35 720.819 1134.08 687.981 1121.36 656.08" stroke="#263238" stroke-linecap="round" stroke-linejoin="round"/>
<path d="M1040.92 688.822L1136.7 831.836C1136.7 831.836 1201.66 776.699 1223.89 745.687" stroke="#263238" stroke-linecap="round" stroke-linejoin="round"/>
<path d="M1134.98 866.28C1134.98 866.28 1034.09 818.032 993.036 790.477" stroke="#263238" stroke-linecap="round" stroke-linejoin="round"/>
<path d="M1088.17 128.917H692.782C683.236 128.917 675.497 136.715 675.497 146.333V892.209C675.497 901.828 683.236 909.625 692.782 909.625H1088.17C1097.72 909.625 1105.45 901.828 1105.45 892.209V146.333C1105.45 136.715 1097.72 128.917 1088.17 128.917Z" fill="#263238" stroke="#263238" stroke-miterlimit="10"/>
<path d="M920.207 175.566H866.686C865.963 175.566 865.247 175.422 864.579 175.143C863.911 174.865 863.305 174.456 862.793 173.941C862.282 173.426 861.876 172.814 861.6 172.141C861.323 171.468 861.181 170.747 861.181 170.019V170.019C861.181 169.291 861.323 168.571 861.6 167.9C861.877 167.228 862.283 166.618 862.795 166.105C863.306 165.592 863.914 165.186 864.581 164.91C865.249 164.634 865.965 164.494 866.686 164.497H920.207C921.661 164.497 923.054 165.079 924.082 166.114C925.11 167.15 925.687 168.554 925.687 170.019C925.691 170.746 925.551 171.467 925.277 172.139C925.004 172.812 924.6 173.424 924.091 173.939C923.582 174.455 922.977 174.864 922.31 175.143C921.644 175.422 920.929 175.566 920.207 175.566Z" fill="#92E3A9"/>
<path d="M1078.28 839.859H702.667V176.21H791.706L801.719 184.569C805.209 187.509 809.615 189.117 814.164 189.11H971.243C975.958 189.084 980.505 187.343 984.047 184.208L993.087 176.21H1078.21L1078.28 839.859Z" fill="white" stroke="#263238" stroke-width="0.938618" stroke-linecap="round" stroke-linejoin="round"/>
<path d="M852.679 225.128L847.557 207.79H719.722V225.128V804.615V821.979H1062.38V225.128H852.679Z" fill="#92E3A9"/>
<path d="M1050.32 256.373H731.758V802.886H1050.32V256.373Z" fill="white"/>
<path d="M902.485 860.371C902.491 858.666 901.993 856.997 901.056 855.576C900.12 854.156 898.786 853.047 897.223 852.391C895.661 851.735 893.94 851.561 892.28 851.89C890.619 852.22 889.092 853.039 887.894 854.243C886.695 855.447 885.878 856.982 885.546 858.655C885.214 860.327 885.381 862.061 886.028 863.637C886.675 865.213 887.771 866.561 889.178 867.509C890.585 868.457 892.24 868.963 893.932 868.963C896.194 868.956 898.362 868.049 899.964 866.44C901.566 864.831 902.472 862.65 902.485 860.371V860.371Z" fill="#92E3A9"/>
<path d="M937.745 426.364C892.939 371.47 792.53 379.969 713.477 445.344C634.423 510.72 606.661 608.217 651.467 663.111C696.274 718.004 796.682 709.506 875.736 644.13C954.789 578.754 982.552 481.257 937.745 426.364Z" fill="#92E3A9"/>
<path opacity="0.5" d="M937.745 426.364C892.939 371.47 792.53 379.969 713.477 445.344C634.423 510.72 606.661 608.217 651.467 663.111C696.274 718.004 796.682 709.506 875.736 644.13C954.789 578.754 982.552 481.257 937.745 426.364Z" fill="white"/>
<path d="M623.34 662.764C623.34 662.764 617.898 677.669 622.037 683.798C626.177 689.927 724.734 722.156 755.663 713.978C786.592 705.799 839.663 678.376 860.573 615.034C880.859 553.347 845.15 512.476 825.249 492.433C805.348 472.389 786.251 463.712 750.294 456.457C714.337 449.202 671.391 450.775 651.063 462.666C630.735 474.557 629.578 493.601 632.723 502.544C635.867 511.487 668.905 550.949 662.674 604.754C656.443 658.56 623.34 662.764 623.34 662.764Z" fill="#263238" stroke="#263238" stroke-linecap="round" stroke-linejoin="round"/>
<path d="M602.494 665.251C602.494 665.251 623.703 677.221 644.657 678.144C665.611 679.066 690.011 670.148 718.231 647.666C746.452 625.183 770.725 590.356 756.472 544.873C742.219 499.39 706.728 477.484 689.229 475.452C671.731 473.42 635.222 483.531 635.222 483.531C635.222 483.531 694.369 525.748 684.503 577.317C674.636 628.885 602.494 665.251 602.494 665.251Z" fill="white" stroke="#263238" stroke-linecap="round" stroke-linejoin="round"/>
<path d="M373.324 344.747C363.989 374.74 383.929 411.415 396.182 443.31C408.435 475.205 404.165 503.49 358.309 530.273C312.453 557.056 218.529 576.765 207.102 587.312C195.676 597.859 293.516 716.155 306.399 724.076C319.283 731.997 320.206 734.892 342.104 734.099C354.05 733.817 365.973 732.638 377.776 730.573L340.054 740.306L339.281 739.36C334.562 740.931 329.627 741.7 324.683 741.636C302.24 741.31 280.236 748.803 262.424 762.84C236.311 783.62 253.549 799.647 264.251 796.528C274.953 793.409 318.508 790.924 330.72 790.662C342.931 790.401 373.182 785.829 373.182 785.829L431.855 760.031C431.855 760.031 448.468 751.251 516.149 723.736C583.829 696.22 602.595 668.305 602.595 668.305C602.595 668.305 603.984 674.594 644.549 658.364C685.114 642.134 722.581 603.713 726.955 569.205C731.329 534.697 710.686 510.919 677.182 492.858C656.173 482.078 632.103 478.534 608.63 482.766C608.63 482.766 577.75 460.056 543.749 452.323C509.748 444.59 479.402 442.492 455.546 410.193C431.69 377.894 420.741 327.688 410.333 316.5C399.925 305.312 382.634 314.774 373.324 344.747Z" fill="white"/>
<path d="M458.69 593.044C538.129 664.879 579.061 674.259 599.706 643.455C603.739 637.271 606.5 630.359 607.824 623.133C608.34 622.706 608.906 622.238 609.377 621.605C609.377 621.605 609.074 619.418 608.865 615.934C609.333 610.733 609.354 605.51 608.928 600.322C609.719 590.648 612.269 580.455 619.104 576.469C633.66 567.967 680.099 578.848 693.318 592.821C706.537 606.794 695.783 624.341 713.535 613.196C731.287 602.052 744.128 536.668 714.031 508.578C683.934 480.488 617.519 491.244 617.519 491.244C617.519 491.244 613.589 501.563 573.74 499.006C547.624 497.282 524.853 482.756 506.351 472.501C490.299 461.649 473.378 452.123 455.752 444.016C406.486 421.904 382.533 367.038 382.533 367.038C382.533 367.038 379.104 521.331 458.69 593.044Z" fill="#92E3A9"/>
<path opacity="0.5" d="M458.69 593.044C538.129 664.879 579.061 674.259 599.706 643.455C603.739 637.271 606.5 630.359 607.824 623.133C608.34 622.706 608.906 622.238 609.377 621.605C609.377 621.605 609.074 619.418 608.865 615.934C609.333 610.733 609.354 605.51 608.928 600.322C609.719 590.648 612.269 580.455 619.104 576.469C633.66 567.967 680.099 578.848 693.318 592.821C706.537 606.794 695.783 624.341 713.535 613.196C731.287 602.052 744.128 536.668 714.031 508.578C683.934 480.488 617.519 491.244 617.519 491.244C617.519 491.244 613.589 501.563 573.74 499.006C547.624 497.282 524.853 482.756 506.351 472.501C490.299 461.649 473.378 452.123 455.752 444.016C406.486 421.904 382.533 367.038 382.533 367.038C382.533 367.038 379.104 521.331 458.69 593.044Z" fill="white"/>
<path d="M373.324 344.747C363.989 374.74 383.929 411.415 396.182 443.31C408.435 475.205 404.165 503.49 358.309 530.273C312.453 557.056 218.529 576.765 207.102 587.312C195.676 597.859 293.516 716.155 306.399 724.076C319.283 731.997 320.206 734.892 342.104 734.099C354.05 733.817 365.973 732.638 377.776 730.573L340.054 740.306L339.281 739.36C334.562 740.931 329.627 741.7 324.683 741.636C302.24 741.31 280.236 748.803 262.424 762.84C236.311 783.62 253.549 799.647 264.251 796.528C274.953 793.409 318.508 790.924 330.72 790.662C342.931 790.401 373.182 785.829 373.182 785.829L431.855 760.031C431.855 760.031 448.468 751.251 516.149 723.736C583.829 696.22 602.595 668.305 602.595 668.305C602.595 668.305 603.984 674.594 644.549 658.364C685.114 642.134 722.581 603.713 726.955 569.205C731.329 534.697 710.686 510.919 677.182 492.858C656.173 482.078 632.103 478.534 608.63 482.766C608.63 482.766 577.75 460.056 543.749 452.323C509.748 444.59 479.402 442.492 455.546 410.193C431.69 377.894 420.741 327.688 410.333 316.5C399.925 305.312 382.634 314.774 373.324 344.747Z" stroke="#263238" stroke-linecap="round" stroke-linejoin="round"/>
<path d="M408.545 314.824C408.545 314.824 400.987 318.47 406.92 343.074C412.853 367.678 424.6 370.119 428.801 366.646C433.002 363.173 410.764 317.542 408.545 314.824Z" fill="white" stroke="#263238" stroke-linecap="round" stroke-linejoin="round"/>
<path d="M257.219 719.735L328.153 735.55L279.475 675.93C279.475 675.93 236.926 711.109 257.219 719.735Z" fill="white" stroke="#263238" stroke-linecap="round" stroke-linejoin="round"/>
<path d="M552.452 568.927C540.073 568.585 527.991 565.392 517.139 559.592" stroke="#263238" stroke-linecap="round" stroke-linejoin="round"/>
<path d="M572.481 565.896C569.929 566.865 567.288 567.565 564.601 567.983" stroke="#263238" stroke-linecap="round" stroke-linejoin="round"/>
<path d="M633.601 545.017C633.424 549.146 632.948 553.262 632.175 557.333" stroke="#263238" stroke-linecap="round" stroke-linejoin="round"/>
<path d="M608.586 482.76C621.362 495.165 629.8 511.391 632.68 529.096" stroke="#263238" stroke-linecap="round" stroke-linejoin="round"/>
<path d="M217.245 638.329C217.245 638.329 236.206 620.984 231.252 595.612C226.298 570.241 205.916 549.456 193.705 558.741C181.494 568.025 180.238 591.988 171.961 614.358C163.685 636.728 189.404 649.888 207.457 649.674" fill="white"/>
<path d="M217.245 638.329C217.245 638.329 236.206 620.984 231.252 595.612C226.298 570.241 205.916 549.456 193.705 558.741C181.494 568.025 180.238 591.988 171.961 614.358C163.685 636.728 189.404 649.888 207.457 649.674" stroke="#263238" stroke-linecap="round" stroke-linejoin="round"/>
<path d="M208.307 594.941C217.425 589.881 217.4 580.879 215.874 573.97C214.349 567.062 204.995 558.578 193.591 558.822C187.596 563.372 184.256 571.377 181.48 581.03C187.258 586.495 201.186 598.919 208.307 594.941Z" fill="white" stroke="#263238" stroke-linecap="round" stroke-linejoin="round"/>
<path d="M247.175 674.969C247.175 674.969 266.156 657.648 261.202 632.276C256.248 606.905 235.846 586.096 223.635 595.38C211.424 604.665 210.167 628.628 201.911 651.022C193.655 673.417 219.334 686.528 237.407 686.339" fill="white"/>
<path d="M247.175 674.969C247.175 674.969 266.156 657.648 261.202 632.276C256.248 606.905 235.846 586.096 223.635 595.38C211.424 604.665 210.167 628.628 201.911 651.022C193.655 673.417 219.334 686.528 237.407 686.339" stroke="#263238" stroke-linecap="round" stroke-linejoin="round"/>
<path d="M238.238 631.581C247.356 626.521 247.33 617.519 245.805 610.61C244.279 603.702 234.926 595.218 223.522 595.462C217.547 600.037 214.207 608.042 211.41 617.67C217.188 623.135 231.116 635.559 238.238 631.581Z" fill="white" stroke="#263238" stroke-linecap="round" stroke-linejoin="round"/>
<path d="M275.024 709.062C275.024 709.062 294.006 691.741 289.052 666.369C284.098 640.997 263.716 620.213 251.505 629.497C239.293 638.782 238.017 662.72 229.761 685.115C221.504 707.509 247.204 720.645 265.256 720.431" fill="white"/>
<path d="M275.024 709.062C275.024 709.062 294.006 691.741 289.052 666.369C284.098 640.997 263.716 620.213 251.505 629.497C239.293 638.782 238.017 662.72 229.761 685.115C221.504 707.509 247.204 720.645 265.256 720.431" stroke="#263238" stroke-linecap="round" stroke-linejoin="round"/>
<path d="M266.106 665.698C275.204 660.613 275.199 651.635 273.654 644.703C272.108 637.77 262.775 629.31 251.391 629.578C245.395 634.129 242.055 642.134 239.279 651.787C245.057 657.252 258.985 669.675 266.106 665.698Z" fill="white" stroke="#263238" stroke-linecap="round" stroke-linejoin="round"/>
<path d="M602.633 668.299C602.633 668.299 631.925 641.794 638.855 608.301" stroke="#263238" stroke-linecap="round" stroke-linejoin="round"/>
<path d="M768.909 611.587C775.098 606.468 783.437 606.401 787.537 611.424C791.637 616.447 790.052 624.586 783.765 629.786C777.477 634.986 769.237 634.971 765.137 629.948C761.036 624.925 762.719 616.705 768.909 611.587Z" fill="white"/>
<path d="M801.346 622.689C807.536 617.57 815.874 617.503 819.974 622.526C824.075 627.549 822.49 635.688 816.202 640.888C809.914 646.088 801.65 646.094 797.55 641.071C793.449 636.048 795.157 627.807 801.346 622.689Z" stroke="#263238" stroke-linecap="round" stroke-linejoin="round"/>
<path d="M484.124 572.478L369.835 413.176C354.051 391.176 321.997 387.373 298.32 404.607L213.408 466.407C192.756 481.438 185.169 507.474 193.911 528.48L159.754 540.549L214.751 559.723L313.169 696.904C328.94 718.887 361.007 722.707 384.684 705.473L469.596 643.673C493.43 626.326 499.895 594.462 484.124 572.478Z" fill="#92E3A9" stroke="#263238" stroke-width="2" stroke-miterlimit="10"/>
<path d="M457.239 607.434C461.081 612.02 467.767 612.713 472.174 608.982C476.581 605.251 477.04 598.508 473.198 593.921C469.356 589.335 462.67 588.642 458.263 592.373C453.856 596.104 453.397 602.847 457.239 607.434Z" fill="#263238"/>
<path d="M459.042 604.804C459.362 604.067 459.871 603.426 460.517 602.948L467.01 597.451L464.97 596.685C464.748 596.606 464.549 596.47 464.395 596.29C464.28 596.155 464.195 595.997 464.145 595.826C464.096 595.655 464.083 595.475 464.108 595.298C464.147 594.94 464.326 594.61 464.605 594.381C464.789 594.218 465.018 594.117 465.261 594.091C465.568 594.088 465.873 594.135 466.165 594.229L469.986 595.824C470.479 595.947 470.929 596.197 471.293 596.549C472.098 597.51 471.771 598.604 470.316 599.835L462.83 606.173C461.408 607.377 460.279 607.473 459.431 606.46C459.219 606.249 459.071 605.982 459.002 605.69C458.934 605.397 458.947 605.091 459.042 604.804Z" fill="white"/>
<line x1="278.891" y1="488.89" x2="395.381" y2="663.194" stroke="black" stroke-width="2"/>
<line x1="313.929" y1="467.354" x2="430.418" y2="641.658" stroke="black" stroke-width="2"/>
<line x1="296.765" y1="477.024" x2="413.254" y2="651.328" stroke="black" stroke-width="2"/>
<line x1="249.328" y1="508.071" x2="365.818" y2="682.375" stroke="black" stroke-width="2"/>
<line x1="263.867" y1="497.954" x2="380.356" y2="672.258" stroke="black" stroke-width="2"/>
</svg>
