<svg width="1440" height="1024" viewBox="0 0 1440 1024" fill="none" xmlns="http://www.w3.org/2000/svg">
<rect width="1440" height="1024" fill="white"/>
<path d="M1048.57 125.139L352.113 133.698C255.928 134.88 179.022 220.292 180.279 324.085L184.785 696.301C185.881 786.831 245.714 861.748 324.542 879.008L289.296 1002.76L457.898 881.905L1057.64 874.535C1153.75 873.354 1230.73 787.941 1229.47 684.148L1224.97 311.932C1223.7 207.454 1144.68 123.958 1048.57 125.139Z" fill="#92E3A9"/>
<path d="M1091.92 274.367C1113.18 273.978 1130.19 257.083 1129.91 236.631C1129.63 216.179 1112.16 199.915 1090.89 200.305C1069.63 200.694 1052.62 217.589 1052.9 238.041C1053.18 258.493 1070.65 274.757 1091.92 274.367Z" fill="#263238"/>
<path d="M1088.77 263.545C1087.47 261.022 1086.87 258.193 1087.02 255.349L1086.6 225.218L1079.89 229.138C1079.17 229.575 1078.35 229.819 1077.51 229.845C1076.88 229.863 1076.25 229.746 1075.67 229.502C1075.09 229.258 1074.57 228.893 1074.14 228.43C1073.24 227.524 1072.74 226.299 1072.74 225.019C1072.71 224.151 1072.95 223.292 1073.43 222.566C1074.11 221.712 1074.93 220.974 1075.85 220.381L1088.86 213.392C1090.31 212.308 1092.01 211.623 1093.8 211.403C1098.26 211.321 1100.52 214.655 1100.61 221.405L1101.09 256.146C1101.18 262.745 1098.89 266.072 1094.2 266.158C1093.14 266.271 1092.07 266.087 1091.12 265.626C1090.16 265.164 1089.35 264.444 1088.77 263.545Z" fill="white"/>
</svg>
