<svg width="1440" height="1024" viewBox="0 0 1440 1024" fill="none" xmlns="http://www.w3.org/2000/svg">
<g clip-path="url(#clip0_358_3204)">
<rect width="1440" height="1024" fill="white"/>
<path d="M1440 902.314H0V903.003H1440V902.314Z" fill="#EBEBEB"/>
<path d="M1295.71 946.658H1200.33V947.347H1295.71V946.658Z" fill="#EBEBEB"/>
<path d="M953.912 954.155H928.885V954.844H953.912V954.155Z" fill="#EBEBEB"/>
<path d="M1197.45 921.083H1142.18V921.772H1197.45V921.083Z" fill="#EBEBEB"/>
<path d="M275.472 925.712H151.085V926.401H275.472V925.712Z" fill="#EBEBEB"/>
<path d="M319.365 925.712H301.134V926.401H319.365V925.712Z" fill="#EBEBEB"/>
<path d="M648.431 937.343H378.633V938.032H648.431V937.343Z" fill="#EBEBEB"/>
<path d="M682.561 779.397H126.461C122.105 779.389 117.93 777.728 114.852 774.778C111.774 771.827 110.045 767.829 110.045 763.66V15.599C110.083 11.454 111.829 7.49075 114.902 4.57005C117.976 1.64935 122.13 0.00710052 126.461 0H682.561C686.922 0 691.105 1.65798 694.189 4.60919C697.273 7.56041 699.005 11.5631 699.005 15.7368V763.66C699.005 767.834 697.273 771.836 694.189 774.788C691.105 777.739 686.922 779.397 682.561 779.397V779.397ZM126.461 0.551202C122.296 0.558503 118.304 2.1471 115.361 4.96831C112.418 7.78953 110.765 11.6128 110.765 15.599V763.66C110.765 767.646 112.418 771.469 115.361 774.291C118.304 777.112 122.296 778.7 126.461 778.708H682.561C686.729 778.7 690.724 777.113 693.671 774.292C696.619 771.472 698.278 767.649 698.285 763.66V15.599C698.278 11.6103 696.619 7.78706 693.671 4.96663C690.724 2.14621 686.729 0.558487 682.561 0.551202H126.461Z" fill="#EBEBEB"/>
<path d="M1305.53 779.397H749.404C745.045 779.389 740.867 777.729 737.784 774.78C734.702 771.83 732.967 767.831 732.959 763.66V15.599C733.005 11.4515 734.757 7.48826 737.835 4.56833C740.913 1.64839 745.07 0.00702309 749.404 0H1305.53C1309.86 0.0143436 1314.01 1.6598 1317.07 4.57972C1320.14 7.49965 1321.88 11.4588 1321.92 15.599V763.66C1321.92 767.824 1320.19 771.818 1317.12 774.768C1314.05 777.718 1309.88 779.382 1305.53 779.397V779.397ZM749.404 0.551202C745.236 0.558487 741.241 2.14621 738.294 4.96663C735.346 7.78706 733.687 11.6103 733.679 15.599V763.66C733.687 767.649 735.346 771.472 738.294 774.292C741.241 777.113 745.236 778.7 749.404 778.708H1305.53C1309.7 778.7 1313.7 777.113 1316.64 774.292C1319.59 771.472 1321.25 767.649 1321.26 763.66V15.599C1321.25 11.6103 1319.59 7.78706 1316.64 4.96663C1313.7 2.14621 1309.7 0.558487 1305.53 0.551202H749.404Z" fill="#EBEBEB"/>
<path d="M1261.09 900.495V771.459H1249.57V710.001H1232.73V496.218H1208.36V468.63L1156.32 445.425V417.589H1149.12V496.218H1139.04V710.001H1128.96V597.583H1101.57V539.652H1093.91V710.001H1073.12V645.18H1059.44V628.616H1027.73V572.063H1010.36V532.073H989.021V473.811H981.389V532.073H960.048V572.063H942.682V628.616H910.973V645.18H897.293V710.001H881.05V628.616H849.341V453.445H839.261V434.153H771.524V453.445H757.124V580.331H699.466V592.76H677.837V602.406H699.466V652.07H638.928V486.572H625.968V451.378H597.86V326.586H589.94V451.378H569.751V486.572H451.469V474.969H444.24V553.598H434.16V554.976H428.112V633.577H418.032V654.963H396.692V597.032H389.06V734.97H380.535V677.039H372.903V767.381H368.266V702.559H354.557V685.996H322.848V629.443H305.482V589.453H284.141V531.191H276.538V589.453H255.197V629.443H237.831V685.996H206.122V702.559H192.413V766.003H189.965V767.381H183.197V900.495H1261.09Z" fill="#E6E6E6"/>
<path d="M525.629 494.289H517.45V502.116H525.629V494.289Z" fill="#F0F0F0"/>
<path d="M525.629 507.407H517.45V515.234H525.629V507.407Z" fill="#F0F0F0"/>
<path d="M525.629 559.798H517.45V567.625H525.629V559.798Z" fill="#F0F0F0"/>
<path d="M525.629 572.917H517.45V580.744H525.629V572.917Z" fill="#F0F0F0"/>
<path d="M525.629 586.008H517.45V593.835H525.629V586.008Z" fill="#F0F0F0"/>
<path d="M525.629 625.309H517.45V633.136H525.629V625.309Z" fill="#F0F0F0"/>
<path d="M525.629 638.428H517.45V646.255H525.629V638.428Z" fill="#F0F0F0"/>
<path d="M538.618 546.708H530.439V554.535H538.618V546.708Z" fill="#F0F0F0"/>
<path d="M538.618 559.798H530.439V567.625H538.618V559.798Z" fill="#F0F0F0"/>
<path d="M538.618 572.917H530.439V580.744H538.618V572.917Z" fill="#F0F0F0"/>
<path d="M538.618 586.008H530.439V593.835H538.618V586.008Z" fill="#F0F0F0"/>
<path d="M538.618 599.099H530.439V606.926H538.618V599.099Z" fill="#F0F0F0"/>
<path d="M538.618 625.309H530.439V633.136H538.618V625.309Z" fill="#F0F0F0"/>
<path d="M538.618 638.428H530.439V646.255H538.618V638.428Z" fill="#F0F0F0"/>
<path d="M551.578 494.289H543.398V502.116H551.578V494.289Z" fill="#F0F0F0"/>
<path d="M551.578 507.407H543.398V515.234H551.578V507.407Z" fill="#F0F0F0"/>
<path d="M551.578 520.498H543.398V528.325H551.578V520.498Z" fill="#F0F0F0"/>
<path d="M551.578 533.589H543.398V541.416H551.578V533.589Z" fill="#F0F0F0"/>
<path d="M551.578 546.708H543.398V554.535H551.578V546.708Z" fill="#F0F0F0"/>
<path d="M551.578 559.798H543.398V567.625H551.578V559.798Z" fill="#F0F0F0"/>
<path d="M551.578 572.917H543.398V580.744H551.578V572.917Z" fill="#F0F0F0"/>
<path d="M551.578 586.008H543.398V593.835H551.578V586.008Z" fill="#F0F0F0"/>
<path d="M551.578 599.099H543.398V606.926H551.578V599.099Z" fill="#F0F0F0"/>
<path d="M551.578 612.218H543.398V620.045H551.578V612.218Z" fill="#F0F0F0"/>
<path d="M551.578 638.428H543.398V646.255H551.578V638.428Z" fill="#F0F0F0"/>
<path d="M564.565 494.289H556.386V502.116H564.565V494.289Z" fill="#F0F0F0"/>
<path d="M564.565 507.407H556.386V515.234H564.565V507.407Z" fill="#F0F0F0"/>
<path d="M564.565 520.498H556.386V528.325H564.565V520.498Z" fill="#F0F0F0"/>
<path d="M564.565 533.589H556.386V541.416H564.565V533.589Z" fill="#F0F0F0"/>
<path d="M564.565 546.708H556.386V554.535H564.565V546.708Z" fill="#F0F0F0"/>
<path d="M564.565 559.798H556.386V567.625H564.565V559.798Z" fill="#F0F0F0"/>
<path d="M564.565 572.917H556.386V580.744H564.565V572.917Z" fill="#F0F0F0"/>
<path d="M564.565 690.819H556.386V698.646H564.565V690.819Z" fill="#F0F0F0"/>
<path d="M577.526 494.289H569.347V502.116H577.526V494.289Z" fill="#F0F0F0"/>
<path d="M577.526 507.407H569.347V515.234H577.526V507.407Z" fill="#F0F0F0"/>
<path d="M577.526 520.498H569.347V528.325H577.526V520.498Z" fill="#F0F0F0"/>
<path d="M577.526 533.589H569.347V541.416H577.526V533.589Z" fill="#F0F0F0"/>
<path d="M577.526 546.708H569.347V554.535H577.526V546.708Z" fill="#F0F0F0"/>
<path d="M577.526 559.798H569.347V567.625H577.526V559.798Z" fill="#F0F0F0"/>
<path d="M577.526 572.917H569.347V580.744H577.526V572.917Z" fill="#F0F0F0"/>
<path d="M577.526 586.008H569.347V593.835H577.526V586.008Z" fill="#F0F0F0"/>
<path d="M577.526 664.61H569.347V672.437H577.526V664.61Z" fill="#F0F0F0"/>
<path d="M577.526 677.728H569.347V685.555H577.526V677.728Z" fill="#F0F0F0"/>
<path d="M577.526 690.819H569.347V698.646H577.526V690.819Z" fill="#F0F0F0"/>
<path d="M577.526 703.938H569.347V711.765H577.526V703.938Z" fill="#F0F0F0"/>
<path d="M577.526 756.329H569.347V764.156H577.526V756.329Z" fill="#F0F0F0"/>
<path d="M590.486 494.289H582.307V502.116H590.486V494.289Z" fill="#F0F0F0"/>
<path d="M590.486 507.407H582.307V515.234H590.486V507.407Z" fill="#F0F0F0"/>
<path d="M590.486 520.498H582.307V528.325H590.486V520.498Z" fill="#F0F0F0"/>
<path d="M590.486 533.589H582.307V541.416H590.486V533.589Z" fill="#F0F0F0"/>
<path d="M590.486 546.708H582.307V554.535H590.486V546.708Z" fill="#F0F0F0"/>
<path d="M590.486 559.798H582.307V567.625H590.486V559.798Z" fill="#F0F0F0"/>
<path d="M590.486 572.917H582.307V580.744H590.486V572.917Z" fill="#F0F0F0"/>
<path d="M590.486 586.008H582.307V593.835H590.486V586.008Z" fill="#F0F0F0"/>
<path d="M590.486 599.099H582.307V606.926H590.486V599.099Z" fill="#F0F0F0"/>
<path d="M590.486 612.218H582.307V620.045H590.486V612.218Z" fill="#F0F0F0"/>
<path d="M590.486 651.518H582.307V659.345H590.486V651.518Z" fill="#F0F0F0"/>
<path d="M590.486 664.61H582.307V672.437H590.486V664.61Z" fill="#F0F0F0"/>
<path d="M590.486 677.728H582.307V685.555H590.486V677.728Z" fill="#F0F0F0"/>
<path d="M590.486 690.819H582.307V698.646H590.486V690.819Z" fill="#F0F0F0"/>
<path d="M590.486 703.938H582.307V711.765H590.486V703.938Z" fill="#F0F0F0"/>
<path d="M590.486 756.329H582.307V764.156H590.486V756.329Z" fill="#F0F0F0"/>
<path d="M603.475 494.289H595.295V502.116H603.475V494.289Z" fill="#F0F0F0"/>
<path d="M603.475 507.407H595.295V515.234H603.475V507.407Z" fill="#F0F0F0"/>
<path d="M603.475 520.498H595.295V528.325H603.475V520.498Z" fill="#F0F0F0"/>
<path d="M603.475 533.589H595.295V541.416H603.475V533.589Z" fill="#F0F0F0"/>
<path d="M603.475 546.708H595.295V554.535H603.475V546.708Z" fill="#F0F0F0"/>
<path d="M603.475 559.798H595.295V567.625H603.475V559.798Z" fill="#F0F0F0"/>
<path d="M603.475 572.917H595.295V580.744H603.475V572.917Z" fill="#F0F0F0"/>
<path d="M603.475 586.008H595.295V593.835H603.475V586.008Z" fill="#F0F0F0"/>
<path d="M603.475 599.099H595.295V606.926H603.475V599.099Z" fill="#F0F0F0"/>
<path d="M603.475 612.218H595.295V620.045H603.475V612.218Z" fill="#F0F0F0"/>
<path d="M603.475 625.309H595.295V633.136H603.475V625.309Z" fill="#F0F0F0"/>
<path d="M603.475 638.428H595.295V646.255H603.475V638.428Z" fill="#F0F0F0"/>
<path d="M603.475 651.518H595.295V659.345H603.475V651.518Z" fill="#F0F0F0"/>
<path d="M603.475 664.61H595.295V672.437H603.475V664.61Z" fill="#F0F0F0"/>
<path d="M603.475 677.728H595.295V685.555H603.475V677.728Z" fill="#F0F0F0"/>
<path d="M603.475 690.819H595.295V698.646H603.475V690.819Z" fill="#F0F0F0"/>
<path d="M603.475 703.938H595.295V711.765H603.475V703.938Z" fill="#F0F0F0"/>
<path d="M603.475 717.029H595.295V724.856H603.475V717.029Z" fill="#F0F0F0"/>
<path d="M616.435 494.289H608.255V502.116H616.435V494.289Z" fill="#F0F0F0"/>
<path d="M616.435 507.407H608.255V515.234H616.435V507.407Z" fill="#F0F0F0"/>
<path d="M616.435 520.498H608.255V528.325H616.435V520.498Z" fill="#F0F0F0"/>
<path d="M616.435 533.589H608.255V541.416H616.435V533.589Z" fill="#F0F0F0"/>
<path d="M616.435 546.708H608.255V554.535H616.435V546.708Z" fill="#F0F0F0"/>
<path d="M616.435 559.798H608.255V567.625H616.435V559.798Z" fill="#F0F0F0"/>
<path d="M616.435 572.917H608.255V580.744H616.435V572.917Z" fill="#F0F0F0"/>
<path d="M616.435 586.008H608.255V593.835H616.435V586.008Z" fill="#F0F0F0"/>
<path d="M616.435 599.099H608.255V606.926H616.435V599.099Z" fill="#F0F0F0"/>
<path d="M616.435 612.218H608.255V620.045H616.435V612.218Z" fill="#F0F0F0"/>
<path d="M616.435 651.518H608.255V659.345H616.435V651.518Z" fill="#F0F0F0"/>
<path d="M616.435 664.61H608.255V672.437H616.435V664.61Z" fill="#F0F0F0"/>
<path d="M616.435 677.728H608.255V685.555H616.435V677.728Z" fill="#F0F0F0"/>
<path d="M616.435 690.819H608.255V698.646H616.435V690.819Z" fill="#F0F0F0"/>
<path d="M629.423 494.289H621.244V502.116H629.423V494.289Z" fill="#F0F0F0"/>
<path d="M629.423 507.407H621.244V515.234H629.423V507.407Z" fill="#F0F0F0"/>
<path d="M629.423 520.498H621.244V528.325H629.423V520.498Z" fill="#F0F0F0"/>
<path d="M629.423 533.589H621.244V541.416H629.423V533.589Z" fill="#F0F0F0"/>
<path d="M629.423 546.708H621.244V554.535H629.423V546.708Z" fill="#F0F0F0"/>
<path d="M629.423 559.798H621.244V567.625H629.423V559.798Z" fill="#F0F0F0"/>
<path d="M629.423 572.917H621.244V580.744H629.423V572.917Z" fill="#F0F0F0"/>
<path d="M629.423 586.008H621.244V593.835H629.423V586.008Z" fill="#F0F0F0"/>
<path d="M629.423 599.099H621.244V606.926H629.423V599.099Z" fill="#F0F0F0"/>
<path d="M629.423 612.218H621.244V620.045H629.423V612.218Z" fill="#F0F0F0"/>
<path d="M629.423 651.518H621.244V659.345H629.423V651.518Z" fill="#F0F0F0"/>
<path d="M629.423 664.61H621.244V672.437H629.423V664.61Z" fill="#F0F0F0"/>
<path d="M629.423 677.728H621.244V685.555H629.423V677.728Z" fill="#F0F0F0"/>
<path d="M775.469 460.279H767.29V468.106H775.469V460.279Z" fill="#F0F0F0"/>
<path d="M775.469 473.37H767.29V481.197H775.469V473.37Z" fill="#F0F0F0"/>
<path d="M775.469 486.489H767.29V494.316H775.469V486.489Z" fill="#F0F0F0"/>
<path d="M775.469 499.58H767.29V507.407H775.469V499.58Z" fill="#F0F0F0"/>
<path d="M775.469 512.671H767.29V520.498H775.469V512.671Z" fill="#F0F0F0"/>
<path d="M775.469 525.789H767.29V533.616H775.469V525.789Z" fill="#F0F0F0"/>
<path d="M775.469 538.881H767.29V546.708H775.469V538.881Z" fill="#F0F0F0"/>
<path d="M775.469 552H767.29V559.827H775.469V552Z" fill="#F0F0F0"/>
<path d="M775.469 591.3H767.29V599.127H775.469V591.3Z" fill="#F0F0F0"/>
<path d="M775.469 604.391H767.29V612.218H775.469V604.391Z" fill="#F0F0F0"/>
<path d="M788.429 460.279H780.25V468.106H788.429V460.279Z" fill="#F0F0F0"/>
<path d="M788.429 473.37H780.25V481.197H788.429V473.37Z" fill="#F0F0F0"/>
<path d="M788.429 486.489H780.25V494.316H788.429V486.489Z" fill="#F0F0F0"/>
<path d="M788.429 499.58H780.25V507.407H788.429V499.58Z" fill="#F0F0F0"/>
<path d="M788.429 512.671H780.25V520.498H788.429V512.671Z" fill="#F0F0F0"/>
<path d="M788.429 525.789H780.25V533.616H788.429V525.789Z" fill="#F0F0F0"/>
<path d="M788.429 538.881H780.25V546.708H788.429V538.881Z" fill="#F0F0F0"/>
<path d="M788.429 552H780.25V559.827H788.429V552Z" fill="#F0F0F0"/>
<path d="M788.429 604.391H780.25V612.218H788.429V604.391Z" fill="#F0F0F0"/>
<path d="M801.388 460.279H793.209V468.106H801.388V460.279Z" fill="#F0F0F0"/>
<path d="M801.388 473.37H793.209V481.197H801.388V473.37Z" fill="#F0F0F0"/>
<path d="M801.388 486.489H793.209V494.316H801.388V486.489Z" fill="#F0F0F0"/>
<path d="M801.388 499.58H793.209V507.407H801.388V499.58Z" fill="#F0F0F0"/>
<path d="M801.388 512.671H793.209V520.498H801.388V512.671Z" fill="#F0F0F0"/>
<path d="M801.388 525.789H793.209V533.616H801.388V525.789Z" fill="#F0F0F0"/>
<path d="M801.388 538.881H793.209V546.708H801.388V538.881Z" fill="#F0F0F0"/>
<path d="M801.388 552H793.209V559.827H801.388V552Z" fill="#F0F0F0"/>
<path d="M814.377 460.279H806.198V468.106H814.377V460.279Z" fill="#F0F0F0"/>
<path d="M814.377 473.37H806.198V481.197H814.377V473.37Z" fill="#F0F0F0"/>
<path d="M814.377 486.489H806.198V494.316H814.377V486.489Z" fill="#F0F0F0"/>
<path d="M814.377 499.58H806.198V507.407H814.377V499.58Z" fill="#F0F0F0"/>
<path d="M814.377 512.671H806.198V520.498H814.377V512.671Z" fill="#F0F0F0"/>
<path d="M814.377 525.789H806.198V533.616H814.377V525.789Z" fill="#F0F0F0"/>
<path d="M814.377 552H806.198V559.827H814.377V552Z" fill="#F0F0F0"/>
<path d="M814.377 565.09H806.198V572.917H814.377V565.09Z" fill="#F0F0F0"/>
<path d="M814.377 604.391H806.198V612.218H814.377V604.391Z" fill="#F0F0F0"/>
<path d="M814.377 617.509H806.198V625.336H814.377V617.509Z" fill="#F0F0F0"/>
<path d="M814.377 630.601H806.198V638.428H814.377V630.601Z" fill="#F0F0F0"/>
<path d="M814.377 643.691H806.198V651.518H814.377V643.691Z" fill="#F0F0F0"/>
<path d="M814.377 656.81H806.198V664.637H814.377V656.81Z" fill="#F0F0F0"/>
<path d="M814.377 669.901H806.198V677.728H814.377V669.901Z" fill="#F0F0F0"/>
<path d="M814.377 683.02H806.198V690.847H814.377V683.02Z" fill="#F0F0F0"/>
<path d="M827.337 460.279H819.158V468.106H827.337V460.279Z" fill="#F0F0F0"/>
<path d="M827.337 473.37H819.158V481.197H827.337V473.37Z" fill="#F0F0F0"/>
<path d="M827.337 486.489H819.158V494.316H827.337V486.489Z" fill="#F0F0F0"/>
<path d="M827.337 499.58H819.158V507.407H827.337V499.58Z" fill="#F0F0F0"/>
<path d="M827.337 512.671H819.158V520.498H827.337V512.671Z" fill="#F0F0F0"/>
<path d="M827.337 525.789H819.158V533.616H827.337V525.789Z" fill="#F0F0F0"/>
<path d="M827.337 565.09H819.158V572.917H827.337V565.09Z" fill="#F0F0F0"/>
<path d="M827.337 578.182H819.158V586.009H827.337V578.182Z" fill="#F0F0F0"/>
<path d="M827.337 591.3H819.158V599.127H827.337V591.3Z" fill="#F0F0F0"/>
<path d="M827.337 604.391H819.158V612.218H827.337V604.391Z" fill="#F0F0F0"/>
<path d="M827.337 617.509H819.158V625.336H827.337V617.509Z" fill="#F0F0F0"/>
<path d="M827.337 630.601H819.158V638.428H827.337V630.601Z" fill="#F0F0F0"/>
<path d="M827.337 643.691H819.158V651.518H827.337V643.691Z" fill="#F0F0F0"/>
<path d="M827.337 656.81H819.158V664.637H827.337V656.81Z" fill="#F0F0F0"/>
<path d="M827.337 669.901H819.158V677.728H827.337V669.901Z" fill="#F0F0F0"/>
<path d="M827.337 683.02H819.158V690.847H827.337V683.02Z" fill="#F0F0F0"/>
<path d="M827.337 696.11H819.158V703.937H827.337V696.11Z" fill="#F0F0F0"/>
<path d="M827.337 722.32H819.158V730.147H827.337V722.32Z" fill="#F0F0F0"/>
<path d="M840.298 460.279H832.119V468.106H840.298V460.279Z" fill="#F0F0F0"/>
<path d="M840.298 473.37H832.119V481.197H840.298V473.37Z" fill="#F0F0F0"/>
<path d="M840.298 486.489H832.119V494.316H840.298V486.489Z" fill="#F0F0F0"/>
<path d="M840.298 499.58H832.119V507.407H840.298V499.58Z" fill="#F0F0F0"/>
<path d="M840.298 512.671H832.119V520.498H840.298V512.671Z" fill="#F0F0F0"/>
<path d="M840.298 525.789H832.119V533.616H840.298V525.789Z" fill="#F0F0F0"/>
<path d="M840.298 565.09H832.119V572.917H840.298V565.09Z" fill="#F0F0F0"/>
<path d="M840.298 578.182H832.119V586.009H840.298V578.182Z" fill="#F0F0F0"/>
<path d="M840.298 591.3H832.119V599.127H840.298V591.3Z" fill="#F0F0F0"/>
<path d="M840.298 604.391H832.119V612.218H840.298V604.391Z" fill="#F0F0F0"/>
<path d="M840.298 643.691H832.119V651.518H840.298V643.691Z" fill="#F0F0F0"/>
<path d="M840.298 656.81H832.119V664.637H840.298V656.81Z" fill="#F0F0F0"/>
<path d="M840.298 669.901H832.119V677.728H840.298V669.901Z" fill="#F0F0F0"/>
<path d="M840.298 683.02H832.119V690.847H840.298V683.02Z" fill="#F0F0F0"/>
<path d="M840.298 696.11H832.119V703.937H840.298V696.11Z" fill="#F0F0F0"/>
<path d="M840.298 722.32H832.119V730.147H840.298V722.32Z" fill="#F0F0F0"/>
<path d="M840.298 735.411H832.119V743.238H840.298V735.411Z" fill="#F0F0F0"/>
<path d="M958.003 582.095H949.824V589.922H958.003V582.095Z" fill="#F0F0F0"/>
<path d="M958.003 595.214H949.824V603.041H958.003V595.214Z" fill="#F0F0F0"/>
<path d="M958.003 608.304H949.824V616.131H958.003V608.304Z" fill="#F0F0F0"/>
<path d="M958.003 621.396H949.824V629.223H958.003V621.396Z" fill="#F0F0F0"/>
<path d="M958.003 634.514H949.824V642.341H958.003V634.514Z" fill="#F0F0F0"/>
<path d="M958.003 647.604H949.824V655.432H958.003V647.604Z" fill="#F0F0F0"/>
<path d="M958.003 660.723H949.824V668.55H958.003V660.723Z" fill="#F0F0F0"/>
<path d="M958.003 700.024H949.824V707.851H958.003V700.024Z" fill="#F0F0F0"/>
<path d="M958.003 713.115H949.824V720.942H958.003V713.115Z" fill="#F0F0F0"/>
<path d="M958.003 726.233H949.824V734.06H958.003V726.233Z" fill="#F0F0F0"/>
<path d="M970.993 582.095H962.813V589.922H970.993V582.095Z" fill="#F0F0F0"/>
<path d="M970.993 595.214H962.813V603.041H970.993V595.214Z" fill="#F0F0F0"/>
<path d="M970.993 608.304H962.813V616.131H970.993V608.304Z" fill="#F0F0F0"/>
<path d="M970.993 621.396H962.813V629.223H970.993V621.396Z" fill="#F0F0F0"/>
<path d="M970.993 634.514H962.813V642.341H970.993V634.514Z" fill="#F0F0F0"/>
<path d="M970.993 647.604H962.813V655.432H970.993V647.604Z" fill="#F0F0F0"/>
<path d="M970.993 660.723H962.813V668.55H970.993V660.723Z" fill="#F0F0F0"/>
<path d="M983.952 582.095H975.773V589.922H983.952V582.095Z" fill="#F0F0F0"/>
<path d="M983.952 595.214H975.773V603.041H983.952V595.214Z" fill="#F0F0F0"/>
<path d="M983.952 608.304H975.773V616.131H983.952V608.304Z" fill="#F0F0F0"/>
<path d="M983.952 621.396H975.773V629.223H983.952V621.396Z" fill="#F0F0F0"/>
<path d="M983.952 634.514H975.773V642.341H983.952V634.514Z" fill="#F0F0F0"/>
<path d="M983.952 647.604H975.773V655.432H983.952V647.604Z" fill="#F0F0F0"/>
<path d="M983.952 660.723H975.773V668.55H983.952V660.723Z" fill="#F0F0F0"/>
<path d="M996.913 582.095H988.733V589.922H996.913V582.095Z" fill="#F0F0F0"/>
<path d="M996.913 595.214H988.733V603.041H996.913V595.214Z" fill="#F0F0F0"/>
<path d="M996.913 608.304H988.733V616.131H996.913V608.304Z" fill="#F0F0F0"/>
<path d="M996.913 621.396H988.733V629.223H996.913V621.396Z" fill="#F0F0F0"/>
<path d="M996.913 634.514H988.733V642.341H996.913V634.514Z" fill="#F0F0F0"/>
<path d="M996.913 647.604H988.733V655.432H996.913V647.604Z" fill="#F0F0F0"/>
<path d="M996.913 660.723H988.733V668.55H996.913V660.723Z" fill="#F0F0F0"/>
<path d="M996.913 673.815H988.733V681.642H996.913V673.815Z" fill="#F0F0F0"/>
<path d="M996.913 686.905H988.733V694.732H996.913V686.905Z" fill="#F0F0F0"/>
<path d="M996.913 700.024H988.733V707.851H996.913V700.024Z" fill="#F0F0F0"/>
<path d="M996.913 713.115H988.733V720.942H996.913V713.115Z" fill="#F0F0F0"/>
<path d="M1009.9 582.095H1001.72V589.922H1009.9V582.095Z" fill="#F0F0F0"/>
<path d="M1009.9 595.214H1001.72V603.041H1009.9V595.214Z" fill="#F0F0F0"/>
<path d="M1009.9 608.304H1001.72V616.131H1009.9V608.304Z" fill="#F0F0F0"/>
<path d="M1009.9 621.396H1001.72V629.223H1009.9V621.396Z" fill="#F0F0F0"/>
<path d="M1009.9 634.514H1001.72V642.341H1009.9V634.514Z" fill="#F0F0F0"/>
<path d="M1009.9 647.604H1001.72V655.432H1009.9V647.604Z" fill="#F0F0F0"/>
<path d="M1009.9 660.723H1001.72V668.55H1009.9V660.723Z" fill="#F0F0F0"/>
<path d="M1009.9 673.815H1001.72V681.642H1009.9V673.815Z" fill="#F0F0F0"/>
<path d="M1009.9 686.905H1001.72V694.732H1009.9V686.905Z" fill="#F0F0F0"/>
<path d="M1009.9 700.024H1001.72V707.851H1009.9V700.024Z" fill="#F0F0F0"/>
<path d="M1009.9 713.115H1001.72V720.942H1009.9V713.115Z" fill="#F0F0F0"/>
<path d="M1009.9 726.233H1001.72V734.06H1009.9V726.233Z" fill="#F0F0F0"/>
<path d="M1009.9 765.534H1001.72V773.361H1009.9V765.534Z" fill="#F0F0F0"/>
<path d="M1009.9 778.625H1001.72V786.452H1009.9V778.625Z" fill="#F0F0F0"/>
<path d="M1022.86 582.095H1014.68V589.922H1022.86V582.095Z" fill="#F0F0F0"/>
<path d="M1022.86 595.214H1014.68V603.041H1022.86V595.214Z" fill="#F0F0F0"/>
<path d="M1022.86 608.304H1014.68V616.131H1022.86V608.304Z" fill="#F0F0F0"/>
<path d="M1022.86 647.604H1014.68V655.432H1022.86V647.604Z" fill="#F0F0F0"/>
<path d="M1022.86 660.723H1014.68V668.55H1022.86V660.723Z" fill="#F0F0F0"/>
<path d="M1022.86 673.815H1014.68V681.642H1022.86V673.815Z" fill="#F0F0F0"/>
<path d="M1022.86 686.905H1014.68V694.732H1022.86V686.905Z" fill="#F0F0F0"/>
<path d="M1022.86 700.024H1014.68V707.851H1022.86V700.024Z" fill="#F0F0F0"/>
<path d="M1022.86 713.115H1014.68V720.942H1022.86V713.115Z" fill="#F0F0F0"/>
<path d="M1022.86 726.233H1014.68V734.06H1022.86V726.233Z" fill="#F0F0F0"/>
<path d="M1022.86 765.534H1014.68V773.361H1022.86V765.534Z" fill="#F0F0F0"/>
<path d="M1022.86 778.625H1014.68V786.452H1022.86V778.625Z" fill="#F0F0F0"/>
<path d="M1022.86 791.744H1014.68V799.571H1022.86V791.744Z" fill="#F0F0F0"/>
<path d="M1158.83 503.494H1150.65V511.321H1158.83V503.494Z" fill="#F0F0F0"/>
<path d="M1158.83 516.584H1150.65V524.412H1158.83V516.584Z" fill="#F0F0F0"/>
<path d="M1158.83 529.703H1150.65V537.53H1158.83V529.703Z" fill="#F0F0F0"/>
<path d="M1158.83 542.794H1150.65V550.621H1158.83V542.794Z" fill="#F0F0F0"/>
<path d="M1158.83 555.885H1150.65V563.712H1158.83V555.885Z" fill="#F0F0F0"/>
<path d="M1158.83 569.003H1150.65V576.83H1158.83V569.003Z" fill="#F0F0F0"/>
<path d="M1158.83 582.095H1150.65V589.922H1158.83V582.095Z" fill="#F0F0F0"/>
<path d="M1158.83 595.214H1150.65V603.041H1158.83V595.214Z" fill="#F0F0F0"/>
<path d="M1158.83 608.304H1150.65V616.131H1158.83V608.304Z" fill="#F0F0F0"/>
<path d="M1158.83 621.396H1150.65V629.223H1158.83V621.396Z" fill="#F0F0F0"/>
<path d="M1158.83 634.514H1150.65V642.341H1158.83V634.514Z" fill="#F0F0F0"/>
<path d="M1158.83 647.604H1150.65V655.432H1158.83V647.604Z" fill="#F0F0F0"/>
<path d="M1158.83 660.723H1150.65V668.55H1158.83V660.723Z" fill="#F0F0F0"/>
<path d="M1158.83 673.815H1150.65V681.642H1158.83V673.815Z" fill="#F0F0F0"/>
<path d="M1158.83 686.905H1150.65V694.732H1158.83V686.905Z" fill="#F0F0F0"/>
<path d="M1158.83 700.024H1150.65V707.851H1158.83V700.024Z" fill="#F0F0F0"/>
<path d="M1158.83 713.115H1150.65V720.942H1158.83V713.115Z" fill="#F0F0F0"/>
<path d="M1158.83 726.233H1150.65V734.06H1158.83V726.233Z" fill="#F0F0F0"/>
<path d="M1158.83 739.324H1150.65V747.151H1158.83V739.324Z" fill="#F0F0F0"/>
<path d="M1158.83 752.416H1150.65V760.243H1158.83V752.416Z" fill="#F0F0F0"/>
<path d="M1158.83 765.534H1150.65V773.361H1158.83V765.534Z" fill="#F0F0F0"/>
<path d="M1158.83 778.625H1150.65V786.452H1158.83V778.625Z" fill="#F0F0F0"/>
<path d="M1158.83 791.744H1150.65V799.571H1158.83V791.744Z" fill="#F0F0F0"/>
<path d="M1171.79 503.494H1163.61V511.321H1171.79V503.494Z" fill="#F0F0F0"/>
<path d="M1171.79 516.584H1163.61V524.412H1171.79V516.584Z" fill="#F0F0F0"/>
<path d="M1171.79 529.703H1163.61V537.53H1171.79V529.703Z" fill="#F0F0F0"/>
<path d="M1171.79 542.794H1163.61V550.621H1171.79V542.794Z" fill="#F0F0F0"/>
<path d="M1171.79 555.885H1163.61V563.712H1171.79V555.885Z" fill="#F0F0F0"/>
<path d="M1171.79 569.003H1163.61V576.83H1171.79V569.003Z" fill="#F0F0F0"/>
<path d="M1171.79 582.095H1163.61V589.922H1171.79V582.095Z" fill="#F0F0F0"/>
<path d="M1171.79 595.214H1163.61V603.041H1171.79V595.214Z" fill="#F0F0F0"/>
<path d="M1171.79 608.304H1163.61V616.131H1171.79V608.304Z" fill="#F0F0F0"/>
<path d="M1171.79 621.396H1163.61V629.223H1171.79V621.396Z" fill="#F0F0F0"/>
<path d="M1171.79 634.514H1163.61V642.341H1171.79V634.514Z" fill="#F0F0F0"/>
<path d="M1171.79 647.604H1163.61V655.432H1171.79V647.604Z" fill="#F0F0F0"/>
<path d="M1171.79 660.723H1163.61V668.55H1171.79V660.723Z" fill="#F0F0F0"/>
<path d="M1171.79 673.815H1163.61V681.642H1171.79V673.815Z" fill="#F0F0F0"/>
<path d="M1171.79 686.905H1163.61V694.732H1171.79V686.905Z" fill="#F0F0F0"/>
<path d="M1171.79 700.024H1163.61V707.851H1171.79V700.024Z" fill="#F0F0F0"/>
<path d="M1171.79 713.115H1163.61V720.942H1171.79V713.115Z" fill="#F0F0F0"/>
<path d="M1171.79 726.233H1163.61V734.06H1171.79V726.233Z" fill="#F0F0F0"/>
<path d="M1171.79 739.324H1163.61V747.151H1171.79V739.324Z" fill="#F0F0F0"/>
<path d="M1184.77 503.494H1176.6V511.321H1184.77V503.494Z" fill="#F0F0F0"/>
<path d="M1184.77 516.584H1176.6V524.412H1184.77V516.584Z" fill="#F0F0F0"/>
<path d="M1184.77 529.703H1176.6V537.53H1184.77V529.703Z" fill="#F0F0F0"/>
<path d="M1184.77 542.794H1176.6V550.621H1184.77V542.794Z" fill="#F0F0F0"/>
<path d="M1184.77 555.885H1176.6V563.712H1184.77V555.885Z" fill="#F0F0F0"/>
<path d="M1184.77 569.003H1176.6V576.83H1184.77V569.003Z" fill="#F0F0F0"/>
<path d="M1184.77 582.095H1176.6V589.922H1184.77V582.095Z" fill="#F0F0F0"/>
<path d="M1184.77 595.214H1176.6V603.041H1184.77V595.214Z" fill="#F0F0F0"/>
<path d="M1184.77 608.304H1176.6V616.131H1184.77V608.304Z" fill="#F0F0F0"/>
<path d="M1184.77 621.396H1176.6V629.223H1184.77V621.396Z" fill="#F0F0F0"/>
<path d="M1184.77 634.514H1176.6V642.341H1184.77V634.514Z" fill="#F0F0F0"/>
<path d="M1184.77 647.604H1176.6V655.432H1184.77V647.604Z" fill="#F0F0F0"/>
<path d="M1184.77 660.723H1176.6V668.55H1184.77V660.723Z" fill="#F0F0F0"/>
<path d="M1184.77 673.815H1176.6V681.642H1184.77V673.815Z" fill="#F0F0F0"/>
<path d="M1184.77 686.905H1176.6V694.732H1184.77V686.905Z" fill="#F0F0F0"/>
<path d="M1184.77 700.024H1176.6V707.851H1184.77V700.024Z" fill="#F0F0F0"/>
<path d="M1184.77 713.115H1176.6V720.942H1184.77V713.115Z" fill="#F0F0F0"/>
<path d="M1184.77 726.233H1176.6V734.06H1184.77V726.233Z" fill="#F0F0F0"/>
<path d="M1184.77 739.324H1176.6V747.151H1184.77V739.324Z" fill="#F0F0F0"/>
<path d="M1197.73 503.494H1189.56V511.321H1197.73V503.494Z" fill="#F0F0F0"/>
<path d="M1197.73 516.584H1189.56V524.412H1197.73V516.584Z" fill="#F0F0F0"/>
<path d="M1197.73 529.703H1189.56V537.53H1197.73V529.703Z" fill="#F0F0F0"/>
<path d="M1197.73 542.794H1189.56V550.621H1197.73V542.794Z" fill="#F0F0F0"/>
<path d="M1197.73 555.885H1189.56V563.712H1197.73V555.885Z" fill="#F0F0F0"/>
<path d="M1197.73 569.003H1189.56V576.83H1197.73V569.003Z" fill="#F0F0F0"/>
<path d="M1197.73 582.095H1189.56V589.922H1197.73V582.095Z" fill="#F0F0F0"/>
<path d="M1197.73 595.214H1189.56V603.041H1197.73V595.214Z" fill="#F0F0F0"/>
<path d="M1197.73 608.304H1189.56V616.131H1197.73V608.304Z" fill="#F0F0F0"/>
<path d="M1197.73 621.396H1189.56V629.223H1197.73V621.396Z" fill="#F0F0F0"/>
<path d="M1197.73 634.514H1189.56V642.341H1197.73V634.514Z" fill="#F0F0F0"/>
<path d="M1197.73 647.604H1189.56V655.432H1197.73V647.604Z" fill="#F0F0F0"/>
<path d="M1197.73 660.723H1189.56V668.55H1197.73V660.723Z" fill="#F0F0F0"/>
<path d="M1197.73 673.815H1189.56V681.642H1197.73V673.815Z" fill="#F0F0F0"/>
<path d="M1197.73 686.905H1189.56V694.732H1197.73V686.905Z" fill="#F0F0F0"/>
<path d="M1210.7 503.494H1202.52V511.321H1210.7V503.494Z" fill="#F0F0F0"/>
<path d="M1210.7 516.584H1202.52V524.412H1210.7V516.584Z" fill="#F0F0F0"/>
<path d="M1210.7 529.703H1202.52V537.53H1210.7V529.703Z" fill="#F0F0F0"/>
<path d="M1210.7 542.794H1202.52V550.621H1210.7V542.794Z" fill="#F0F0F0"/>
<path d="M1210.7 555.885H1202.52V563.712H1210.7V555.885Z" fill="#F0F0F0"/>
<path d="M1210.7 569.003H1202.52V576.83H1210.7V569.003Z" fill="#F0F0F0"/>
<path d="M1210.7 582.095H1202.52V589.922H1210.7V582.095Z" fill="#F0F0F0"/>
<path d="M1210.7 595.214H1202.52V603.041H1210.7V595.214Z" fill="#F0F0F0"/>
<path d="M1210.7 608.304H1202.52V616.131H1210.7V608.304Z" fill="#F0F0F0"/>
<path d="M1210.7 621.396H1202.52V629.223H1210.7V621.396Z" fill="#F0F0F0"/>
<path d="M1210.7 634.514H1202.52V642.341H1210.7V634.514Z" fill="#F0F0F0"/>
<path d="M1210.7 647.604H1202.52V655.432H1210.7V647.604Z" fill="#F0F0F0"/>
<path d="M1210.7 660.723H1202.52V668.55H1210.7V660.723Z" fill="#F0F0F0"/>
<path d="M1223.68 503.494H1215.5V511.321H1223.68V503.494Z" fill="#F0F0F0"/>
<path d="M1223.68 516.584H1215.5V524.412H1223.68V516.584Z" fill="#F0F0F0"/>
<path d="M1223.68 529.703H1215.5V537.53H1223.68V529.703Z" fill="#F0F0F0"/>
<path d="M1223.68 542.794H1215.5V550.621H1223.68V542.794Z" fill="#F0F0F0"/>
<path d="M1223.68 555.885H1215.5V563.712H1223.68V555.885Z" fill="#F0F0F0"/>
<path d="M1223.68 569.003H1215.5V576.83H1223.68V569.003Z" fill="#F0F0F0"/>
<path d="M1223.68 582.095H1215.5V589.922H1223.68V582.095Z" fill="#F0F0F0"/>
<path d="M1223.68 595.214H1215.5V603.041H1223.68V595.214Z" fill="#F0F0F0"/>
<path d="M1223.68 608.304H1215.5V616.131H1223.68V608.304Z" fill="#F0F0F0"/>
<path d="M1223.68 621.396H1215.5V629.223H1223.68V621.396Z" fill="#F0F0F0"/>
<path d="M1223.68 634.514H1215.5V642.341H1223.68V634.514Z" fill="#F0F0F0"/>
<path d="M1223.68 647.604H1215.5V655.432H1223.68V647.604Z" fill="#F0F0F0"/>
<path d="M270.548 599.099H262.369V606.926H270.548V599.099Z" fill="#F0F0F0"/>
<path d="M270.548 612.218H262.369V620.045H270.548V612.218Z" fill="#F0F0F0"/>
<path d="M270.548 625.309H262.369V633.136H270.548V625.309Z" fill="#F0F0F0"/>
<path d="M270.548 638.428H262.369V646.255H270.548V638.428Z" fill="#F0F0F0"/>
<path d="M270.548 651.518H262.369V659.345H270.548V651.518Z" fill="#F0F0F0"/>
<path d="M270.548 664.61H262.369V672.437H270.548V664.61Z" fill="#F0F0F0"/>
<path d="M270.548 677.728H262.369V685.555H270.548V677.728Z" fill="#F0F0F0"/>
<path d="M270.548 690.819H262.369V698.646H270.548V690.819Z" fill="#F0F0F0"/>
<path d="M270.548 703.938H262.369V711.765H270.548V703.938Z" fill="#F0F0F0"/>
<path d="M270.548 717.029H262.369V724.856H270.548V717.029Z" fill="#F0F0F0"/>
<path d="M270.548 730.119H262.369V737.946H270.548V730.119Z" fill="#F0F0F0"/>
<path d="M270.548 743.238H262.369V751.065H270.548V743.238Z" fill="#F0F0F0"/>
<path d="M270.548 756.329H262.369V764.156H270.548V756.329Z" fill="#F0F0F0"/>
<path d="M270.548 769.448H262.369V777.275H270.548V769.448Z" fill="#F0F0F0"/>
<path d="M270.548 782.538H262.369V790.365H270.548V782.538Z" fill="#F0F0F0"/>
<path d="M270.548 795.629H262.369V803.456H270.548V795.629Z" fill="#F0F0F0"/>
<path d="M270.548 808.748H262.369V816.575H270.548V808.748Z" fill="#F0F0F0"/>
<path d="M270.548 821.839H262.369V829.666H270.548V821.839Z" fill="#F0F0F0"/>
<path d="M270.548 834.958H262.369V842.785H270.548V834.958Z" fill="#F0F0F0"/>
<path d="M270.548 848.048H262.369V855.875H270.548V848.048Z" fill="#F0F0F0"/>
<path d="M283.508 599.099H275.329V606.926H283.508V599.099Z" fill="#F0F0F0"/>
<path d="M283.508 612.218H275.329V620.045H283.508V612.218Z" fill="#F0F0F0"/>
<path d="M283.508 625.309H275.329V633.136H283.508V625.309Z" fill="#F0F0F0"/>
<path d="M283.508 638.428H275.329V646.255H283.508V638.428Z" fill="#F0F0F0"/>
<path d="M283.508 651.518H275.329V659.345H283.508V651.518Z" fill="#F0F0F0"/>
<path d="M283.508 664.61H275.329V672.437H283.508V664.61Z" fill="#F0F0F0"/>
<path d="M283.508 677.728H275.329V685.555H283.508V677.728Z" fill="#F0F0F0"/>
<path d="M283.508 690.819H275.329V698.646H283.508V690.819Z" fill="#F0F0F0"/>
<path d="M283.508 703.938H275.329V711.765H283.508V703.938Z" fill="#F0F0F0"/>
<path d="M283.508 717.029H275.329V724.856H283.508V717.029Z" fill="#F0F0F0"/>
<path d="M283.508 730.119H275.329V737.946H283.508V730.119Z" fill="#F0F0F0"/>
<path d="M283.508 743.238H275.329V751.065H283.508V743.238Z" fill="#F0F0F0"/>
<path d="M283.508 756.329H275.329V764.156H283.508V756.329Z" fill="#F0F0F0"/>
<path d="M283.508 769.448H275.329V777.275H283.508V769.448Z" fill="#F0F0F0"/>
<path d="M283.508 782.538H275.329V790.365H283.508V782.538Z" fill="#F0F0F0"/>
<path d="M283.508 795.629H275.329V803.456H283.508V795.629Z" fill="#F0F0F0"/>
<path d="M283.508 808.748H275.329V816.575H283.508V808.748Z" fill="#F0F0F0"/>
<path d="M283.508 821.839H275.329V829.666H283.508V821.839Z" fill="#F0F0F0"/>
<path d="M296.497 599.099H288.317V606.926H296.497V599.099Z" fill="#F0F0F0"/>
<path d="M296.497 612.218H288.317V620.045H296.497V612.218Z" fill="#F0F0F0"/>
<path d="M296.497 625.309H288.317V633.136H296.497V625.309Z" fill="#F0F0F0"/>
<path d="M296.497 638.428H288.317V646.255H296.497V638.428Z" fill="#F0F0F0"/>
<path d="M296.497 651.518H288.317V659.345H296.497V651.518Z" fill="#F0F0F0"/>
<path d="M296.497 664.61H288.317V672.437H296.497V664.61Z" fill="#F0F0F0"/>
<path d="M296.497 677.728H288.317V685.555H296.497V677.728Z" fill="#F0F0F0"/>
<path d="M296.497 690.819H288.317V698.646H296.497V690.819Z" fill="#F0F0F0"/>
<path d="M296.497 703.938H288.317V711.765H296.497V703.938Z" fill="#F0F0F0"/>
<path d="M296.497 717.029H288.317V724.856H296.497V717.029Z" fill="#F0F0F0"/>
<path d="M296.497 730.119H288.317V737.946H296.497V730.119Z" fill="#F0F0F0"/>
<path d="M296.497 743.238H288.317V751.065H296.497V743.238Z" fill="#F0F0F0"/>
<path d="M296.497 756.329H288.317V764.156H296.497V756.329Z" fill="#F0F0F0"/>
<path d="M296.497 769.448H288.317V777.275H296.497V769.448Z" fill="#F0F0F0"/>
<path d="M296.497 782.538H288.317V790.365H296.497V782.538Z" fill="#F0F0F0"/>
<path d="M296.497 795.629H288.317V803.456H296.497V795.629Z" fill="#F0F0F0"/>
<path d="M296.497 808.748H288.317V816.575H296.497V808.748Z" fill="#F0F0F0"/>
<path d="M296.497 821.839H288.317V829.666H296.497V821.839Z" fill="#F0F0F0"/>
<path d="M222.02 694.732H213.84V702.559H222.02V694.732Z" fill="#F0F0F0"/>
<path d="M222.02 707.824H213.84V715.651H222.02V707.824Z" fill="#F0F0F0"/>
<path d="M222.02 720.942H213.84V728.769H222.02V720.942Z" fill="#F0F0F0"/>
<path d="M222.02 734.033H213.84V741.86H222.02V734.033Z" fill="#F0F0F0"/>
<path d="M222.02 747.152H213.84V754.979H222.02V747.152Z" fill="#F0F0F0"/>
<path d="M222.02 760.243H213.84V768.07H222.02V760.243Z" fill="#F0F0F0"/>
<path d="M222.02 773.334H213.84V781.161H222.02V773.334Z" fill="#F0F0F0"/>
<path d="M222.02 786.451H213.84V794.279H222.02V786.451Z" fill="#F0F0F0"/>
<path d="M222.02 799.543H213.84V807.37H222.02V799.543Z" fill="#F0F0F0"/>
<path d="M222.02 812.662H213.84V820.489H222.02V812.662Z" fill="#F0F0F0"/>
<path d="M222.02 825.752H213.84V833.579H222.02V825.752Z" fill="#F0F0F0"/>
<path d="M222.02 838.871H213.84V846.698H222.02V838.871Z" fill="#F0F0F0"/>
<path d="M222.02 851.962H213.84V859.789H222.02V851.962Z" fill="#F0F0F0"/>
<path d="M235.007 694.732H226.828V702.559H235.007V694.732Z" fill="#F0F0F0"/>
<path d="M235.007 707.824H226.828V715.651H235.007V707.824Z" fill="#F0F0F0"/>
<path d="M235.007 720.942H226.828V728.769H235.007V720.942Z" fill="#F0F0F0"/>
<path d="M235.007 734.033H226.828V741.86H235.007V734.033Z" fill="#F0F0F0"/>
<path d="M235.007 747.152H226.828V754.979H235.007V747.152Z" fill="#F0F0F0"/>
<path d="M235.007 760.243H226.828V768.07H235.007V760.243Z" fill="#F0F0F0"/>
<path d="M235.007 773.334H226.828V781.161H235.007V773.334Z" fill="#F0F0F0"/>
<path d="M235.007 786.451H226.828V794.279H235.007V786.451Z" fill="#F0F0F0"/>
<path d="M235.007 799.543H226.828V807.37H235.007V799.543Z" fill="#F0F0F0"/>
<path d="M235.007 812.662H226.828V820.489H235.007V812.662Z" fill="#F0F0F0"/>
<path d="M235.007 825.752H226.828V833.579H235.007V825.752Z" fill="#F0F0F0"/>
<path d="M235.007 838.871H226.828V846.698H235.007V838.871Z" fill="#F0F0F0"/>
<path d="M235.007 851.962H226.828V859.789H235.007V851.962Z" fill="#F0F0F0"/>
<path d="M247.968 694.732H239.789V702.559H247.968V694.732Z" fill="#F0F0F0"/>
<path d="M247.968 707.824H239.789V715.651H247.968V707.824Z" fill="#F0F0F0"/>
<path d="M247.968 720.942H239.789V728.769H247.968V720.942Z" fill="#F0F0F0"/>
<path d="M247.968 734.033H239.789V741.86H247.968V734.033Z" fill="#F0F0F0"/>
<path d="M247.968 747.152H239.789V754.979H247.968V747.152Z" fill="#F0F0F0"/>
<path d="M247.968 760.243H239.789V768.07H247.968V760.243Z" fill="#F0F0F0"/>
<path d="M247.968 773.334H239.789V781.161H247.968V773.334Z" fill="#F0F0F0"/>
<path d="M247.968 786.451H239.789V794.279H247.968V786.451Z" fill="#F0F0F0"/>
<path d="M247.968 799.543H239.789V807.37H247.968V799.543Z" fill="#F0F0F0"/>
<path d="M247.968 812.662H239.789V820.489H247.968V812.662Z" fill="#F0F0F0"/>
<path d="M247.968 825.752H239.789V833.579H247.968V825.752Z" fill="#F0F0F0"/>
<path d="M247.968 838.871H239.789V846.698H247.968V838.871Z" fill="#F0F0F0"/>
<path d="M247.968 851.962H239.789V859.789H247.968V851.962Z" fill="#F0F0F0"/>
<path d="M247.968 865.053H239.789V872.88H247.968V865.053Z" fill="#F0F0F0"/>
<path d="M320.025 698.646H311.846V706.473H320.025V698.646Z" fill="#F0F0F0"/>
<path d="M320.025 711.737H311.846V719.564H320.025V711.737Z" fill="#F0F0F0"/>
<path d="M320.025 724.856H311.846V732.683H320.025V724.856Z" fill="#F0F0F0"/>
<path d="M320.025 737.947H311.846V745.774H320.025V737.947Z" fill="#F0F0F0"/>
<path d="M320.025 751.038H311.846V758.865H320.025V751.038Z" fill="#F0F0F0"/>
<path d="M320.025 764.156H311.846V771.983H320.025V764.156Z" fill="#F0F0F0"/>
<path d="M320.025 777.247H311.846V785.074H320.025V777.247Z" fill="#F0F0F0"/>
<path d="M320.025 790.366H311.846V798.193H320.025V790.366Z" fill="#F0F0F0"/>
<path d="M320.025 803.457H311.846V811.284H320.025V803.457Z" fill="#F0F0F0"/>
<path d="M320.025 816.548H311.846V824.375H320.025V816.548Z" fill="#F0F0F0"/>
<path d="M320.025 855.875H311.846V863.703H320.025V855.875Z" fill="#F0F0F0"/>
<path d="M332.986 698.646H324.807V706.473H332.986V698.646Z" fill="#F0F0F0"/>
<path d="M332.986 711.737H324.807V719.564H332.986V711.737Z" fill="#F0F0F0"/>
<path d="M332.986 724.856H324.807V732.683H332.986V724.856Z" fill="#F0F0F0"/>
<path d="M332.986 737.947H324.807V745.774H332.986V737.947Z" fill="#F0F0F0"/>
<path d="M332.986 751.038H324.807V758.865H332.986V751.038Z" fill="#F0F0F0"/>
<path d="M332.986 764.156H324.807V771.983H332.986V764.156Z" fill="#F0F0F0"/>
<path d="M332.986 777.247H324.807V785.074H332.986V777.247Z" fill="#F0F0F0"/>
<path d="M332.986 790.366H324.807V798.193H332.986V790.366Z" fill="#F0F0F0"/>
<path d="M332.986 803.457H324.807V811.284H332.986V803.457Z" fill="#F0F0F0"/>
<path d="M332.986 842.758H324.807V850.585H332.986V842.758Z" fill="#F0F0F0"/>
<path d="M332.986 855.875H324.807V863.703H332.986V855.875Z" fill="#F0F0F0"/>
<path d="M345.975 698.646H337.795V706.473H345.975V698.646Z" fill="#F0F0F0"/>
<path d="M345.975 711.737H337.795V719.564H345.975V711.737Z" fill="#F0F0F0"/>
<path d="M345.975 724.856H337.795V732.683H345.975V724.856Z" fill="#F0F0F0"/>
<path d="M345.975 737.947H337.795V745.774H345.975V737.947Z" fill="#F0F0F0"/>
<path d="M345.975 751.038H337.795V758.865H345.975V751.038Z" fill="#F0F0F0"/>
<path d="M345.975 764.156H337.795V771.983H345.975V764.156Z" fill="#F0F0F0"/>
<path d="M345.975 777.247H337.795V785.074H345.975V777.247Z" fill="#F0F0F0"/>
<path d="M345.975 790.366H337.795V798.193H345.975V790.366Z" fill="#F0F0F0"/>
<path d="M345.975 829.666H337.795V837.493H345.975V829.666Z" fill="#F0F0F0"/>
<path d="M345.975 842.758H337.795V850.585H345.975V842.758Z" fill="#F0F0F0"/>
<path d="M345.975 855.875H337.795V863.703H345.975V855.875Z" fill="#F0F0F0"/>
<path d="M466.56 499.58H458.381V507.407H466.56V499.58Z" fill="#F0F0F0"/>
<path d="M466.56 512.671H458.381V520.498H466.56V512.671Z" fill="#F0F0F0"/>
<path d="M466.56 525.789H458.381V533.616H466.56V525.789Z" fill="#F0F0F0"/>
<path d="M466.56 538.881H458.381V546.708H466.56V538.881Z" fill="#F0F0F0"/>
<path d="M466.56 552H458.381V559.827H466.56V552Z" fill="#F0F0F0"/>
<path d="M466.56 565.09H458.381V572.917H466.56V565.09Z" fill="#F0F0F0"/>
<path d="M466.56 578.182H458.381V586.009H466.56V578.182Z" fill="#F0F0F0"/>
<path d="M466.56 591.3H458.381V599.127H466.56V591.3Z" fill="#F0F0F0"/>
<path d="M466.56 604.391H458.381V612.218H466.56V604.391Z" fill="#F0F0F0"/>
<path d="M466.56 617.509H458.381V625.336H466.56V617.509Z" fill="#F0F0F0"/>
<path d="M466.56 630.601H458.381V638.428H466.56V630.601Z" fill="#F0F0F0"/>
<path d="M466.56 643.691H458.381V651.518H466.56V643.691Z" fill="#F0F0F0"/>
<path d="M466.56 656.81H458.381V664.637H466.56V656.81Z" fill="#F0F0F0"/>
<path d="M466.56 669.901H458.381V677.728H466.56V669.901Z" fill="#F0F0F0"/>
<path d="M466.56 683.02H458.381V690.847H466.56V683.02Z" fill="#F0F0F0"/>
<path d="M466.56 696.11H458.381V703.937H466.56V696.11Z" fill="#F0F0F0"/>
<path d="M466.56 709.201H458.381V717.029H466.56V709.201Z" fill="#F0F0F0"/>
<path d="M466.56 735.411H458.381V743.238H466.56V735.411Z" fill="#F0F0F0"/>
<path d="M466.56 748.53H458.381V756.357H466.56V748.53Z" fill="#F0F0F0"/>
<path d="M466.56 761.621H458.381V769.448H466.56V761.621Z" fill="#F0F0F0"/>
<path d="M466.56 774.74H458.381V782.567H466.56V774.74Z" fill="#F0F0F0"/>
<path d="M466.56 787.83H458.381V795.657H466.56V787.83Z" fill="#F0F0F0"/>
<path d="M479.519 499.58H471.34V507.407H479.519V499.58Z" fill="#F0F0F0"/>
<path d="M479.519 512.671H471.34V520.498H479.519V512.671Z" fill="#F0F0F0"/>
<path d="M479.519 525.789H471.34V533.616H479.519V525.789Z" fill="#F0F0F0"/>
<path d="M479.519 538.881H471.34V546.708H479.519V538.881Z" fill="#F0F0F0"/>
<path d="M479.519 552H471.34V559.827H479.519V552Z" fill="#F0F0F0"/>
<path d="M479.519 565.09H471.34V572.917H479.519V565.09Z" fill="#F0F0F0"/>
<path d="M479.519 578.182H471.34V586.009H479.519V578.182Z" fill="#F0F0F0"/>
<path d="M479.519 591.3H471.34V599.127H479.519V591.3Z" fill="#F0F0F0"/>
<path d="M479.519 604.391H471.34V612.218H479.519V604.391Z" fill="#F0F0F0"/>
<path d="M479.519 617.509H471.34V625.336H479.519V617.509Z" fill="#F0F0F0"/>
<path d="M479.519 630.601H471.34V638.428H479.519V630.601Z" fill="#F0F0F0"/>
<path d="M479.519 643.691H471.34V651.518H479.519V643.691Z" fill="#F0F0F0"/>
<path d="M479.519 656.81H471.34V664.637H479.519V656.81Z" fill="#F0F0F0"/>
<path d="M479.519 669.901H471.34V677.728H479.519V669.901Z" fill="#F0F0F0"/>
<path d="M479.519 683.02H471.34V690.847H479.519V683.02Z" fill="#F0F0F0"/>
<path d="M479.519 696.11H471.34V703.937H479.519V696.11Z" fill="#F0F0F0"/>
<path d="M479.519 774.74H471.34V782.567H479.519V774.74Z" fill="#F0F0F0"/>
<path d="M479.519 787.83H471.34V795.657H479.519V787.83Z" fill="#F0F0F0"/>
<path d="M492.479 499.58H484.3V507.407H492.479V499.58Z" fill="#F0F0F0"/>
<path d="M492.479 512.671H484.3V520.498H492.479V512.671Z" fill="#F0F0F0"/>
<path d="M492.479 525.789H484.3V533.616H492.479V525.789Z" fill="#F0F0F0"/>
<path d="M492.479 538.881H484.3V546.708H492.479V538.881Z" fill="#F0F0F0"/>
<path d="M492.479 552H484.3V559.827H492.479V552Z" fill="#F0F0F0"/>
<path d="M492.479 565.09H484.3V572.917H492.479V565.09Z" fill="#F0F0F0"/>
<path d="M492.479 578.182H484.3V586.009H492.479V578.182Z" fill="#F0F0F0"/>
<path d="M492.479 591.3H484.3V599.127H492.479V591.3Z" fill="#F0F0F0"/>
<path d="M492.479 604.391H484.3V612.218H492.479V604.391Z" fill="#F0F0F0"/>
<path d="M492.479 617.509H484.3V625.336H492.479V617.509Z" fill="#F0F0F0"/>
<path d="M492.479 630.601H484.3V638.428H492.479V630.601Z" fill="#F0F0F0"/>
<path d="M492.479 643.691H484.3V651.518H492.479V643.691Z" fill="#F0F0F0"/>
<path d="M492.479 656.81H484.3V664.637H492.479V656.81Z" fill="#F0F0F0"/>
<path d="M492.479 669.901H484.3V677.728H492.479V669.901Z" fill="#F0F0F0"/>
<path d="M492.479 683.02H484.3V690.847H492.479V683.02Z" fill="#F0F0F0"/>
<path d="M492.479 696.11H484.3V703.937H492.479V696.11Z" fill="#F0F0F0"/>
<path d="M492.479 722.32H484.3V730.147H492.479V722.32Z" fill="#F0F0F0"/>
<path d="M492.479 735.411H484.3V743.238H492.479V735.411Z" fill="#F0F0F0"/>
<path d="M492.479 748.53H484.3V756.357H492.479V748.53Z" fill="#F0F0F0"/>
<path d="M492.479 761.621H484.3V769.448H492.479V761.621Z" fill="#F0F0F0"/>
<path d="M492.479 787.83H484.3V795.657H492.479V787.83Z" fill="#F0F0F0"/>
<path d="M419.473 664.61H411.293V672.437H419.473V664.61Z" fill="#F0F0F0"/>
<path d="M419.473 677.728H411.293V685.555H419.473V677.728Z" fill="#F0F0F0"/>
<path d="M419.473 690.819H411.293V698.646H419.473V690.819Z" fill="#F0F0F0"/>
<path d="M419.473 703.938H411.293V711.765H419.473V703.938Z" fill="#F0F0F0"/>
<path d="M419.473 717.029H411.293V724.856H419.473V717.029Z" fill="#F0F0F0"/>
<path d="M419.473 730.119H411.293V737.946H419.473V730.119Z" fill="#F0F0F0"/>
<path d="M419.473 743.238H411.293V751.065H419.473V743.238Z" fill="#F0F0F0"/>
<path d="M419.473 769.448H411.293V777.275H419.473V769.448Z" fill="#F0F0F0"/>
<path d="M419.473 782.538H411.293V790.365H419.473V782.538Z" fill="#F0F0F0"/>
<path d="M419.473 795.629H411.293V803.456H419.473V795.629Z" fill="#F0F0F0"/>
<path d="M419.473 808.748H411.293V816.575H419.473V808.748Z" fill="#F0F0F0"/>
<path d="M419.473 821.839H411.293V829.666H419.473V821.839Z" fill="#F0F0F0"/>
<path d="M419.473 834.958H411.293V842.785H419.473V834.958Z" fill="#F0F0F0"/>
<path d="M419.473 848.048H411.293V855.875H419.473V848.048Z" fill="#F0F0F0"/>
<path d="M419.473 861.167H411.293V868.994H419.473V861.167Z" fill="#F0F0F0"/>
<path d="M432.432 664.61H424.253V672.437H432.432V664.61Z" fill="#F0F0F0"/>
<path d="M432.432 677.728H424.253V685.555H432.432V677.728Z" fill="#F0F0F0"/>
<path d="M432.432 690.819H424.253V698.646H432.432V690.819Z" fill="#F0F0F0"/>
<path d="M432.432 703.938H424.253V711.765H432.432V703.938Z" fill="#F0F0F0"/>
<path d="M432.432 717.029H424.253V724.856H432.432V717.029Z" fill="#F0F0F0"/>
<path d="M432.432 730.119H424.253V737.946H432.432V730.119Z" fill="#F0F0F0"/>
<path d="M432.432 769.448H424.253V777.275H432.432V769.448Z" fill="#F0F0F0"/>
<path d="M432.432 782.538H424.253V790.365H432.432V782.538Z" fill="#F0F0F0"/>
<path d="M432.432 795.629H424.253V803.456H432.432V795.629Z" fill="#F0F0F0"/>
<path d="M432.432 808.748H424.253V816.575H432.432V808.748Z" fill="#F0F0F0"/>
<path d="M432.432 821.839H424.253V829.666H432.432V821.839Z" fill="#F0F0F0"/>
<path d="M432.432 834.958H424.253V842.785H432.432V834.958Z" fill="#F0F0F0"/>
<path d="M432.432 848.048H424.253V855.875H432.432V848.048Z" fill="#F0F0F0"/>
<path d="M432.432 861.167H424.253V868.994H432.432V861.167Z" fill="#F0F0F0"/>
<path d="M445.421 664.61H437.242V672.437H445.421V664.61Z" fill="#F0F0F0"/>
<path d="M445.421 677.728H437.242V685.555H445.421V677.728Z" fill="#F0F0F0"/>
<path d="M445.421 690.819H437.242V698.646H445.421V690.819Z" fill="#F0F0F0"/>
<path d="M445.421 703.938H437.242V711.765H445.421V703.938Z" fill="#F0F0F0"/>
<path d="M445.421 717.029H437.242V724.856H445.421V717.029Z" fill="#F0F0F0"/>
<path d="M445.421 730.119H437.242V737.946H445.421V730.119Z" fill="#F0F0F0"/>
<path d="M445.421 756.329H437.242V764.156H445.421V756.329Z" fill="#F0F0F0"/>
<path d="M445.421 769.448H437.242V777.275H445.421V769.448Z" fill="#F0F0F0"/>
<path d="M445.421 782.538H437.242V790.365H445.421V782.538Z" fill="#F0F0F0"/>
<path d="M445.421 795.629H437.242V803.456H445.421V795.629Z" fill="#F0F0F0"/>
<path d="M445.421 808.748H437.242V816.575H445.421V808.748Z" fill="#F0F0F0"/>
<path d="M445.421 821.839H437.242V829.666H445.421V821.839Z" fill="#F0F0F0"/>
<path d="M445.421 834.958H437.242V842.785H445.421V834.958Z" fill="#F0F0F0"/>
<path d="M445.421 848.048H437.242V855.875H445.421V848.048Z" fill="#F0F0F0"/>
<path d="M445.421 861.167H437.242V868.994H445.421V861.167Z" fill="#F0F0F0"/>
<path d="M718.762 591.3H710.583V599.127H718.762V591.3Z" fill="#F0F0F0"/>
<path d="M718.762 604.391H710.583V612.218H718.762V604.391Z" fill="#F0F0F0"/>
<path d="M718.762 617.509H710.583V625.336H718.762V617.509Z" fill="#F0F0F0"/>
<path d="M718.762 630.601H710.583V638.428H718.762V630.601Z" fill="#F0F0F0"/>
<path d="M718.762 643.691H710.583V651.518H718.762V643.691Z" fill="#F0F0F0"/>
<path d="M718.762 656.81H710.583V664.637H718.762V656.81Z" fill="#F0F0F0"/>
<path d="M718.762 669.901H710.583V677.728H718.762V669.901Z" fill="#F0F0F0"/>
<path d="M718.762 683.02H710.583V690.847H718.762V683.02Z" fill="#F0F0F0"/>
<path d="M718.762 696.11H710.583V703.937H718.762V696.11Z" fill="#F0F0F0"/>
<path d="M718.762 709.201H710.583V717.029H718.762V709.201Z" fill="#F0F0F0"/>
<path d="M718.762 722.32H710.583V730.147H718.762V722.32Z" fill="#F0F0F0"/>
<path d="M718.762 735.411H710.583V743.238H718.762V735.411Z" fill="#F0F0F0"/>
<path d="M718.762 748.53H710.583V756.357H718.762V748.53Z" fill="#F0F0F0"/>
<path d="M718.762 774.74H710.583V782.567H718.762V774.74Z" fill="#F0F0F0"/>
<path d="M718.762 787.83H710.583V795.657H718.762V787.83Z" fill="#F0F0F0"/>
<path d="M718.762 800.921H710.583V808.748H718.762V800.921Z" fill="#F0F0F0"/>
<path d="M718.762 814.04H710.583V821.867H718.762V814.04Z" fill="#F0F0F0"/>
<path d="M718.762 840.25H710.583V848.077H718.762V840.25Z" fill="#F0F0F0"/>
<path d="M718.762 853.34H710.583V861.167H718.762V853.34Z" fill="#F0F0F0"/>
<path d="M718.762 866.431H710.583V874.258H718.762V866.431Z" fill="#F0F0F0"/>
<path d="M731.751 591.3H723.572V599.127H731.751V591.3Z" fill="#F0F0F0"/>
<path d="M731.751 604.391H723.572V612.218H731.751V604.391Z" fill="#F0F0F0"/>
<path d="M731.751 617.509H723.572V625.336H731.751V617.509Z" fill="#F0F0F0"/>
<path d="M731.751 630.601H723.572V638.428H731.751V630.601Z" fill="#F0F0F0"/>
<path d="M731.751 643.691H723.572V651.518H731.751V643.691Z" fill="#F0F0F0"/>
<path d="M731.751 656.81H723.572V664.637H731.751V656.81Z" fill="#F0F0F0"/>
<path d="M731.751 669.901H723.572V677.728H731.751V669.901Z" fill="#F0F0F0"/>
<path d="M731.751 683.02H723.572V690.847H731.751V683.02Z" fill="#F0F0F0"/>
<path d="M731.751 696.11H723.572V703.937H731.751V696.11Z" fill="#F0F0F0"/>
<path d="M731.751 709.201H723.572V717.029H731.751V709.201Z" fill="#F0F0F0"/>
<path d="M731.751 722.32H723.572V730.147H731.751V722.32Z" fill="#F0F0F0"/>
<path d="M731.751 735.411H723.572V743.238H731.751V735.411Z" fill="#F0F0F0"/>
<path d="M731.751 748.53H723.572V756.357H731.751V748.53Z" fill="#F0F0F0"/>
<path d="M731.751 787.83H723.572V795.657H731.751V787.83Z" fill="#F0F0F0"/>
<path d="M731.751 800.921H723.572V808.748H731.751V800.921Z" fill="#F0F0F0"/>
<path d="M731.751 827.131H723.572V834.958H731.751V827.131Z" fill="#F0F0F0"/>
<path d="M731.751 840.25H723.572V848.077H731.751V840.25Z" fill="#F0F0F0"/>
<path d="M731.751 853.34H723.572V861.167H731.751V853.34Z" fill="#F0F0F0"/>
<path d="M731.751 866.431H723.572V874.258H731.751V866.431Z" fill="#F0F0F0"/>
<path d="M744.709 591.3H736.53V599.127H744.709V591.3Z" fill="#F0F0F0"/>
<path d="M744.709 604.391H736.53V612.218H744.709V604.391Z" fill="#F0F0F0"/>
<path d="M744.709 617.509H736.53V625.336H744.709V617.509Z" fill="#F0F0F0"/>
<path d="M744.709 630.601H736.53V638.428H744.709V630.601Z" fill="#F0F0F0"/>
<path d="M744.709 643.691H736.53V651.518H744.709V643.691Z" fill="#F0F0F0"/>
<path d="M744.709 656.81H736.53V664.637H744.709V656.81Z" fill="#F0F0F0"/>
<path d="M744.709 669.901H736.53V677.728H744.709V669.901Z" fill="#F0F0F0"/>
<path d="M744.709 683.02H736.53V690.847H744.709V683.02Z" fill="#F0F0F0"/>
<path d="M744.709 696.11H736.53V703.937H744.709V696.11Z" fill="#F0F0F0"/>
<path d="M744.709 709.201H736.53V717.029H744.709V709.201Z" fill="#F0F0F0"/>
<path d="M744.709 722.32H736.53V730.147H744.709V722.32Z" fill="#F0F0F0"/>
<path d="M744.709 735.411H736.53V743.238H744.709V735.411Z" fill="#F0F0F0"/>
<path d="M744.709 748.53H736.53V756.357H744.709V748.53Z" fill="#F0F0F0"/>
<path d="M744.709 761.621H736.53V769.448H744.709V761.621Z" fill="#F0F0F0"/>
<path d="M744.709 787.83H736.53V795.657H744.709V787.83Z" fill="#F0F0F0"/>
<path d="M744.709 814.04H736.53V821.867H744.709V814.04Z" fill="#F0F0F0"/>
<path d="M744.709 827.131H736.53V834.958H744.709V827.131Z" fill="#F0F0F0"/>
<path d="M744.709 840.25H736.53V848.077H744.709V840.25Z" fill="#F0F0F0"/>
<path d="M744.709 853.34H736.53V861.167H744.709V853.34Z" fill="#F0F0F0"/>
<path d="M744.709 866.431H736.53V874.258H744.709V866.431Z" fill="#F0F0F0"/>
<path d="M665.914 665.987H657.734V673.814H665.914V665.987Z" fill="#F0F0F0"/>
<path d="M665.914 679.105H657.734V686.932H665.914V679.105Z" fill="#F0F0F0"/>
<path d="M665.914 692.197H657.734V700.024H665.914V692.197Z" fill="#F0F0F0"/>
<path d="M665.914 705.316H657.734V713.143H665.914V705.316Z" fill="#F0F0F0"/>
<path d="M665.914 718.407H657.734V726.234H665.914V718.407Z" fill="#F0F0F0"/>
<path d="M665.914 731.525H657.734V739.352H665.914V731.525Z" fill="#F0F0F0"/>
<path d="M665.914 770.826H657.734V778.653H665.914V770.826Z" fill="#F0F0F0"/>
<path d="M665.914 783.917H657.734V791.744H665.914V783.917Z" fill="#F0F0F0"/>
<path d="M665.914 797.035H657.734V804.862H665.914V797.035Z" fill="#F0F0F0"/>
<path d="M665.914 810.126H657.734V817.953H665.914V810.126Z" fill="#F0F0F0"/>
<path d="M665.914 823.218H657.734V831.045H665.914V823.218Z" fill="#F0F0F0"/>
<path d="M665.914 836.335H657.734V844.162H665.914V836.335Z" fill="#F0F0F0"/>
<path d="M665.914 849.427H657.734V857.254H665.914V849.427Z" fill="#F0F0F0"/>
<path d="M678.903 665.987H670.724V673.814H678.903V665.987Z" fill="#F0F0F0"/>
<path d="M678.903 679.105H670.724V686.932H678.903V679.105Z" fill="#F0F0F0"/>
<path d="M678.903 692.197H670.724V700.024H678.903V692.197Z" fill="#F0F0F0"/>
<path d="M678.903 705.316H670.724V713.143H678.903V705.316Z" fill="#F0F0F0"/>
<path d="M678.903 718.407H670.724V726.234H678.903V718.407Z" fill="#F0F0F0"/>
<path d="M678.903 731.525H670.724V739.352H678.903V731.525Z" fill="#F0F0F0"/>
<path d="M678.903 770.826H670.724V778.653H678.903V770.826Z" fill="#F0F0F0"/>
<path d="M678.903 783.917H670.724V791.744H678.903V783.917Z" fill="#F0F0F0"/>
<path d="M678.903 797.035H670.724V804.862H678.903V797.035Z" fill="#F0F0F0"/>
<path d="M678.903 810.126H670.724V817.953H678.903V810.126Z" fill="#F0F0F0"/>
<path d="M678.903 823.218H670.724V831.045H678.903V823.218Z" fill="#F0F0F0"/>
<path d="M678.903 836.335H670.724V844.162H678.903V836.335Z" fill="#F0F0F0"/>
<path d="M678.903 862.545H670.724V870.372H678.903V862.545Z" fill="#F0F0F0"/>
<path d="M1109.81 608.304H1101.63V616.131H1109.81V608.304Z" fill="#F0F0F0"/>
<path d="M1109.81 621.396H1101.63V629.223H1109.81V621.396Z" fill="#F0F0F0"/>
<path d="M1109.81 634.514H1101.63V642.341H1109.81V634.514Z" fill="#F0F0F0"/>
<path d="M1109.81 647.604H1101.63V655.432H1109.81V647.604Z" fill="#F0F0F0"/>
<path d="M1109.81 660.723H1101.63V668.55H1109.81V660.723Z" fill="#F0F0F0"/>
<path d="M1109.81 673.815H1101.63V681.642H1109.81V673.815Z" fill="#F0F0F0"/>
<path d="M1109.81 686.905H1101.63V694.732H1109.81V686.905Z" fill="#F0F0F0"/>
<path d="M1109.81 700.024H1101.63V707.851H1109.81V700.024Z" fill="#F0F0F0"/>
<path d="M1109.81 713.115H1101.63V720.942H1109.81V713.115Z" fill="#F0F0F0"/>
<path d="M1109.81 726.233H1101.63V734.06H1109.81V726.233Z" fill="#F0F0F0"/>
<path d="M1109.81 739.324H1101.63V747.151H1109.81V739.324Z" fill="#F0F0F0"/>
<path d="M1109.81 765.534H1101.63V773.361H1109.81V765.534Z" fill="#F0F0F0"/>
<path d="M1109.81 778.625H1101.63V786.452H1109.81V778.625Z" fill="#F0F0F0"/>
<path d="M1109.81 791.744H1101.63V799.571H1109.81V791.744Z" fill="#F0F0F0"/>
<path d="M1109.81 804.835H1101.63V812.662H1109.81V804.835Z" fill="#F0F0F0"/>
<path d="M1109.81 817.953H1101.63V825.78H1109.81V817.953Z" fill="#F0F0F0"/>
<path d="M1109.81 831.044H1101.63V838.871H1109.81V831.044Z" fill="#F0F0F0"/>
<path d="M1109.81 844.135H1101.63V851.962H1109.81V844.135Z" fill="#F0F0F0"/>
<path d="M1109.81 857.254H1101.63V865.081H1109.81V857.254Z" fill="#F0F0F0"/>
<path d="M1122.8 608.304H1114.62V616.131H1122.8V608.304Z" fill="#F0F0F0"/>
<path d="M1122.8 621.396H1114.62V629.223H1122.8V621.396Z" fill="#F0F0F0"/>
<path d="M1122.8 634.514H1114.62V642.341H1122.8V634.514Z" fill="#F0F0F0"/>
<path d="M1122.8 647.604H1114.62V655.432H1122.8V647.604Z" fill="#F0F0F0"/>
<path d="M1122.8 660.723H1114.62V668.55H1122.8V660.723Z" fill="#F0F0F0"/>
<path d="M1122.8 673.815H1114.62V681.642H1122.8V673.815Z" fill="#F0F0F0"/>
<path d="M1122.8 686.905H1114.62V694.732H1122.8V686.905Z" fill="#F0F0F0"/>
<path d="M1122.8 700.024H1114.62V707.851H1122.8V700.024Z" fill="#F0F0F0"/>
<path d="M1122.8 713.115H1114.62V720.942H1122.8V713.115Z" fill="#F0F0F0"/>
<path d="M1122.8 726.233H1114.62V734.06H1122.8V726.233Z" fill="#F0F0F0"/>
<path d="M1122.8 739.324H1114.62V747.151H1122.8V739.324Z" fill="#F0F0F0"/>
<path d="M1122.8 752.416H1114.62V760.243H1122.8V752.416Z" fill="#F0F0F0"/>
<path d="M1122.8 765.534H1114.62V773.361H1122.8V765.534Z" fill="#F0F0F0"/>
<path d="M1122.8 778.625H1114.62V786.452H1122.8V778.625Z" fill="#F0F0F0"/>
<path d="M1122.8 791.744H1114.62V799.571H1122.8V791.744Z" fill="#F0F0F0"/>
<path d="M1122.8 804.835H1114.62V812.662H1122.8V804.835Z" fill="#F0F0F0"/>
<path d="M1122.8 817.953H1114.62V825.78H1122.8V817.953Z" fill="#F0F0F0"/>
<path d="M1122.8 831.044H1114.62V838.871H1122.8V831.044Z" fill="#F0F0F0"/>
<path d="M1122.8 844.135H1114.62V851.962H1122.8V844.135Z" fill="#F0F0F0"/>
<path d="M1122.8 857.254H1114.62V865.081H1122.8V857.254Z" fill="#F0F0F0"/>
<path d="M1045.93 659.345H1037.75V667.172H1045.93V659.345Z" fill="#F0F0F0"/>
<path d="M1045.93 672.437H1037.75V680.264H1045.93V672.437Z" fill="#F0F0F0"/>
<path d="M1045.93 685.527H1037.75V693.354H1045.93V685.527Z" fill="#F0F0F0"/>
<path d="M1045.93 698.646H1037.75V706.473H1045.93V698.646Z" fill="#F0F0F0"/>
<path d="M1045.93 711.737H1037.75V719.564H1045.93V711.737Z" fill="#F0F0F0"/>
<path d="M1045.93 724.856H1037.75V732.683H1045.93V724.856Z" fill="#F0F0F0"/>
<path d="M1045.93 737.947H1037.75V745.774H1045.93V737.947Z" fill="#F0F0F0"/>
<path d="M1045.93 751.038H1037.75V758.865H1045.93V751.038Z" fill="#F0F0F0"/>
<path d="M1045.93 764.156H1037.75V771.983H1045.93V764.156Z" fill="#F0F0F0"/>
<path d="M1045.93 777.247H1037.75V785.074H1045.93V777.247Z" fill="#F0F0F0"/>
<path d="M1058.89 659.345H1050.71V667.172H1058.89V659.345Z" fill="#F0F0F0"/>
<path d="M1058.89 672.437H1050.71V680.264H1058.89V672.437Z" fill="#F0F0F0"/>
<path d="M1058.89 685.527H1050.71V693.354H1058.89V685.527Z" fill="#F0F0F0"/>
<path d="M1058.89 698.646H1050.71V706.473H1058.89V698.646Z" fill="#F0F0F0"/>
<path d="M1058.89 711.737H1050.71V719.564H1058.89V711.737Z" fill="#F0F0F0"/>
<path d="M1058.89 724.856H1050.71V732.683H1058.89V724.856Z" fill="#F0F0F0"/>
<path d="M1058.89 737.947H1050.71V745.774H1058.89V737.947Z" fill="#F0F0F0"/>
<path d="M1058.89 751.038H1050.71V758.865H1058.89V751.038Z" fill="#F0F0F0"/>
<path d="M1058.89 764.156H1050.71V771.983H1058.89V764.156Z" fill="#F0F0F0"/>
<path d="M423.763 345.961C423.777 342.168 422.861 338.426 421.087 335.035C419.314 331.644 416.734 328.698 413.554 326.435C410.374 324.172 406.683 322.656 402.779 322.007C398.875 321.358 394.866 321.595 391.075 322.7C392.201 315.39 391.667 307.933 389.51 300.838C387.353 293.743 383.623 287.176 378.575 281.584C373.527 275.993 367.28 271.508 360.257 268.435C353.235 265.362 345.603 263.773 337.881 263.777C334.558 263.774 331.241 264.069 327.974 264.659C322.674 256.323 314.685 249.863 305.212 246.253C295.739 242.643 285.296 242.079 275.459 244.645C265.622 247.212 256.923 252.77 250.676 260.481C244.429 268.193 240.971 277.639 240.825 287.396H240.048C228.556 287.396 217.535 291.764 209.409 299.54C201.283 307.316 196.718 317.863 196.718 328.86C196.718 339.856 201.283 350.403 209.409 358.179C217.535 365.955 228.556 370.324 240.048 370.324H399.11C405.729 370.144 412.012 367.495 416.618 362.943C421.224 358.391 423.788 352.297 423.763 345.961V345.961Z" fill="#F0F0F0"/>
<path d="M630.346 302.278C630.346 298.163 632.054 294.216 635.095 291.307C638.136 288.397 642.26 286.762 646.56 286.762C648.139 286.762 649.709 286.975 651.226 287.396C650.97 285.828 650.845 284.243 650.851 282.655C650.851 273.943 654.468 265.587 660.906 259.426C667.344 253.265 676.076 249.804 685.181 249.804C687.306 249.805 689.427 249.989 691.517 250.355C694.902 245.033 700.003 240.909 706.052 238.605C712.101 236.3 718.768 235.941 725.049 237.58C731.33 239.22 736.884 242.769 740.872 247.694C744.86 252.618 747.066 258.65 747.159 264.879H747.648C754.83 265.101 761.641 267.987 766.639 272.927C771.638 277.867 774.432 284.474 774.432 291.351C774.432 298.227 771.638 304.834 766.639 309.774C761.641 314.714 754.83 317.6 747.648 317.822H646.099C641.874 317.707 637.863 316.018 634.921 313.115C631.978 310.211 630.337 306.323 630.346 302.278V302.278Z" fill="#F0F0F0"/>
<path d="M1101.05 340.89C1101.05 336.775 1102.76 332.829 1105.8 329.919C1108.84 327.009 1112.97 325.374 1117.27 325.374C1118.85 325.368 1120.42 325.591 1121.93 326.036C1121.69 324.457 1121.57 322.863 1121.56 321.268C1121.56 312.555 1125.18 304.199 1131.61 298.038C1138.05 291.877 1146.78 288.416 1155.89 288.416C1158.01 288.417 1160.13 288.602 1162.22 288.967C1165.61 283.646 1170.71 279.521 1176.76 277.217C1182.81 274.912 1189.48 274.553 1195.76 276.192C1202.04 277.832 1207.59 281.382 1211.58 286.306C1215.57 291.23 1217.77 297.262 1217.87 303.492H1218.24C1221.95 303.377 1225.64 303.977 1229.1 305.256C1232.56 306.535 1235.72 308.466 1238.38 310.935C1241.05 313.405 1243.17 316.362 1244.62 319.63C1246.06 322.899 1246.81 326.413 1246.81 329.963C1246.81 333.513 1246.06 337.027 1244.62 340.295C1243.17 343.564 1241.05 346.521 1238.38 348.99C1235.72 351.46 1232.56 353.391 1229.1 354.67C1225.64 355.949 1221.95 356.549 1218.24 356.434H1116.81C1112.58 356.319 1108.57 354.63 1105.63 351.727C1102.69 348.823 1101.04 344.935 1101.05 340.89V340.89Z" fill="#F0F0F0"/>
<path d="M454.81 147.336C454.806 146.086 455.061 144.848 455.559 143.693C456.057 142.538 456.789 141.488 457.712 140.604C458.635 139.721 459.732 139.02 460.939 138.544C462.147 138.067 463.44 137.824 464.746 137.827C465.723 137.823 466.694 137.962 467.626 138.241C467.477 137.274 467.4 136.297 467.396 135.319C467.396 129.984 469.611 124.866 473.554 121.093C477.496 117.32 482.844 115.201 488.42 115.201C489.724 115.199 491.025 115.31 492.308 115.531C494.38 112.271 497.505 109.745 501.21 108.334C504.914 106.922 508.998 106.703 512.845 107.708C516.692 108.713 520.093 110.888 522.534 113.905C524.975 116.923 526.325 120.618 526.378 124.433H526.695C531.069 124.606 535.204 126.39 538.236 129.413C541.267 132.436 542.959 136.463 542.959 140.652C542.959 144.842 541.267 148.869 538.236 151.892C535.204 154.915 531.069 156.699 526.695 156.871H464.487C461.89 156.814 459.42 155.782 457.61 153.998C455.8 152.215 454.794 149.822 454.81 147.336V147.336Z" fill="#F0F0F0"/>
<path d="M878.026 154.336C878.026 151.814 879.073 149.396 880.936 147.612C882.799 145.829 885.327 144.828 887.962 144.828C888.936 144.826 889.906 144.956 890.842 145.213C890.393 142.352 890.597 139.431 891.438 136.652C892.28 133.873 893.74 131.301 895.718 129.112C897.696 126.924 900.145 125.17 902.897 123.973C905.65 122.775 908.641 122.161 911.664 122.173C912.959 122.181 914.251 122.3 915.524 122.532C917.589 119.261 920.712 116.723 924.42 115.302C928.127 113.881 932.218 113.655 936.072 114.658C939.926 115.661 943.333 117.838 945.778 120.86C948.223 123.882 949.573 127.584 949.623 131.406H949.911C954.402 131.406 958.709 133.113 961.885 136.152C965.061 139.191 966.845 143.313 966.845 147.611C966.845 151.909 965.061 156.031 961.885 159.07C958.709 162.109 954.402 163.816 949.911 163.816H887.703C885.115 163.759 882.654 162.735 880.846 160.963C879.037 159.191 878.025 156.812 878.026 154.336Z" fill="#F0F0F0"/>
<path d="M719.999 1026.78C1028.4 1026.78 1278.4 1012.81 1278.4 995.577C1278.4 978.347 1028.4 964.38 719.999 964.38C411.602 964.38 161.596 978.347 161.596 995.577C161.596 1012.81 411.602 1026.78 719.999 1026.78Z" fill="#F5F5F5"/>
<path d="M245.434 480.15H211.046V954.982H245.434V480.15Z" fill="#69A37A"/>
<path d="M311.588 580.771H277.201V954.981H311.588V580.771Z" fill="#69A37A"/>
<path d="M377.74 659.291H343.353V954.982H377.74V659.291Z" fill="#69A37A"/>
<path d="M443.894 728.825H409.507V954.982H443.894V728.825Z" fill="#69A37A"/>
<path d="M510.019 789.65H475.632V955.01H510.019V789.65Z" fill="#69A37A"/>
<path d="M576.173 833.635H541.786V954.982H576.173V833.635Z" fill="#69A37A"/>
<path d="M642.326 869.794H607.938V954.982H642.326V869.794Z" fill="#69A37A"/>
<g opacity="0.7">
<path d="M245.434 480.15H211.046V954.982H245.434V480.15Z" fill="white"/>
<path d="M311.588 580.771H277.201V954.981H311.588V580.771Z" fill="white"/>
<path d="M377.74 659.291H343.353V954.982H377.74V659.291Z" fill="white"/>
<path d="M443.894 728.825H409.507V954.982H443.894V728.825Z" fill="white"/>
<path d="M510.019 789.65H475.632V955.01H510.019V789.65Z" fill="white"/>
<path d="M576.173 833.635H541.786V954.982H576.173V833.635Z" fill="white"/>
<path d="M642.326 869.794H607.938V954.982H642.326V869.794Z" fill="white"/>
</g>
<path d="M206.266 351.665L199.325 388.843L238.148 373.961L206.266 351.665Z" fill="#69A37A"/>
<path d="M691.2 884.207C509.443 801.252 387.389 669.488 316.973 573.579C240.768 469.678 207.879 386.529 206.525 383.084L228.096 375.367C228.413 376.194 261.562 459.811 336.269 561.507C405.043 655.046 524.16 783.531 701.136 864.309L691.2 884.207Z" fill="#69A37A"/>
<path d="M1032.08 965.647C1032.08 965.647 1009.04 922.874 1014.8 918.795C1020.56 914.716 1032.08 954.623 1032.08 951.426C1032.08 948.229 1031.41 893.936 1042.01 896.086C1052.61 898.235 1042.01 948.312 1042.01 948.312C1042.01 948.312 1056.24 922.736 1061.83 924.665C1067.41 926.595 1045.44 956.91 1045.44 956.91C1045.44 956.91 1058.6 949.304 1061.91 949.883C1065.23 950.461 1045.44 965.647 1045.44 965.647H1032.08Z" fill="#69A37A"/>
<path d="M413.741 977.636C413.741 977.636 436.781 934.89 431.021 930.784C425.261 926.677 413.914 966.612 413.741 963.387C413.568 960.163 414.403 905.925 403.805 908.074C393.206 910.224 403.805 960.438 403.805 960.438C403.805 960.438 384.019 924.28 378.749 933.512C374.198 941.505 400.435 969.147 400.435 969.147C400.435 969.147 374.342 952.225 374.198 959.667C374.054 967.659 400.435 977.856 400.435 977.856L413.741 977.636Z" fill="#69A37A"/>
<path d="M764.87 941.67C764.87 941.67 743.126 915.791 751.478 913.421C759.83 911.05 765.561 932.575 767.03 929.736C768.499 926.897 767.548 898.455 781.43 902.727C795.311 906.999 776.246 931.252 776.246 931.252C776.246 931.252 788.803 922.074 792.172 924.417C795.542 926.76 777.11 943.709 777.11 943.709L764.87 941.67Z" fill="#69A37A"/>
<path d="M565.805 909.893C565.805 909.893 580.493 879.825 571.795 879.412C563.098 878.998 560.275 902.287 560.275 902.287C560.275 902.287 555.379 871.089 542.362 875.416C528.566 879.991 552.326 904.574 552.326 904.574C552.326 904.574 529.517 890.794 528.019 898.401C526.147 907.771 557.482 913.366 557.482 913.366L565.805 909.893Z" fill="#69A37A"/>
<path d="M335.607 997.424H1111.34L1079.45 964.379L848.362 941.091H767.549L709.172 895.838L557.569 907.661L433.066 952.308L407.463 974.907H367.69L335.607 997.424Z" fill="#263238"/>
<path opacity="0.5" d="M335.607 997.424H1111.34L1079.45 964.379L848.362 941.091H767.549L709.172 895.838L557.569 907.661L433.066 952.308L407.463 974.907H367.69L335.607 997.424Z" fill="white"/>
<path opacity="0.2" d="M407.463 974.907L489.111 988.219H533.319L483.207 979.923L433.067 952.308L407.463 974.907Z" fill="black"/>
<path opacity="0.2" d="M767.548 941.091H723.484L652.579 965.261L689.039 930.783L741.715 921.082L767.548 941.091Z" fill="black"/>
<path opacity="0.2" d="M1079.45 964.379L995.904 988.219L923.356 970.277L987.926 997.424H1111.33L1079.45 964.379Z" fill="black"/>
<path d="M681.409 913.834L661.22 908.378L668.708 862.132L688.868 867.589L681.409 913.834Z" fill="#E4897B"/>
<path d="M660.788 892.2H686.334C686.749 892.191 687.155 892.321 687.48 892.567C687.806 892.814 688.032 893.161 688.119 893.55L692.468 911.381C692.568 911.816 692.564 912.266 692.456 912.698C692.349 913.131 692.14 913.535 691.847 913.879C691.553 914.224 691.182 914.5 690.761 914.688C690.34 914.876 689.88 914.97 689.415 914.964C681.207 914.826 675.188 914.358 664.849 914.358C658.484 914.358 639.274 914.992 630.462 914.992C621.649 914.992 620.439 906.724 624.039 905.924C640.138 902.535 652.263 897.877 657.39 893.412C658.324 892.616 659.537 892.184 660.788 892.2V892.2Z" fill="#263238"/>
<path d="M1006.94 967.439L986.429 971.573L970.618 927.284L991.124 923.177L1006.94 967.439Z" fill="#E4897B"/>
<path d="M827.396 529.95C827.396 529.95 731.52 631.123 705.744 671.03C679.968 710.937 657.36 880.21 657.36 880.21L695.492 889.029C695.492 889.029 739.844 724.083 751.652 707.547C763.46 691.011 888.884 579.062 888.884 579.062L827.396 529.95Z" fill="#263238"/>
<path opacity="0.1" d="M888.884 579.062L876.442 590.086C866.074 599.429 850.292 613.623 833.386 629.084C798.192 661.164 758.103 698.425 751.652 707.437C739.844 723.973 695.492 888.947 695.492 888.947L657.36 880.1C657.36 880.1 679.882 710.937 705.773 670.948C731.664 630.958 827.396 529.868 827.396 529.868L888.884 579.062Z" fill="white"/>
<path opacity="0.2" d="M876.441 590.197C866.073 599.54 850.291 613.733 833.385 629.194C844.588 600.118 871.66 581.295 871.66 581.295L876.441 590.197Z" fill="black"/>
<path d="M860.746 537.199C860.746 537.199 885.37 709.228 897.264 766.966C910.282 830.189 968.256 947.512 968.256 947.512L1005.7 939.96C1005.7 939.96 966.211 831.512 957.456 768.041C947.693 697.047 933.034 536.537 933.034 536.537L860.746 537.199Z" fill="#263238"/>
<g opacity="0.1">
<path d="M860.746 537.199C860.746 537.199 885.37 709.228 897.264 766.966C910.282 830.189 968.256 947.512 968.256 947.512L1005.7 939.96C1005.7 939.96 966.211 831.512 957.456 768.041C947.693 697.047 933.034 536.537 933.034 536.537L860.746 537.199Z" fill="white"/>
</g>
<path d="M714.73 322.149L713.088 301.754L735.178 310.022C735.178 310.022 735.495 328.295 725.645 328.047L714.73 322.149Z" fill="#E4897B"/>
<path d="M721.671 289.986L742.551 291.254L735.178 309.94L713.088 301.754L721.671 289.986Z" fill="#E4897B"/>
<path d="M713.981 325.731L714.557 320.082L732.413 323.582L731.002 329.507L713.981 325.731Z" fill="#69A37A"/>
<path opacity="0.7" d="M713.981 325.731L714.557 320.082L732.413 323.582L731.002 329.507L713.981 325.731Z" fill="white"/>
<path d="M799.143 295.443H752.919C751.277 295.443 750.039 298.833 750.039 302.995C750.039 307.156 751.364 310.519 752.919 310.519H799.143C800.756 310.519 802.023 307.156 802.023 302.995C802.023 298.833 800.641 295.443 799.143 295.443Z" fill="#69A37A"/>
<path opacity="0.4" d="M799.143 295.443H752.919C751.277 295.443 750.039 298.833 750.039 302.995C750.039 307.156 751.364 310.519 752.919 310.519H799.143C800.756 310.519 802.023 307.156 802.023 302.995C802.023 298.833 800.641 295.443 799.143 295.443Z" fill="white"/>
<path d="M752.228 293.376H696.96C694.887 293.376 693.216 297.676 693.216 302.995C693.216 308.314 694.887 312.586 696.96 312.586H752.112C754.186 312.586 755.885 308.286 755.885 302.995C755.885 297.703 754.301 293.376 752.228 293.376Z" fill="#69A37A"/>
<path opacity="0.2" d="M752.228 293.376H696.96C694.887 293.376 693.216 297.676 693.216 302.995C693.216 308.314 694.887 312.586 696.96 312.586H752.112C754.186 312.586 755.885 308.286 755.885 302.995C755.885 297.703 754.301 293.376 752.228 293.376Z" fill="white"/>
<path d="M697.854 291.446H640.254C637.748 291.446 635.732 296.6 635.732 302.994C635.732 309.388 637.748 314.514 640.254 314.514H697.854C700.331 314.514 702.376 309.36 702.376 302.994C702.376 296.628 700.331 291.446 697.854 291.446Z" fill="#69A37A"/>
<path opacity="0.4" d="M697.854 291.446H640.254C637.748 291.446 635.732 296.6 635.732 302.994C635.732 309.388 637.748 314.514 640.254 314.514H697.854C700.331 314.514 702.376 309.36 702.376 302.994C702.376 296.628 700.331 291.446 697.854 291.446Z" fill="white"/>
<path opacity="0.2" d="M644.746 302.994C644.746 309.36 642.73 314.514 640.225 314.514C637.719 314.514 635.703 309.36 635.703 302.994C635.703 296.628 637.719 291.446 640.225 291.446C642.73 291.446 644.746 296.6 644.746 302.994Z" fill="white"/>
<path d="M640.225 313.218C639.102 313.218 637.057 309.332 637.057 302.994C637.057 296.655 639.102 292.741 640.225 292.741C641.348 292.741 643.364 296.627 643.364 302.994C643.364 309.36 641.348 313.218 640.225 313.218Z" fill="black"/>
<path d="M978.97 951.564H1004.52C1004.94 951.566 1005.34 951.703 1005.67 951.953C1006 952.202 1006.23 952.551 1006.33 952.942L1010.65 970.774C1010.75 971.204 1010.75 971.651 1010.64 972.08C1010.53 972.509 1010.33 972.91 1010.04 973.252C1009.75 973.594 1009.38 973.869 1008.96 974.055C1008.54 974.242 1008.09 974.335 1007.63 974.329C999.389 974.329 993.398 973.75 983.03 973.75C976.666 973.75 957.456 974.384 948.643 974.384C939.831 974.384 938.621 966.116 942.221 965.289C958.32 961.927 970.445 957.269 975.571 952.804C976.503 952.001 977.715 951.558 978.97 951.564V951.564Z" fill="#263238"/>
<path d="M790.992 373.216C790.992 373.216 779.645 375.972 767.607 377.598C761.559 378.425 755.568 379.224 749.78 379.803C746.9 380.079 744.02 380.244 741.457 380.382H739.93C739.212 378.428 738.597 376.441 738.087 374.429C736.733 369.192 735.61 363.405 734.631 357.727C732.701 346.235 732.125 326.667 732.125 326.667L713.578 322.451C711.804 334.78 710.909 347.211 710.9 359.657C710.888 366.102 711.253 372.543 711.994 378.949C712.412 382.518 713.095 386.055 714.039 389.532C714.615 391.711 715.406 393.834 716.401 395.871C717.09 397.27 717.909 398.607 718.849 399.867C720.328 401.835 722.173 403.526 724.292 404.855C725.044 405.302 725.823 405.707 726.625 406.068C727.565 406.433 728.527 406.746 729.505 407.005L731.492 407.473C732.845 407.776 733.882 407.914 735.034 408.08C737.165 408.355 739.152 408.521 741.024 408.631C744.74 408.851 748.253 408.824 751.652 408.631C758.477 408.631 765.044 408.024 771.552 407.391C784.599 406.15 797.185 404.304 810.029 401.879L790.992 373.216Z" fill="#263238"/>
<path d="M910.973 366.684C910.409 387.673 911.536 408.671 914.343 429.494C916.244 445.01 918.721 459.81 921.313 473.038C927.361 504.291 933.927 527.773 934.993 535.985L822.673 551.75C777.975 437.348 793.556 372.775 793.556 372.775C802.257 369.931 811.135 367.612 820.138 365.83C822.039 365.444 823.969 365.113 825.898 364.81C841.744 362.819 857.697 361.705 873.677 361.476C876.557 361.476 879.697 361.476 882.634 361.476C892.306 361.796 901.866 363.553 910.973 366.684V366.684Z" fill="#69A37A"/>
<path opacity="0.7" d="M910.973 366.684C910.409 387.673 911.536 408.671 914.343 429.494C916.244 445.01 918.721 459.81 921.313 473.038C927.361 504.291 933.927 527.773 934.993 535.985L822.673 551.75C777.975 437.348 793.556 372.775 793.556 372.775C802.257 369.931 811.135 367.612 820.138 365.83C822.039 365.444 823.969 365.113 825.898 364.81C841.744 362.819 857.697 361.705 873.677 361.476C876.557 361.476 879.697 361.476 882.634 361.476C892.306 361.796 901.866 363.553 910.973 366.684V366.684Z" fill="white"/>
<path d="M835.921 390.773C834.51 399.041 830.161 420.51 830.161 441.621C832.235 445.7 835.028 455.676 837.534 459.728C839.377 455.125 842.574 445.617 844.763 440.959C842.833 420.896 839.003 400.777 840.241 390.249L835.921 390.773Z" fill="#69A37A"/>
<path d="M837.245 397.112L831.745 387.741L838.714 383.497L844.877 385.95L837.245 397.112Z" fill="#69A37A"/>
<path d="M859.767 314.377C859.249 329.287 860.804 356.241 873.073 364.343C869.177 369.687 864.121 374.162 858.25 377.463C852.38 380.764 845.834 382.813 839.06 383.47C825.956 385.096 826.417 374.596 828.491 369.359C842.142 363.847 839.694 353.016 834.826 342.185L859.767 314.377Z" fill="#E4897B"/>
<path d="M838.714 383.496C838.714 383.496 844.474 388.815 851.386 393.969C859.278 388.457 877.623 373.933 875.204 363.24C873.698 361.163 871.491 359.646 868.954 358.94C860.318 368.627 850.107 376.919 838.714 383.496V383.496Z" fill="white"/>
<path d="M838.715 383.497C834.994 387.521 831.873 392.02 829.442 396.864C822.645 393.584 825.064 372.06 827.051 369.607C829.921 366.086 833.609 363.255 837.823 361.339C835.269 368.58 835.587 376.466 838.715 383.497V383.497Z" fill="white"/>
<path opacity="0.2" d="M849.601 325.731L834.855 342.267C836.05 344.772 837.014 347.373 837.735 350.039C844.071 348.192 851.789 340.117 851.357 333.503C851.274 330.831 850.678 328.197 849.601 325.731V325.731Z" fill="black"/>
<path d="M805.939 279.954C802.714 287.423 802.714 303.352 814.378 299.246C826.042 295.139 811.469 267.083 805.939 279.954Z" fill="#263238"/>
<path d="M862.935 295.057C862.417 314.928 863.165 326.586 853.057 337.059C837.879 352.768 811.873 344.335 806.17 324.657C801.044 306.936 802.743 277.419 822.788 268.986C827.229 267.162 832.079 266.437 836.89 266.877C841.701 267.318 846.319 268.91 850.318 271.507C854.317 274.104 857.569 277.623 859.774 281.738C861.979 285.854 863.066 290.434 862.935 295.057Z" fill="#E4897B"/>
<path d="M850.378 261.323C849.629 261.323 849.054 261.626 848.449 261.626C848.449 261.626 850.234 300.486 859.565 308.974C883.441 302.525 895.681 259.228 850.378 261.323Z" fill="#263238"/>
<path d="M871.575 311.428C870.873 313.803 869.687 316.021 868.086 317.956C866.484 319.89 864.499 321.503 862.244 322.7C856.167 325.842 851.53 320.991 851.876 314.707C852.192 309.195 855.735 300.624 862.474 300.073C863.95 299.979 865.428 300.236 866.775 300.819C868.123 301.403 869.299 302.296 870.2 303.42C871.1 304.543 871.697 305.862 871.937 307.259C872.176 308.656 872.052 310.088 871.575 311.428V311.428Z" fill="#E4897B"/>
<path d="M812.534 301.892C812.534 303.49 811.728 304.841 810.634 304.868C809.539 304.896 808.589 303.6 808.531 301.974C808.474 300.348 809.309 299.026 810.403 298.998C811.498 298.97 812.448 300.403 812.534 301.892Z" fill="#263238"/>
<path d="M818.64 302.526C816.741 307.368 814.143 311.932 810.922 316.086C812.118 316.794 813.456 317.256 814.85 317.441C816.243 317.626 817.662 317.53 819.015 317.161L818.64 302.526Z" fill="#DE5753"/>
<path d="M828.317 323.113C827.585 323.235 826.843 323.3 826.1 323.306C825.975 323.306 825.854 323.26 825.763 323.178C825.672 323.096 825.617 322.984 825.61 322.865C825.602 322.802 825.608 322.739 825.627 322.679C825.647 322.619 825.679 322.564 825.723 322.517C825.766 322.47 825.82 322.432 825.88 322.407C825.94 322.381 826.005 322.368 826.071 322.369C828.172 322.365 830.241 321.883 832.109 320.963C833.977 320.043 835.589 318.711 836.813 317.077C836.848 317.024 836.894 316.977 836.948 316.941C837.002 316.905 837.064 316.88 837.128 316.867C837.193 316.854 837.259 316.854 837.324 316.867C837.389 316.879 837.45 316.904 837.504 316.939C837.559 316.97 837.607 317.011 837.644 317.061C837.682 317.11 837.708 317.166 837.722 317.226C837.735 317.286 837.736 317.347 837.723 317.407C837.71 317.467 837.685 317.523 837.648 317.573C836.58 319.066 835.198 320.329 833.592 321.282C831.985 322.236 830.189 322.859 828.317 323.113V323.113Z" fill="#263238"/>
<path d="M833.011 297.123C832.859 297.211 832.685 297.257 832.507 297.257C832.329 297.257 832.155 297.211 832.003 297.123C830.919 296.524 829.704 296.175 828.454 296.103C827.204 296.032 825.954 296.239 824.803 296.71C824.69 296.77 824.565 296.807 824.436 296.821C824.308 296.835 824.177 296.824 824.053 296.789C823.929 296.755 823.813 296.697 823.711 296.62C823.61 296.542 823.526 296.446 823.464 296.338C823.401 296.229 823.362 296.11 823.348 295.987C823.334 295.864 823.345 295.739 823.381 295.62C823.417 295.501 823.477 295.39 823.558 295.293C823.639 295.197 823.739 295.116 823.853 295.056C825.294 294.426 826.872 294.134 828.455 294.206C830.039 294.278 831.581 294.711 832.953 295.47C833.103 295.552 833.227 295.67 833.314 295.813C833.4 295.956 833.446 296.118 833.446 296.283C833.446 296.448 833.4 296.61 833.314 296.753C833.227 296.895 833.103 297.014 832.953 297.096L833.011 297.123Z" fill="#263238"/>
<path d="M802.973 294.616C802.787 294.583 802.616 294.496 802.484 294.368C802.299 294.187 802.195 293.945 802.195 293.692C802.195 293.44 802.299 293.198 802.484 293.017C803.586 291.926 804.946 291.106 806.451 290.626C807.955 290.146 809.558 290.021 811.124 290.261C811.378 290.321 811.6 290.47 811.745 290.68C811.889 290.889 811.945 291.144 811.901 291.391C811.877 291.513 811.828 291.628 811.757 291.732C811.686 291.835 811.594 291.924 811.487 291.993C811.38 292.062 811.26 292.11 811.133 292.135C811.006 292.159 810.876 292.159 810.749 292.135C809.511 291.97 808.25 292.097 807.075 292.506C805.901 292.914 804.848 293.591 804.01 294.478C803.867 294.59 803.694 294.661 803.512 294.686C803.329 294.71 803.142 294.686 802.973 294.616Z" fill="#263238"/>
<path d="M826.963 302.36C826.843 302.356 826.729 302.306 826.646 302.222C826.567 302.145 826.523 302.041 826.523 301.933C826.523 301.825 826.567 301.721 826.646 301.644C827.327 301.028 828.181 300.619 829.104 300.467C830.026 300.315 830.974 300.427 831.83 300.789C831.928 300.842 832.003 300.927 832.04 301.028C832.077 301.13 832.074 301.241 832.032 301.34C831.977 301.434 831.888 301.506 831.782 301.541C831.676 301.577 831.56 301.574 831.456 301.533C830.763 301.236 829.993 301.143 829.244 301.266C828.495 301.388 827.802 301.721 827.251 302.222C827.176 302.3 827.073 302.349 826.963 302.36V302.36Z" fill="#263238"/>
<path d="M855.936 287.065C853.149 286.823 850.482 285.865 848.216 284.294C845.95 282.722 844.17 280.594 843.062 278.135C839.347 269.675 836.179 276.565 836.179 276.565C836.179 276.565 834.969 274.029 826.963 272.486C818.956 270.942 813.686 291.53 805.046 288.195C802.691 287.341 800.756 285.672 799.625 283.518C798.495 281.364 798.25 278.883 798.94 276.565C798.94 276.565 802.713 274.801 806.976 263.584C811.756 250.934 834.825 245.311 854.812 254.875C874.8 264.438 855.936 287.065 855.936 287.065Z" fill="#263238"/>
<path d="M950.66 562.223L866.881 579.062L844.906 548.746L831.831 577.05L795.313 557.235L814.753 530.088C778.724 446.361 791.022 373.327 791.022 373.327C802.568 368.527 814.872 365.612 827.425 364.701C806.516 395.017 837.678 459.838 837.678 459.838C856.426 409.844 878.862 361.531 878.862 361.531C890.812 360.8 902.806 361.992 914.343 365.059C914.343 365.059 922.522 479.13 933.322 508.123C944.122 537.116 950.66 562.223 950.66 562.223Z" fill="#263238"/>
<path opacity="0.1" d="M866.592 402.761L884.16 423.872C884.16 423.872 843.264 451.901 831.226 498.284L835.546 471.11L801.907 425.912L817.373 407.419L798.999 394.356C798.999 394.356 814.81 368.863 827.453 364.453C806.544 394.769 837.706 459.59 837.706 459.59C856.455 409.596 878.89 361.284 878.89 361.284C889.374 369.414 897.266 380.193 901.671 392.399L866.592 402.761Z" fill="white"/>
<path d="M1009.07 562.747C1007.22 562.759 1005.37 562.639 1003.54 562.389C997.46 561.535 993.63 559.22 992.795 555.885C991.095 549.298 1001.64 541.609 1017.25 537.971C1032.86 534.333 1046.05 536.538 1047.6 543.097C1048.44 546.459 1046.16 550.18 1041.18 553.625C1035.68 557.126 1029.56 559.63 1023.12 561.011C1018.53 562.124 1013.81 562.707 1009.07 562.747V562.747ZM1031.36 539.514C1026.88 539.57 1022.42 540.125 1018.08 541.168C1003.88 544.475 995.041 551.172 996.135 555.113C996.625 556.987 999.563 558.503 1004.03 559.109C1010.15 559.756 1016.35 559.317 1022.31 557.814C1028.33 556.536 1034.04 554.2 1039.16 550.924C1042.82 548.416 1044.72 545.798 1044.23 543.896C1043.6 541.306 1038.64 539.514 1031.36 539.514Z" fill="#263238"/>
<path d="M1085.56 536.73L1107.74 623.875C1107.92 624.556 1107.95 625.264 1107.84 625.958C1107.73 626.653 1107.48 627.319 1107.1 627.919C1106.72 628.52 1106.22 629.041 1105.63 629.454C1105.03 629.867 1104.36 630.163 1103.65 630.324L970.82 661.274C970.109 661.443 969.37 661.475 968.646 661.369C967.922 661.264 967.227 661.022 966.6 660.658C965.974 660.295 965.429 659.816 964.997 659.25C964.564 658.684 964.253 658.042 964.081 657.361L941.905 570.216C941.557 568.842 941.792 567.392 942.559 566.183C943.325 564.975 944.561 564.106 945.995 563.767L1078.82 532.817C1079.53 532.648 1080.27 532.616 1080.99 532.722C1081.72 532.827 1082.41 533.069 1083.04 533.433C1083.67 533.796 1084.21 534.275 1084.64 534.841C1085.08 535.407 1085.39 536.049 1085.56 536.73V536.73Z" fill="#263238"/>
<path opacity="0.1" d="M1085.56 536.73L1107.74 623.875C1107.92 624.556 1107.95 625.264 1107.84 625.958C1107.73 626.653 1107.48 627.319 1107.1 627.919C1106.72 628.52 1106.22 629.041 1105.63 629.454C1105.03 629.867 1104.36 630.163 1103.65 630.324L970.82 661.274C970.109 661.443 969.37 661.475 968.646 661.369C967.922 661.264 967.227 661.022 966.6 660.658C965.974 660.295 965.429 659.816 964.997 659.25C964.564 658.684 964.253 658.042 964.081 657.361L941.905 570.216C941.557 568.842 941.792 567.392 942.559 566.183C943.325 564.975 944.561 564.106 945.995 563.767L1078.82 532.817C1079.53 532.648 1080.27 532.616 1080.99 532.722C1081.72 532.827 1082.41 533.069 1083.04 533.433C1083.67 533.796 1084.21 534.275 1084.64 534.841C1085.08 535.407 1085.39 536.049 1085.56 536.73V536.73Z" fill="white"/>
<path d="M954.951 567.185L977.127 654.329C977.43 655.7 977.176 657.13 976.416 658.328C975.656 659.526 974.448 660.402 973.038 660.778L970.82 661.274C970.109 661.443 969.37 661.475 968.646 661.37C967.922 661.264 967.227 661.022 966.6 660.659C965.974 660.295 965.429 659.816 964.997 659.25C964.564 658.684 964.253 658.042 964.081 657.361L941.905 570.216C941.557 568.842 941.792 567.392 942.559 566.184C943.325 564.975 944.561 564.106 945.995 563.767L948.212 563.271C948.923 563.099 949.663 563.063 950.389 563.168C951.115 563.272 951.811 563.513 952.439 563.877C953.066 564.241 953.611 564.721 954.042 565.289C954.474 565.857 954.783 566.501 954.951 567.185V567.185Z" fill="#263238"/>
<path d="M949.68 562.995C951.078 562.746 952.523 563.023 953.713 563.767C954.904 564.511 955.749 565.666 956.073 566.991L966.355 607.394C966.635 608.486 967.356 609.428 968.36 610.011C969.365 610.595 970.57 610.774 971.712 610.508L1093.74 582.066C1094.3 581.934 1094.83 581.696 1095.3 581.366C1095.77 581.037 1096.17 580.622 1096.47 580.145C1096.76 579.669 1096.96 579.14 1097.05 578.59C1097.13 578.04 1097.11 577.479 1096.96 576.94L1086.65 536.427C1086.3 535.064 1085.41 533.889 1084.15 533.16C1082.9 532.431 1081.4 532.208 1079.97 532.541L947.088 563.518L949.68 562.995Z" fill="#263238"/>
<path opacity="0.2" d="M949.68 562.995C951.078 562.746 952.523 563.023 953.713 563.767C954.904 564.511 955.749 565.666 956.073 566.991L966.355 607.394C966.635 608.486 967.356 609.428 968.36 610.011C969.365 610.595 970.57 610.774 971.712 610.508L1093.74 582.066C1094.3 581.934 1094.83 581.696 1095.3 581.366C1095.77 581.037 1096.17 580.622 1096.47 580.145C1096.76 579.669 1096.96 579.14 1097.05 578.59C1097.13 578.04 1097.11 577.479 1096.96 576.94L1086.65 536.427C1086.3 535.064 1085.41 533.889 1084.15 533.16C1082.9 532.431 1081.4 532.208 1079.97 532.541L947.088 563.518L949.68 562.995Z" fill="white"/>
<path d="M1026.83 591.77L1039.9 588.723L1045.86 612.127C1045.96 612.531 1045.89 612.959 1045.67 613.315C1045.44 613.671 1045.08 613.926 1044.65 614.025L1034.78 616.327C1034.35 616.426 1033.91 616.36 1033.53 616.143C1033.16 615.927 1032.89 615.577 1032.79 615.173L1026.83 591.77V591.77Z" fill="#263238"/>
<path d="M1031.73 610.922C1031.1 610.92 1030.49 610.759 1029.95 610.454C1029.56 610.227 1029.23 609.931 1028.97 609.581C1028.71 609.23 1028.52 608.834 1028.42 608.414L1027.1 603.205C1026.98 602.789 1026.96 602.355 1027.02 601.929C1027.09 601.504 1027.24 601.094 1027.47 600.725C1027.95 599.985 1028.72 599.452 1029.6 599.237L1041.12 596.481C1041.56 596.371 1042.01 596.349 1042.46 596.415C1042.91 596.482 1043.33 596.635 1043.71 596.867C1044.1 597.087 1044.43 597.378 1044.7 597.724C1044.97 598.069 1045.16 598.461 1045.27 598.879L1046.59 604.115C1046.79 604.952 1046.65 605.83 1046.19 606.568C1045.96 606.936 1045.66 607.258 1045.29 607.513C1044.93 607.769 1044.52 607.953 1044.09 608.056L1032.57 610.812C1032.3 610.892 1032.02 610.929 1031.73 610.922ZM1041.84 598.134H1041.41L1029.89 600.89C1029.67 600.942 1029.47 601.035 1029.29 601.162C1029.11 601.29 1028.96 601.451 1028.85 601.635C1028.73 601.811 1028.65 602.01 1028.61 602.22C1028.58 602.429 1028.59 602.643 1028.65 602.847L1029.98 608.084C1030.08 608.494 1030.35 608.849 1030.72 609.076C1030.91 609.193 1031.13 609.271 1031.35 609.304C1031.57 609.337 1031.8 609.325 1032.02 609.269L1043.54 606.513C1043.76 606.461 1043.96 606.369 1044.14 606.241C1044.32 606.113 1044.47 605.952 1044.58 605.769C1044.8 605.403 1044.87 604.97 1044.78 604.556L1043.45 599.319C1043.34 598.906 1043.06 598.551 1042.68 598.327C1042.43 598.162 1042.14 598.066 1041.84 598.052V598.134Z" fill="white"/>
<path d="M1005.96 516.225L1002.24 536.261L1028.16 529.536C1028.16 529.536 1027.33 511.843 1017.42 511.319L1005.96 516.225Z" fill="#E4897B"/>
<path d="M1010.51 550.979L1031.67 544.448L1028.28 529.538L1002.3 536.262L1010.51 550.979Z" fill="#E4897B"/>
<path d="M1004.34 508.178L1005.01 517.163L1022.2 513.773L1020.85 505.312L1004.34 508.178Z" fill="#69A37A"/>
<path opacity="0.7" d="M1004.34 508.178L1005.01 517.163L1022.2 513.773L1020.85 505.312L1004.34 508.178Z" fill="white"/>
<path d="M913.882 364.7C928.98 370.384 943.687 376.975 957.917 384.433C965.23 388.224 972.334 392.372 979.2 396.863C982.685 399.205 986.199 401.741 989.683 404.607C993.573 407.739 997.071 411.29 1000.11 415.19C1001.04 416.42 1001.87 417.709 1002.61 419.049C1003.02 419.765 1003.45 420.537 1003.8 421.198L1004.46 422.769L1005.75 425.939L1006.79 428.887C1007.51 430.872 1008.09 432.801 1008.63 434.703C1009.18 436.604 1009.76 438.533 1010.25 440.408C1012.35 447.931 1013.96 455.428 1015.52 462.896C1018.4 477.834 1020.87 492.771 1022.52 507.902L1004 511.209C1004 511.209 997.056 482.795 992.103 468.794C989.683 461.794 987.12 454.849 984.528 448.097C983.895 446.388 983.232 444.734 982.541 443.108C981.85 441.482 981.187 439.829 980.496 438.341L979.459 436.025L978.423 434.041L977.904 433.049C977.831 432.938 977.744 432.837 977.645 432.746C977.435 432.455 977.204 432.179 976.954 431.919C975.075 429.983 973.001 428.229 970.762 426.683C968.199 424.809 965.347 422.962 962.323 421.171C956.275 417.643 949.795 414.225 943.114 410.973C929.837 404.552 915.725 398.406 902.074 392.811L913.882 364.7Z" fill="#263238"/>
<path d="M1083.57 372.418C1159.01 372.418 1220.17 313.894 1220.17 241.701C1220.17 169.508 1159.01 110.984 1083.57 110.984C1008.13 110.984 946.973 169.508 946.973 241.701C946.973 313.894 1008.13 372.418 1083.57 372.418Z" fill="#69A37A"/>
<path opacity="0.7" d="M1083.57 372.418C1159.01 372.418 1220.17 313.894 1220.17 241.701C1220.17 169.508 1159.01 110.984 1083.57 110.984C1008.13 110.984 946.973 169.508 946.973 241.701C946.973 313.894 1008.13 372.418 1083.57 372.418Z" fill="white"/>
<path d="M943.172 305.254C951.141 305.254 957.601 299.072 957.601 291.447C957.601 283.821 951.141 277.639 943.172 277.639C935.203 277.639 928.743 283.821 928.743 291.447C928.743 299.072 935.203 305.254 943.172 305.254Z" fill="#69A37A"/>
<path opacity="0.7" d="M943.172 305.254C951.141 305.254 957.601 299.072 957.601 291.447C957.601 283.821 951.141 277.639 943.172 277.639C935.203 277.639 928.743 283.821 928.743 291.447C928.743 299.072 935.203 305.254 943.172 305.254Z" fill="white"/>
<path d="M920.535 300.927C920.422 302.489 919.828 303.983 918.828 305.221C917.828 306.46 916.466 307.386 914.915 307.883C913.365 308.381 911.695 308.427 910.116 308.016C908.538 307.604 907.123 306.754 906.05 305.573C904.977 304.392 904.295 302.933 904.089 301.38C903.883 299.827 904.163 298.251 904.893 296.851C905.624 295.45 906.772 294.289 908.193 293.514C909.613 292.738 911.242 292.383 912.874 292.494C915.057 292.642 917.09 293.614 918.527 295.195C919.963 296.776 920.685 298.837 920.535 300.927Z" fill="#69A37A"/>
<path opacity="0.7" d="M920.535 300.927C920.422 302.489 919.828 303.983 918.828 305.221C917.828 306.46 916.466 307.386 914.915 307.883C913.365 308.381 911.695 308.427 910.116 308.016C908.538 307.604 907.123 306.754 906.05 305.573C904.977 304.392 904.295 302.933 904.089 301.38C903.883 299.827 904.163 298.251 904.893 296.851C905.624 295.45 906.772 294.289 908.193 293.514C909.613 292.738 911.242 292.383 912.874 292.494C915.057 292.642 917.09 293.614 918.527 295.195C919.963 296.776 920.685 298.837 920.535 300.927Z" fill="white"/>
<path d="M895.681 298.806C895.628 299.589 895.333 300.34 894.833 300.964C894.334 301.587 893.652 302.054 892.875 302.307C892.098 302.559 891.26 302.585 890.467 302.382C889.675 302.178 888.963 301.754 888.422 301.163C887.882 300.573 887.536 299.842 887.43 299.063C887.324 298.284 887.461 297.493 887.825 296.789C888.189 296.085 888.763 295.5 889.474 295.109C890.186 294.717 891.003 294.536 891.822 294.589C892.914 294.667 893.931 295.153 894.653 295.941C895.375 296.73 895.744 297.759 895.681 298.806V298.806Z" fill="#69A37A"/>
<path opacity="0.7" d="M895.681 298.806C895.628 299.589 895.333 300.34 894.833 300.964C894.334 301.587 893.652 302.054 892.875 302.307C892.098 302.559 891.26 302.585 890.467 302.382C889.675 302.178 888.963 301.754 888.422 301.163C887.882 300.573 887.536 299.842 887.43 299.063C887.324 298.284 887.461 297.493 887.825 296.789C888.189 296.085 888.763 295.5 889.474 295.109C890.186 294.717 891.003 294.536 891.822 294.589C892.914 294.667 893.931 295.153 894.653 295.941C895.375 296.73 895.744 297.759 895.681 298.806V298.806Z" fill="white"/>
<path d="M1102.69 304.008C1130.34 294.545 1142.79 260.211 1130.49 227.319C1118.2 194.427 1085.82 175.434 1058.17 184.897C1030.53 194.359 1018.08 228.694 1030.37 261.585C1042.67 294.477 1075.05 313.47 1102.69 304.008Z" fill="#69A37A"/>
<path d="M1102.3 291.163C1124.61 283.525 1134.66 255.817 1124.74 229.274C1114.82 202.731 1088.69 187.406 1066.37 195.043C1044.06 202.681 1034.01 230.39 1043.93 256.932C1053.85 283.475 1079.98 298.8 1102.3 291.163Z" fill="white"/>
<path d="M1120.12 230.87C1128.07 252.146 1120.12 274.332 1102.15 280.478C1084.18 286.624 1063.33 274.304 1055.38 253.056C1047.43 231.807 1055.38 209.621 1073.38 203.448C1091.38 197.274 1112.17 209.621 1120.12 230.87Z" fill="#69A37A"/>
<path d="M1101.2 270.682C1114.38 266.171 1120.12 249.281 1114.02 232.957C1107.92 216.633 1092.29 207.057 1079.11 211.567C1065.93 216.078 1060.19 232.968 1066.29 249.292C1072.39 265.616 1088.02 275.193 1101.2 270.682Z" fill="white"/>
<path d="M1109.55 235.499C1113.9 247.13 1110.12 259.063 1101.14 262.15C1092.15 265.237 1081.35 258.264 1077 246.634C1072.66 235.003 1076.4 223.07 1085.39 219.983C1094.37 216.896 1105.2 223.869 1109.55 235.499Z" fill="#69A37A"/>
<path d="M1106.38 236.574C1109.55 244.842 1107.16 253.496 1101.05 255.563C1094.95 257.63 1087.49 252.532 1084.35 244.126C1081.21 235.72 1083.6 227.204 1089.68 225.109C1095.75 223.015 1103.24 228.169 1106.38 236.574Z" fill="white"/>
<path d="M1178.93 198.597L1162.57 204.191L1159.43 218.412L1171.3 227.535L1187.66 221.912L1175.53 212.928L1178.93 198.597Z" fill="#69A37A"/>
<path d="M1097.91 242.225C1097.24 242.224 1096.58 241.995 1096.06 241.578C1095.54 241.161 1095.2 240.582 1095.08 239.944C1094.96 239.306 1095.08 238.649 1095.42 238.088C1095.76 237.527 1096.3 237.099 1096.93 236.878L1177.06 209.456C1177.78 209.211 1178.57 209.25 1179.26 209.566C1179.95 209.881 1180.49 210.446 1180.74 211.137C1181 211.828 1180.96 212.587 1180.63 213.249C1180.3 213.91 1179.71 214.42 1178.99 214.665L1098.89 242.059C1098.58 242.168 1098.25 242.224 1097.91 242.225Z" fill="#263238"/>
</g>
<defs>
<clipPath id="clip0_358_3204">
<rect width="1440" height="1024" fill="white"/>
</clipPath>
</defs>
</svg>
